<!DOCTYPE svg  PUBLIC '-//W3C//DTD SVG 1.1 Basic//EN'  'http://www.w3.org/Graphics/SVG/1.1/DTD/svg11-basic.dtd'>
<svg xmlns="http://www.w3.org/2000/svg" width="174.029px" xml:space="preserve" height="173.589px" viewBox="110.354 181.681 174.029 173.589" baseProfile="basic" version="1.1" y="0px" x="0px" xmlns:xlink="http://www.w3.org/1999/xlink">
<path d="m269.327 182.883l-20.375 0.75-21.188 0.562-35.312 0.312-18.5-0.125-25.625-0.688-19.062-0.625-18.764-1.282 1.306 2.823 1.417 0.333 3 7.667 2.917 5.917 2.917 0.167 3.083 5.917 14.562 0.521 0.188 2.188 3.125 0.25-0.188 11.125-17.625-0.188-0.125 11.188 17.938 0.188-0.312 16.562-3 1.75 2.375 0.312 0.312 4.688-1.188 101.975h12l-1.188-103.412 0.5-0.5-0.125-2.75 2.375-0.125-2.875-1.875-0.5-16.875h91.938l-0.25 16.875-3.312 1.625 2.625 0.5-0.062 3 0.562 1.688-1.5 101.85h12.125l-1.375-103.412 0.5-0.188v-3.062l2.375-0.125-3-2.062-0.312-16.5 17.812-0.312 0.062-11.188-18.062 0.25-0.125-11 3.562-0.312v-2.062l14.625-0.688 2.875-5.812 3-0.125 2.938-5.875 2.938-7.875 1.438-0.125 1.471-2.907-14.911 1.092zm-26.104 35.729h-92.167l0.083-11.083h3.333l0.083-1.917 4.417 0.25 20.5 0.583 20.833 0.25 20.333-0.583 19.417-0.25 0.083 1.667 3.333 0.167-0.248 10.916z" fill="#fff"/><g stroke="#000" stroke-width=".7" fill="none">
<polyline points="152.256 251.721 151.9 251.721 153.14 318.062 152.256 251.721 152.404 251.721 152.404 248.403 155.352 248.403 152.189 246.678 151.961 229.606 151.487 229.606 151.804 246.467 152.189 246.678"/>
<polyline points="252.505 251.721 252.149 251.721 253.39 318.062 252.505 251.721 252.651 251.721 252.651 248.403 255.6 248.403 252.436 246.678 252.21 229.606 251.736 229.606 252.051 246.467 252.436 246.678"/>
<path d="m151.487 229.606c-0.137-7.371-0.276-14.742-0.414-22.112h0.594l0.147 11.056h91.107l0.147-11.056h0.592l-0.206 11.056h-0.533"/>
<polyline points="242.48 251.721 242.836 251.721 241.595 318.062 242.48 251.721 242.332 251.721 242.332 248.403 239.384 248.403 242.547 246.678 242.775 229.606 243.249 229.606 242.933 246.467 242.547 246.678"/>
<path d="m122.157 198.647c12.517 0.604 25.034 1.09 37.561 1.473 12.52 0.381 25.051 0.439 37.576 0.494 12.521 0.055 25.045-0.219 37.563-0.49 12.269-0.266 24.532-0.842 36.788-1.432 1.292-0.062 2.583-0.124 3.874-0.186l2.951-5.896c-12.451 0.596-24.897 1.189-37.358 1.569-12.441 0.38-24.887 0.596-37.335 0.65-12.447 0.055-24.893-0.049-37.338-0.317-12.018-0.26-24.034-0.648-36.043-1.224-4.71-0.227-9.419-0.452-14.129-0.678l2.949 5.896 2.941 0.141 2.948 5.896c4.915 0.245 9.828 0.51 14.744 0.712v2.238h2.973l-0.147 11.056h-17.545v11.056h17.396l-0.228 17.072 0.385-0.211 0.317-16.86h-0.474"/>
<line y2="218.55" x1="151.282" x2="151.815" y1="218.55"/>
<polyline points="142.675 218.55 143.206 218.55 143.413 207.494 144.117 207.494 143.146 246.215 147.245 243.981 151.343 246.215 150.371 207.494 144.117 207.494"/>
<polyline points="254.694 205.265 254.888 205.256 254.888 207.494 251.916 207.494 252.061 218.55 251.529 218.55 251.321 207.494 251.916 207.494"/>
<polyline points="152.404 248.403 142.085 248.403 142.085 251.721 142.231 251.721 141.346 318.062 142.587 251.721 142.231 251.721"/>
<line y2="248.403" x1="252.651" x2="242.332" y1="248.403"/>
<path d="m242.836 251.721h0.42c-0.331 13.2-0.661 26.4-0.992 39.599-0.301 12.013-0.669 24.013-0.669 36.028v27.572h1.474c0-10.986 0.258-44.595 0.623-55.575 0.515-15.426 1.029-30.851 1.544-46.275 0.014-0.451 0.029-0.9 0.044-1.349h4.423c0.439 13.2 0.88 26.4 1.32 39.599 0.401 12.014 0.893 24.007 0.893 36.028v27.572h-8.847"/>
<path d="m151.9 251.721h-0.423c0.331 13.2 0.662 26.4 0.993 39.599 0.301 12.013 0.67 24.013 0.67 36.028v27.572h-1.474c0-10.986-0.258-44.595-0.623-55.575-0.515-15.426-1.029-30.851-1.544-46.275-0.014-0.451-0.029-0.9-0.045-1.349h-4.425c-0.439 13.2-0.879 26.4-1.32 39.599-0.398 12.014-0.89 24.007-0.89 36.028v27.572h8.845"/>
<path d="m259.719 185.787c7.722-0.371 15.443-0.743 23.167-1.11l0.982-2.62c-12.255 0.586-24.512 1.277-36.778 1.651-12.431 0.379-24.867 0.759-37.304 0.813-12.441 0.053-24.888 0.108-37.329-0.164-12.445-0.271-24.89-0.595-37.327-1.139-8.088-0.353-16.175-0.773-24.262-1.162l0.981 2.62 1.471 0.07 2.945 7.864"/>
<line y2="192.61" x1="281.413" x2="278.47" y1="184.747"/>
<line y2="185.787" x1="113.322" x2="135.019" y1="184.747"/>
<line y2="204.544" x1="254.694" x2="240.289" y1="204.544"/>
<path d="m243.069 207.494h-2.974v-1.684c-12.37 0.392-24.742 0.619-37.119 0.675-12.507 0.058-25.01-0.086-37.513-0.37-3.609-0.083-7.216-0.192-10.824-0.306v1.684h-2.973"/>
<polyline points="251.321 207.494 250.619 207.494 251.589 246.215 247.491 243.981 243.393 246.215 244.365 207.494 243.661 207.494"/>
<line y2="207.494" x1="244.365" x2="250.619" y1="207.494"/>
<line y2="207.494" x1="151.073" x2="150.371" y1="207.494"/>
<line y2="207.494" x1="143.413" x2="142.822" y1="207.494"/>
<line y2="204.544" x1="154.447" x2="140.041" y1="204.544"/>
<path d="m251.916 354.92h1.474c0-10.975-0.195-44.604-0.468-55.575-0.386-15.426-0.772-30.851-1.16-46.275-0.011-0.451-0.022-0.9-0.034-1.349h-2.023"/>
<line y2="251.721" x1="151.478" x2="149.455" y1="251.721"/>
<line y2="251.721" x1="252.149" x2="251.726" y1="251.721"/>
<line y2="251.721" x1="245.28" x2="243.256" y1="251.721"/>
<path d="m145.031 251.721h-2.023c-0.33 13.2-0.661 26.4-0.992 39.599-0.302 12.013-0.67 24.013-0.67 36.028v27.572h1.476"/>
<line y2="246.467" x1="243.393" x2="242.933" y1="246.215"/>
<line y2="246.215" x1="252.051" x2="251.589" y1="246.467"/>
<line y2="246.467" x1="143.146" x2="142.684" y1="246.215"/>
<line y2="246.215" x1="151.804" x2="151.343" y1="246.467"/>
<line y2="251.721" x1="143.008" x2="142.587" y1="251.721"/>
<polyline points="142.298 246.678 139.136 248.403 142.085 248.403"/>
<path d="m254.888 205.256c4.915-0.202 9.828-0.467 14.741-0.712l2.951-5.896"/>
<line y2="205.803" x1="240.095" x2="240.289" y1="205.81"/>
<line y2="205.81" x1="154.447" x2="154.64" y1="205.803"/>
<line y2="205.265" x1="139.849" x2="140.041" y1="205.256"/>
<line y2="218.55" x1="143" x2="143.206" y1="229.606"/>
<line y2="218.55" x1="243.249" x2="243.454" y1="229.606"/>
<line y2="229.606" x1="251.529" x2="251.736" y1="218.55"/>
<polyline points="252.21 229.606 269.605 229.606 269.605 218.55 252.061 218.55"/>
<line y2="229.606" x1="151.961" x2="242.775" y1="229.606"/>
<polyline points="246.017 260.554 246.017 269.399 248.965 269.399 248.965 260.554 246.017 260.554"/>
<polyline points="145.771 260.554 145.771 269.399 148.717 269.399 148.717 260.554 145.771 260.554"/>
<polyline points="145.771 293.725 145.771 302.57 148.717 302.57 148.717 293.725 145.771 293.725"/>
<polyline points="246.017 293.725 246.017 302.57 248.965 302.57 248.965 293.725 246.017 293.725"/>
<path d="m259.719 185.787c-12.463 0.49-24.926 0.869-37.395 1.141-12.464 0.271-24.933 0.218-37.396 0.163-12.461-0.054-24.919-0.433-37.373-0.811-4.179-0.127-8.357-0.328-12.535-0.492"/>
<path d="m269.63 198.79c-12.101 0.603-24.206 1.204-36.319 1.478-12.236 0.277-24.473 0.537-36.711 0.483-12.337-0.055-24.674-0.148-37.006-0.54-11.503-0.365-22.996-0.85-34.491-1.421"/>
<line y2="205.803" x1="154.447" x2="154.447" y1="204.544"/>
<line y2="205.803" x1="240.289" x2="240.289" y1="204.544"/>
<line y2="205.265" x1="254.694" x2="254.694" y1="204.544"/>
<line y2="204.544" x1="140.041" x2="140.041" y1="205.265"/>
</g></svg>
