<!DOCTYPE svg  PUBLIC '-//W3C//DTD SVG 1.1 Basic//EN'  'http://www.w3.org/Graphics/SVG/1.1/DTD/svg11-basic.dtd'>
<svg xmlns="http://www.w3.org/2000/svg" width="362.127px" xml:space="preserve" height="221.901px" viewBox="112.976 311.594 362.127 221.901" baseProfile="basic" version="1.1" y="0px" x="0px" xmlns:xlink="http://www.w3.org/1999/xlink">
<path d="m113.274 533.003c11.435-5.72 23.312-10.342 34.572-16.479 11.587-6.316 22.687-13.395 33.57-20.847 4.858-3.327 9.85-6.273 15.24-8.662 6.273-2.78 12.34-6.055 18.641-8.748 12.284-5.252 24.24-10.778 35.994-17.168 11.268-6.125 22.071-13.712 34.172-18.097 11.939-4.325 23.623-7.948 34.508-14.716 5-3.108 10.127-6.459 14.262-10.688 4.309-4.405 7.72-7.978 13.19-11.037 11.237-6.286 21.713-13.763 32.758-20.371 3.552-2.125 7.119-4.225 10.659-6.369 3.25-1.973 6.606-4.878 10.673-4.062 1.542 0.309 5.981 4.11 6.312 0.158 3.461-0.207 5.167 2.463 8.198 3.401 4.271 1.324 8.38-1.367 11.981-3.354 4.281-2.359 6.095-6.447 9.727-9.399l35.509-2.607c1.18-2.486 1.312-3.82 1.312-6.594l-1.964-1.191-11.265 0.83c9.279-1.292 7.744-11.141 7.744-18.057v-14.463-6.433c0-1.314 0.546-4.132-0.231-5.226-1.899-1.001-3.011-0.448-5.015-0.52l-0.392 0.436c-1.883 0-3.451 0.494-5.182 1.187-1.491 1.392-1.346 3.123-1.346 5.062-1.875 4.5-5.65 6.617-10.013 8.123-1.597-0.953-4.07-2.375-5.614-0.539l-0.248 2.541c-10.464 5.184-21.327 7.979-32.981 8.539v-0.644c-3.168-1.352-8.973 0.608-9.02 4.511-23.555 12.527-48.051 23.526-72.996 32.981-12.34 4.677-24.831 8.935-36.765 14.612-11.467 5.455-22.43 12.122-32.811 19.426-9.909 6.974-21.223 10.728-32.146 15.81-11.277 5.247-24.613 6.164-36.624 9.114-12.518 3.075-24.414 8.256-36.935 11.22-12.571 2.976-25.021 5.286-37.314 9.407" fill="#fff"/><g fill="#EAEAEA">
<path stroke="#000" stroke-width=".8" d="m441.055 327.458c3.766-6.195 9.625 4.333 11.508 7.377l-3.842 1.172c-1.179-3.998-3.704-5.867-7.691-6.895l0.025-1.654c0.303-0.498 0 0 0 0z"/>
<path d="m427.92 376.346c-1.021-2.253-2.78-4.967-2.094-7.578 0.628-2.351 2.297-3.864 3.935-5.629 1.95-2.102-2.139-4.164-2.265-5.532-0.069-0.768 2.426-3.349 2.951-3.865 1.775-1.742 3.55-3.486 5.325-5.229 3.373-3.313 7.74-5.499 11.902-7.608 4.169-2.112 8.809-3.515 12.465-6.443 3.477-2.786 6.298-5.644 8.421-9.575 1.088 2.169 0.604 4.902 0.594 7.275-0.014 3.514-0.028 7.027-0.043 10.541-0.024 5.949 0.096 10.056-4.983 13.666 2.83 0.381 5.592 0.037 8.429-0.191 0.436-0.033 1.991 0.979 2.005 1.49 0.034 1.191 0.401 6.334-1.727 6.479-6.373 0.442-12.746 0.88-19.119 1.319-3.179 0.22-6.358 0.439-9.538 0.659-0.894 0.062-5.845-0.271-6.449 0.451-1.292 1.541-2.585 3.082-3.877 4.622"/><g stroke="#000">
<path stroke-width=".8" d="m464.423 312.042c1.312-0.044 4.568-0.398 4.677 1.744 0.038 0.754 0.076 1.51 0.114 2.266l-0.144-0.172c-0.119 3.117-0.078 6.209-0.579 9.283-2.822 4.971-6.927 9.044-11.96 11.765-5.151 2.786-10.622 4.422-15.57 7.711-10.792 7.174-20.246 18.267-13.193 31.502-0.573 0.271-2.594 1.747-3.208 1.213-0.364-0.317-0.688-0.589-1.104-0.829l0.124-0.134c-4.136-5.692-3.021-14.981 0.431-20.7 3.984-6.602 9.752-11.954 16.354-15.891 6.563-3.912 14.732-4.449 20.777-9.21 2.637-2.078 4.914-4.729 6.307-7.802 0.997-2.189 1.753-7.05 0.135-9.096-1.515-0.828-2.502-0.949-4.152-0.949l0.991-0.701c0.728-0.024 0 0 0 0z"/>
<path stroke-width=".5" d="m406.589 375.053c1.748 1.314 4.799 1.975 6.894 3.053 3.711 1.907 6.674 1.954 10.451-0.051 0.974-0.517 0.191-1.146-0.478-1.531-5.84 4.434-11.351-3.106-17.264-1.933l0.397 0.462c0.248 0.187 0 0 0 0z"/>
<path stroke-width=".8" d="m421.205 369.218c0.163 1.025 0.374 2.017 0.619 3.023-2.093 1.466-4.601 2.325-7.174 2.096-3.253-0.29-5.811-2.797-9.134-1.094 0.349 1.18 1.201 2.151 2.311 2.676l-0.146 0.656c-0.332 0.358-0.74 1.086-1.248 1.103-0.928 0.028-1.221 0.067-1.979-0.45-2.022-2.688-4.084-6.305-4.987-9.562-1.149-4.147-0.252-9.254-0.282-13.531-0.03-4.272-0.845-9.219 0.018-13.401 0.734-3.561 5.536-4.452 8.561-4.064 0.748 1.467-0.213 2.48-0.942 3.724-0.603 1.028-1.911 1.841-2.717 2.739-0.793 1.369-0.565 2.795-0.565 4.334 0 7.682-1.799 15.827 0.08 23.293l0.596 0.533c2.964-0.79 5.382-0.094 8.31 0.371 3.099 0.491 6.187-0.644 8.679-2.446"/></g></g><g stroke="#000" fill="none"><g stroke-width=".5">
<path d="m399.011 343.787c-2.316 2.315-3.263 3.463-6.409 4.258-2.756 0.697-4.958 1.988-7.883 2.129-2.626 1.669-5.271 3.305-7.833 5.071-4.284 2.954-9.521 3.518-14.284 5.338-6.126 2.341-11.92 5.868-17.834 8.695-5.584 2.669-11.135 5.418-16.586 8.352-5.554 2.989-10.753 6.907-16.803 8.883-4.961 1.619-10.474 2.507-15.559 3.876-3.07 0.826-6.141 1.653-9.211 2.48-2.817 0.761-5.524 3.273-8.176 4.537-4.879 2.326-10.186 4.334-14.475 7.691-4.554 3.561-8.595 8.353-13.964 10.793-2.73 1.24-5.152 2.528-8.128 2.971-2.739 0.406-4.867 1.473-7.328 2.742-2.598 1.341-4.938 3.065-7.363 4.685-1.311 0.875-2.631 1.735-3.967 2.57-1.868 1.167-3.838 1.103-6.003 1.318-3.112 0.309-6.463 0.36-9.49 1.044-3.019 0.681-6.059 1.565-9.153 1.802-3.18 0.243-5.389 0.489-8.328 1.778-2.967 1.301-5.924 2.044-9.059 2.881-5.52 1.481-10.605 4.119-16.121 5.678-6.663 1.884-13.477 3.185-20.243 4.642-2.218 0.478-4.699 0.509-6.733 1.407-2.839 1.254-5.738 2.378-8.702 3.304-2.967 0.926-6.001 1.652-9.081 2.087-1.951 0.274-5.395-0.281-6.986 0.896"/>
<path d="m113.14 530.437c7.728-4.4 15.406-8.619 23.432-12.443 1.526-0.727 3.047-1.465 4.588-2.16 2.09-0.946 4.327-1.104 6.306-2.212 4.563-2.554 9.02-5.188 13.402-8.043 15.312-9.977 30.738-19.439 47.288-27.191 7.857-3.68 16.188-6.576 24.153-10.058 1.762-0.77 3.663-1.768 5.595-2.002 2.545-0.309 4.772-2.029 6.984-3.307 4.624-2.669 9.192-5.433 13.707-8.283 3.514-2.217 7.436-4.273 10.535-7.064 0.857-2.42-1.628-2.137-3.56-1.535-8.334 2.599-15.948 7.072-24.553 8.814v-0.252l-0.377-0.375c2.82-2.835 6.518-3.836 10.196-4.911 3.835-1.121 7.048-3.35 10.545-5.187 2.493-1.309 5.484-0.282 7.737-1.554 1.59-0.896 3.439-2.425 5.191-2.929 8.708 0 16.298-0.504 24.413-3.92 8.364-3.521 16.219-7.838 24.246-12.052 3.74-1.963 6.939-4.309 10.285-6.882 2.456-3.362 4.876-6.374 7.971-9.197 2.524-2.304 5.492-4.485 8.73-5.598 4.093-1.408 7.1-3.09 10.573-5.648 6.777-4.975 14.718-8.018 21.806-12.469 5.83-3.662 12.693-10.781 19.935-10.339"/>
<path d="m404.398 346.218c0.365-1.501 1.925-2.559 2.983-3.573 1.223-1.175 1.518-2.997 3.024-3.869 1.059 1.429 1.744 2.341 3.242 3.277 1.276 0.799 2.799 0.839 4.042 1.685l-0.098 0.391c-2.976 3.056-9.37 2.07-13.193 2.089l1.36 2.074-0.144 0.57c-0.627 0.624-1.369 1.115-2.077 1.646"/>
<path d="m280.255 423.798c-2.288-1.831-3.19-2.329-3.19-5.317 2.643-2.641 6.517-3.383 9.915-4.901 5.323-2.379 10.639-4.807 15.893-7.336 10.647-5.129 21.264-11.211 32.388-15.223 10.666-3.848 20.593-8.737 30.832-13.613 6.706-3.193 13.717-8.964 21.323-7.059-1.137 3.025-2.615 3.433-5.749 4.497-6.211 2.109-11.748 4.912-17.544 7.97-12.271 6.473-24.925 12.467-36.809 19.629-5.242 3.16-10.354 6.267-15.268 9.922-4.978 3.704-10.364 8.087-16.118 10.504-4.678 1.966-10.659 0.926-15.673 0.926"/>
<line y2="370.856" x1="425.729" x2="425.631" y1="369.916"/>
<path d="m427.595 357.903l0.301-0.012c1.121 1.834 2.337 2.547 2.041 4.962-1.608 2.674-3.869 3.769-4.208 7.062"/>
<line y2="341.52" x1="399.029" x2="399.029" y1="343.775"/>
</g><path stroke-width=".8" d="m437.735 366.567c-1.464-2.55-1.463-5.28 0-7.831l23.593-1.732"/><g stroke-width=".5">
<path d="m238.25 433.07c-1.157 1.09-2.162 2.055-3.02 3.395l0.126 0.504 0.913 0.23c6.611-4.876 15.321-7.454 14.557-17.084l-1.007-0.375c-5.475 1.555-8.29 9.283-11.569 13.33"/>
<path d="m240.224 437.916c2.467-2.684 7.036-4 10.194-5.77 3.105-1.739 9.095-4.417 12.174-1.404l0.171 1.367c-1.591 3.165-6.806 3.793-9.348 6.103-3.246 2.947-5.067 6.106-9.437 7.558-3.771-0.408-5.9-4.749-3.754-7.854"/>
<path d="m113.661 493.935c8.808-5.529 17.701-10.738 26.75-15.856 4.368-2.471 10.918-2.875 15.819-3.997 5.222-1.198 10.264-2.021 15.276-3.941 10.396-3.985 20.34-9.425 30.307-14.369 7.188-3.566 14.477-9.447 22.511-10.113l2.443 1.746 0.699 4.193-2.096 3.494c-4.03 2.017-7.938 4.045-12.227 5.474-4.339 1.445-9.443 2.447-13.345 4.866-8.207 5.086-16.534 11.279-25.645 14.65-19.563 7.238-39.646 13.317-59.426 19.947"/>
<path d="m114.728 500.027c-0.588 0.165-1.123 0.456-1.588 0.861"/>
<path d="m416.604 336.919c-0.191 0.557-0.539 0.985-1.043 1.285-1.717 0.401-3.518-0.115-5.155 0.57"/>
<path d="m424.613 377.503c-0.368-0.355-0.706-0.721-1.031-1.114"/>
</g><path stroke-width="1.1" d="m113.274 533.003c11.435-5.72 23.312-10.342 34.572-16.479 11.587-6.316 22.687-13.395 33.57-20.847 4.858-3.327 9.85-6.273 15.24-8.662 6.273-2.78 12.34-6.055 18.641-8.748 12.284-5.252 24.24-10.778 35.994-17.168 11.268-6.125 22.071-13.712 34.172-18.097 11.939-4.325 23.623-7.948 34.508-14.716 5-3.108 10.127-6.459 14.262-10.688 4.309-4.405 7.72-7.978 13.19-11.037 11.237-6.286 21.713-13.763 32.758-20.371 3.552-2.125 7.119-4.225 10.659-6.369 3.25-1.973 6.606-4.878 10.673-4.062 1.542 0.309 5.981 4.11 6.312 0.158 3.461-0.207 5.167 2.463 8.198 3.401 4.271 1.324 8.38-1.367 11.981-3.354 4.281-2.359 6.095-6.447 9.727-9.399l35.509-2.607c1.18-2.486 1.312-3.82 1.312-6.594l-1.964-1.191-11.265 0.83c9.279-1.292 7.744-11.141 7.744-18.057v-14.463-6.433c0-1.314 0.546-4.132-0.231-5.226-1.899-1.001-3.011-0.448-5.015-0.52l-0.392 0.436c-1.883 0-3.451 0.494-5.182 1.187-1.491 1.392-1.346 3.123-1.346 5.062-1.875 4.5-5.65 6.617-10.013 8.123-1.597-0.953-4.07-2.375-5.614-0.539l-0.248 2.541c-10.464 5.184-21.327 7.979-32.981 8.539v-0.644c-3.168-1.352-8.973 0.608-9.02 4.511-23.555 12.527-48.051 23.526-72.996 32.981-12.34 4.677-24.831 8.935-36.765 14.612-11.467 5.455-22.43 12.122-32.811 19.426-9.909 6.974-21.223 10.728-32.146 15.81-11.277 5.247-24.613 6.164-36.624 9.114-12.518 3.075-24.414 8.256-36.935 11.22-12.571 2.976-25.021 5.286-37.314 9.407"/>
</g></svg>
