<!DOCTYPE svg  PUBLIC '-//W3C//DTD SVG 1.1 Basic//EN'  'http://www.w3.org/Graphics/SVG/1.1/DTD/svg11-basic.dtd'>
<svg xmlns="http://www.w3.org/2000/svg" width="400px" xml:space="preserve" height="124.137px" viewBox="125.5 385.891 400 124.137" baseProfile="basic" version="1.1" y="0px" x="0px" xmlns:xlink="http://www.w3.org/1999/xlink">
<g fill="#E13300">
	<path d="m359.982 413.477v34.482h41.379v-34.482h-41.379zm34.485 27.584h-27.589v-20.687h27.589v20.687z"/>
	<polyline points="125.5 489.338 125.5 496.235 270.328 496.235 270.328 468.649 297.914 468.649 297.914 496.235 304.81 496.235 304.81 461.751 263.431 461.751 263.431 489.338"/>
	<polyline points="504.811 489.338 504.811 496.235 511.706 496.235 511.706 489.338"/>
	<polyline points="346.189 399.683 346.189 406.581 353.085 406.581 353.085 399.683"/>
	<path d="m408.258 420.375"/>
	<polyline points="401.361 496.235 401.361 461.751 394.467 461.751 394.467 489.338 383.489 489.338 366.878 472.728 366.878 461.751 359.982 461.751 359.982 475.544 359.982 475.544 359.982 475.544 380.672 496.235 380.672 496.235"/>
	<path d="m353.085 413.477h-6.896v34.827l-13.444 13.447h-21.036v34.483h41.377v-34.483h-10.588l10.588-10.586m-6.895 38.173h-27.585v-20.689h27.585v20.689z"/>
	<polygon points="525.5 468.649 525.5 461.751 488.16 461.751 488.157 461.747 488.153 461.751 488.144 461.751 488.144 461.761 463.43 486.473 463.43 420.375 491.017 420.375 491.017 447.959 497.915 447.959 497.915 413.477 456.536 413.477 456.536 496.235 463.43 496.235 463.43 496.226 479.334 480.323 491.017 492.007 491.017 510.028 497.915 510.028 497.915 489.179 497.909 489.179 497.909 489.179 484.212 475.446 491.008 468.649"/>
	<path d="m415.154 413.477v-27.586h-6.896v82.758h13.834l-13.834 13.792v13.794h41.379v-34.483h-34.483v-41.377h21.594l5.996 5.99v21.595h6.895v-24.438l0.009-0.007-0.009-0.008v-0.006h-0.01l-10.016-10.02v-0.008h-24.46m27.588 55.176v20.689h-27.588v-3.998l16.692-16.691h10.896z"/>
</g>
</svg>
