<!DOCTYPE svg  PUBLIC '-//W3C//DTD SVG 1.1 Basic//EN'  'http://www.w3.org/Graphics/SVG/1.1/DTD/svg11-basic.dtd'>
<svg xmlns="http://www.w3.org/2000/svg" width="258.417px" xml:space="preserve" height="294.754px" viewBox="-137.049 688.984 258.417 294.754" baseProfile="basic" version="1.1" y="0px" x="0px" xmlns:xlink="http://www.w3.org/1999/xlink">
<path d="m-136.969 840.335c19.76 2.648 38.849 6.975 58.848 8.13 9.819 0.567 19.649 0.808 29.484 0.71 1.783-0.018 3.567-0.045 5.35-0.082 3.613-0.076 3.752 1.208 5.883 3.937 3.154 4.038 6.151 8.2 8.934 12.504 4.919 7.61 8.604 15.875 13.284 23.611 4.69 7.752 8.919 15.286 12.421 23.668 1.341 3.211 2.827 6.384 3.714 9.761 0.94 3.582 3.666 5.799 5.484 8.87 3.907 6.594 9.493 12.055 15.257 17.014 1.653 1.42 0.645 3.376-0.44 4.556-2.134 2.319-3.684 3.269-4.7 6.616-0.75 2.47-0.578 4.425-2.396 6.399-1.54 1.673-3.704 6.725-3.3 9.064 0.329 1.92 2.146 4.59 3.021 6.3 2.386 4.662 8.7-1.291 11.368-3.072 6.888-4.598 14.125-10.12 19.067-16.859 5.153-7.027 2.034-13.792-0.43-21.135-2.986-8.897-4.366-18.231-4.617-27.596-0.165-6.142 11.558-8.932 16.624-7.516 4.479 1.252 7.704 5.388 10.873 8.531 3.755 3.724 7.719 7.251 11.589 10.854 1.809-1.97 3.62-3.938 5.43-5.906-15.275-14.049-27.033-27.44-30.587-48.586 1.391 2.771 3.832 1.973 6.277 2.963 3.34 1.352 6.774 2.45 10.209 3.53 2.549 0.802 4.133 2.242 6.247 3.098 0.405 0.164 3.079 1.424 3.256 0.14 2.211 0.973 4.383 2.034 6.502 3.193 3.529 1.932 6.908 4.14 10.059 6.642 2.016 1.601 4.131 5.286 5.833 6.181 2.972 1.562 3.89 3.228 4.955 6.474 0.883 2.693 4.296 8.788 7.883 5.45-0.454 1.792 2.186 2.485 2.82 0.764 0.901-2.445 1.389-5.222 1.893-7.768 1.552-7.837 1.956-15.844 1.418-23.809-0.422-6.25-0.993-13.163-5.311-18.094-4.27-4.876-10.858-6.795-16.347-9.887-6.738-3.795-22.772-13.038-21.291-22.596 1.109-7.154 9.578-7.087 15.152-7.412 7.761-0.453 15.514-1.164 23.266-1.761-0.263-3.394 0.853-5.466-2.976-5.76-3.389-0.261-6.767-0.656-10.126-1.172-7.562-1.161-15.023-2.934-22.339-5.163-3.084-0.939-6.141-1.966-9.175-3.056-1.912-0.687-8.609-2.083-9.509-3.941-3.067-6.337-9.235 0.286-7.074 5.341-5.299-1.088-8.076 1.8-12.433 4.063-2.027 1.053-4.173 1.844-6.312 2.631-1.858 0.685-2.217-1.929-3.664 0.085-2.031 2.828-9.175 2.715-12.918 2.868-6.003 0.244-11.88-0.601-17.706-1.999-5.199-1.249-10.397-2.5-15.596-3.75-3.977-0.957-7.295-8.24-9.499-11.506-6.205-9.189-11.923-18.689-16.899-28.602-9.435-18.795-22.003-34.936-39.799-46.507-8.807-5.727-18.425-9.514-27.928-13.871-9.914-4.546-19.011-10.629-27.515-17.426-0.151 15.105-0.302 30.211-0.453 45.317-0.072 7.218-0.145 14.437-0.217 21.655-0.035 3.548 5.137 4.152 7.835 6.15 7.955 5.891 15.516 12.543 22.805 19.229-10.028-1.485-20.225-1.079-30.275-0.047" fill="#fff"/>
<line y2="979.739" x1="16.996" x2="15.237" stroke="#000" y1="979.941" stroke-width=".6" fill="none"/><g fill="#EAEAEA"><g stroke="#000">
<path stroke-width=".8" d="m27.818 972.521c-3.531 2.966-9.441 8.883-14.315 6.62-0.153 7.041 6.048 2.651 8.932 0.898 5.604-3.411 10.796-7.64 15.669-12.016 4.155-3.732 9.062-8.265 9.009-14.358-0.055-6.673-3.888-12.009-4.949-18.479-1.079-6.579-2.125-12.869-2.599-19.53-0.139-1.959-1.399-5.606 0.826-6.801 2.469-1.325 5.218-2.305 7.768-3.48 5.287-2.44 10.582 0.926 14.243 4.342 5.314 4.961 10.629 9.922 15.944 14.882 0.776-0.884 5.373-4.799 5.241-5.963-0.171-1.517-5.125-4.626-6.239-5.644-5.799-5.296-10.58-10.761-14.729-17.405-4.468-7.154-7.161-14.567-8.919-22.819-0.742-3.483-2.143-3.871-5.263-5.22-3.006-1.299-6.031 8.071-7.149 10.851-6.698 16.646-7.65 34.354-4.458 51.84 1.288 7.059 6.665 14.726 5.646 21.955-1.051 7.456-7.436 13.143-12.411 18.242"/>
<path stroke-width=".8" d="m31.448 967.938c-7.706 0.424-12.618-6.511-11.311-13.724-4.743 1.733-1.365 9.955 0.639 12.733 1.41 1.955 3.301 3.518 5.43 4.635 2.895 1.519 4.67-1.89 6.746-3.837"/>
<path stroke-width=".6" d="m38.662 953.761c-7.293-1.517-14.602-3.167-20.19-8.192-4.865-4.374-10.024-9.695-12.784-15.719 6.937 7.332 15.514 13.471 25.215 16.488 2.279 0.709 4.602 1.273 6.943 1.732 3.795 0.745 5.271 0.106 4.609 4.467-0.466 3.069-3.824 1.217-6.27 0.709 0.826 0.171 1.651 0.343 2.477 0.515-5.663-1.178 0 0 0 0z"/>
<path stroke-width=".8" d="m35.235 904.944c-6.433 1.066-13.02-0.872-17.862-5.236-4.86 9.405-9.088 19.138-12.646 29.108-10.235-10.921 3.837-23.474 6.079-34.665 1.47-7.339 2.481-14.97 4.543-22.166 0.912-3.182 2.292-6.208 3.801-9.145 0.757-1.46 1.532-2.91 2.326-4.351 1.978 0.528 3.956 1.057 5.929 1.602-5.249 8.904-8.731 18.853-9.907 29.134-0.54 4.729-1.331 6.076 3.323 7.673 4.895 1.679 10.184 1.945 15.248 0.921-0.394 2.427-0.685 4.869-0.875 7.32"/>
</g><path d="m61.984 798.48c3.646 11.706 7.919 23.615 16.194 32.926-0.798-7.615 1.713-11.625 10.028-12.214 9.267-0.661 18.537-1.29 27.802-1.98-0.412-5.296 0.281-5.545-4.57-6.06-5.348-0.607-10.534-1.185-15.817-2.267-11.652-2.386-22.522-6.236-33.637-10.405 3.668 11.777 0 0 0 0z"/><g stroke="#000" stroke-width=".8">
<path d="m80.458 834.491c4.567 4.176 8.931 8.522 14.127 11.944 5.696 3.751 12.686 5.744 17.983 10.03 10.385 8.402 8.553 25.896 7.523 37.665-0.207 2.362-1.051 14.749-3.961 15.254-2.747 0.477 0.938-11.217 1.17-13.455 1.212-11.636 0.543-32.247-11.426-38.62-5.597-2.98-11.509-4.708-16.813-8.359-5.833-4.019-10.798-9.174-15.005-14.85-4.155-5.605-7.742-11.679-10.527-18.079-2.083-4.791-3.394-10.361-8.723-12.562-2.625-4.122 2.526-10.848 6.602-6.486 2.535 6.65 4.31 13.432 7.318 19.921 3.04 6.557 7.63 11.746 11.732 17.597 2.665 2.437 0 0 0 0z"/>
<path d="m117.21 881.637c-4.878 0.303-13.745 10.079-14.293 14.666-6.911-2.369 2.73-9.315 1.336-10.021 3.93-2.925 6.711-6.729 11.502-9.083 1.469 0.68 1.23 3.045 1.455 4.438z"/>
<path d="m74.408 834.598c-14.798 7.8-21.807 21.192-17.003 37.598-5.85-0.039-5.659-7.272-6.399-11.734-0.549-3.313-1.125-6.461-0.942-9.835 0.135-2.483 0.632-6.52-0.719-8.786-3.648-6.121-7.661-12.129-11.621-18.055-1.859-2.784-3.711-5.587-5.198-8.593-0.088-0.899-1.082-6.841 1.391-5.628 4.803 2.355 6.941 9.529 9.26 14.018 3.103 6.008 6.703 11.438 10.405 17.056 3.89-0.141 10.628-6.947 13.812-9.481 3.767-3 5.062 0.692 7.014 3.44-2.004 1.054-0.015 0.074 0 0-1.795 0.946 0 0 0 0z"/></g></g><g stroke="#000" fill="none">
<path stroke-width="1.2" d="m-136.969 840.335c19.76 2.648 38.849 6.975 58.848 8.13 9.819 0.567 19.649 0.808 29.484 0.71 1.783-0.018 3.567-0.045 5.35-0.082 3.613-0.076 3.752 1.208 5.883 3.937 3.154 4.038 6.151 8.2 8.934 12.504 4.919 7.61 8.604 15.875 13.284 23.611 4.69 7.752 8.919 15.286 12.421 23.668 1.341 3.211 2.827 6.384 3.714 9.761 0.94 3.582 3.666 5.799 5.484 8.87 3.907 6.594 9.493 12.055 15.257 17.014 1.653 1.42 0.645 3.376-0.44 4.556-2.134 2.319-3.684 3.269-4.7 6.616-0.75 2.47-0.578 4.425-2.396 6.399-1.54 1.673-3.704 6.725-3.3 9.064 0.329 1.92 2.146 4.59 3.021 6.3 2.386 4.662 8.7-1.291 11.368-3.072 6.888-4.598 14.125-10.12 19.067-16.859 5.153-7.027 2.034-13.792-0.43-21.135-2.986-8.897-4.366-18.231-4.617-27.596-0.165-6.142 11.558-8.932 16.624-7.516 4.479 1.252 7.704 5.388 10.873 8.531 3.755 3.724 7.719 7.251 11.589 10.854 1.809-1.97 3.62-3.938 5.43-5.906-15.275-14.049-27.033-27.44-30.587-48.586 1.391 2.771 3.832 1.973 6.277 2.963 3.34 1.352 6.774 2.45 10.209 3.53 2.549 0.802 4.133 2.242 6.247 3.098 0.405 0.164 3.079 1.424 3.256 0.14 2.211 0.973 4.383 2.034 6.502 3.193 3.529 1.932 6.908 4.14 10.059 6.642 2.016 1.601 4.131 5.286 5.833 6.181 2.972 1.562 3.89 3.228 4.955 6.474 0.883 2.693 4.296 8.788 7.883 5.45-0.454 1.792 2.186 2.485 2.82 0.764 0.901-2.445 1.389-5.222 1.893-7.768 1.552-7.837 1.956-15.844 1.418-23.809-0.422-6.25-0.993-13.163-5.311-18.094-4.27-4.876-10.858-6.795-16.347-9.887-6.738-3.795-22.772-13.038-21.291-22.596 1.109-7.154 9.578-7.087 15.152-7.412 7.761-0.453 15.514-1.164 23.266-1.761-0.263-3.394 0.853-5.466-2.976-5.76-3.389-0.261-6.767-0.656-10.126-1.172-7.562-1.161-15.023-2.934-22.339-5.163-3.084-0.939-6.141-1.966-9.175-3.056-1.912-0.687-8.609-2.083-9.509-3.941-3.067-6.337-9.235 0.286-7.074 5.341-5.299-1.088-8.076 1.8-12.433 4.063-2.027 1.053-4.173 1.844-6.312 2.631-1.858 0.685-2.217-1.929-3.664 0.085-2.031 2.828-9.175 2.715-12.918 2.868-6.003 0.244-11.88-0.601-17.706-1.999-5.199-1.249-10.397-2.5-15.596-3.75-3.977-0.957-7.295-8.24-9.499-11.506-6.205-9.189-11.923-18.689-16.899-28.602-9.435-18.795-22.003-34.936-39.799-46.507-8.807-5.727-18.425-9.514-27.928-13.871-9.914-4.546-19.011-10.629-27.515-17.426"/>
<path stroke-width="1.2" d="m-136.826 757.913c11.613 3.605 22.612 15.885 31.336 23.887-10.028-1.486-20.225-1.079-30.275-0.047"/><g stroke-width=".6">
<path d="m31.221 898.499c1.86-7.218 4.33-14.271 7.549-20.997 3.929-8.201-12.071-7.25-16.535-6.539"/>
<path d="m-135.217 726.224c4.64 4.622 9.467 9.153 13.137 14.621 3.688 5.498 5.863 12.048 10.657 16.771 10.17 10.028 21.449 19.129 32.028 28.741-8.456-2.631-17.249-4.166-26.095-4.558"/>
<path d="m14.905 872.136c-6.021 0.959-12.076 1.712-18.06 2.894-6.377 1.26-10.665 3.223-16.135 6.625"/>
<path d="m-40.612 849.029c20.741-0.999 41.719 4.051 61.63 9.341"/>
<path d="m27.218 904.948c3.693 4.733 5.494 9.082 5.652 15.36 0.116 4.73 0.353 8.813 1.086 13.498 0.813 5.193 4.514 9.729 4.978 14.534"/>
</g><path stroke-width=".8" d="m27.404 860.092c8.141 2.248 16.285 4.809 23.722 8.882-6.903 12.83-10.792 26.073-11.913 40.616"/><g stroke-width=".6">
<path d="m71.749 835.999c6.143 12.349 17.232 16.349 27.389 24.45"/>
<path d="m105.122 864.244c-0.223 4.605 7.319 10.658 10.749 13.015"/>
<path d="m74.911 876.056c-3.432-2.626-6.864-5.252-10.293-7.882-2.754-2.111-5.571-0.062-8.378-1.502"/>
<line y2="878.105" x1="75.052" x2="74.418" y1="876.165"/>
<path d="m79.176 879.835"/>
<path d="m79.49 877.88"/>
<path d="m-79.395 786.356c21.042 7.75 42.021 15.339 63.859 20.59"/>
<line y2="868.974" x1="53.203" x2="51.125" y1="870.198"/>
<path d="m51.537 863.108c-6.489-4.509-12.906-9.158-19.504-13.507-7.018-4.625-13.479-6.218-21.6-7.68-8.666-1.559-16.838-3.393-25.695-3.613-8.894-0.222-17.737 0.465-26.618 0.368-8.092-0.088-15.768-1.759-23.881-1.088-8.017 0.662-16.05 1.164-24.074 1.738-7.676 0.55-14.539-1.284-22.018-2.892-7.943-1.708-16.3-2.853-23.886-5.853"/>
<path d="m111.721 908.694c0.197-4.245-5.084-4.532-1.599-9.317 1.543-2.119 1.225-2.654-0.108-4.638-1.096-1.632-5.012 0.634-6.914 0.016"/>
<line y2="810.087" x1="33.299" x2="32.298" y1="809.354"/>
<path d="m104.254 886.282c-4.192-2.074-5.283-5.068-10.474-5.814-4.687-0.674-10.003-0.179-14.132-2.501"/>
</g></g><g stroke="#000"><path stroke-width=".8" d="m107.194 858.052c1.26 0.76 2.354 1.711 3.28 2.854-2.549 1.589-5.092 3.241-7.914 4.315-3.41 1.299-6.799 1.354-10.179 2.558-5.677 2.022-12.018 6.54-13.441 12.588-11.294-3.017 4.252-13.788 9.391-15.702 4.507-1.68 9.01-3.312 13.441-5.186 1.035-0.438 3.924-2.235 4.972-1.671 1.573 0.85 0.613 0.092 0.45 0.244 1.322 0.744 0 0 0 0z" fill="#EAEAEA"/>
<path stroke-width=".6" d="m41.207 950.354" fill="none"/>
<path stroke-width=".8" d="m35.191 905.141c-0.985 12.715 0.602 25.622 5.305 37.508 2.249 5.684 2.845 10.205-0.371 15.672-2.066 3.511-5.323 9.825-9.942 9.617 0.635-1.91 3.003-3.674 4.417-5.087 2.551-2.55 3.466-5.657 4.063-9.09 1.132 0.216 2.266 0.42 3.402 0.613" fill="none"/>
</g></svg>
