<!DOCTYPE svg  PUBLIC '-//W3C//DTD SVG 1.1 Basic//EN'  'http://www.w3.org/Graphics/SVG/1.1/DTD/svg11-basic.dtd'>
<svg xmlns="http://www.w3.org/2000/svg" width="474.6px" xml:space="preserve" height="435.186px" viewBox="-236.844 623.607 474.6 435.186" baseProfile="basic" version="1.1" y="0px" x="0px" xmlns:xlink="http://www.w3.org/1999/xlink">
<path d="m-53.321 777.951c-1.973-0.494-4.118-2.61-5.827-3.812-1.314 0.537-3.911 2.396-5.171 1.545-7.569-5.116-15.039-10.421-22.676-15.436-6.221-4.085-13.068-8.068-17.408-14.303h0.003c-4.854-0.184-10.693-0.679-15.238-2.505-3.533-1.424-5.489-6.014-1.608-8.388 1.668-1.02 3.649-0.193 4.785-2.105 1.273-2.146-1.599-3.754-3.317-3.81-3.038-0.09-6.56 0.271-9.368-0.438-3.766-0.94-6.857-3.426-4.444-7.7 2.312-4.1 6.529-2.58 9.813-4.401-1.844-2.388-1.176-4.35-0.311-6.933 0.483-1.443 1.208-1.727 2.488-2.623 1.884-1.318 1.331-0.1 3.061-0.474 2.75-0.598 0.196-6.322 3.744-7.771 0.879-0.454 1.778-0.868 2.696-1.239 1.877-0.625 2.782 2.041 4.668 0.957 2.298-1.319 5.478-6.161 8.511-2.981 2.067 2.162 9.634 7.243 9.491 10.827h-0.002c1.018 1.126 2.03 2.257 3.046 3.389 0.482 0.536 6.678-0.228 8.233 0.268 4.696 1.491 9.236 3.837 13.476 6.324 5.048 2.966 9.935 6.231 14.822 9.451 3.449 2.273 13.229 6.347 13.721 10.938h-0.003c3.395 1.111 6.417 2.23 9.457 4.104v-0.002c11.942 5.42 20.534 18.994 22.004 31.662 2.983-3.228 4.696-5.729 9.176-6.405 4.792-0.723 5.273-4.655 8.323-7.614 7.372-7.147 17.843-14.469 27.296-18.531 6.993-3.025 15.982-5.314 23.659-4.158 4.438 0.67 22.789 5.748 26.12 0.846 4.85-7.094 8.12-8.938 15.903-12.59 2.405-1.128 10.978-2.743 11.157-6.131 0.129-2.319-3.332-5.828-4.203-8.018-2.213-5.562-7.854-10.823-11.024-16.033-3.595-5.902-7.254-11.464-9.353-18.096-1.74-5.493-4.961-10.129-4.021-16.036 0.307-1.926-1.283-3.498-1.147-5.432 0.191-2.771 0.679-5.513 1.204-8.235 1.214-6.276 3.001-9.111 7.898-13.284 8.622-7.351 20.361-10.526 31.433-7.462 5.763 1.593 12.231 2.625 17.677 5.115 5.323 2.438 10.384 6.015 15.571 8.79 10.238 5.479 19.329 17.266 25.49 26.811 7.405 11.471 10.568 21.073 11.958 34.657 0.58 5.688 3.583 11.146 5.842 16.304 0.591 1.348 1.237 3.925 2.925 4.522 2.125 0.756 4.625-0.46 6.188 1.744 8.219 11.615 15.849 22.547 21.59 35.605 5.262 11.968-0.812 23.198-6.758 33.122-1.896 3.17-13.573 6.17-17.087 7.015-3.902 0.938-9.544 0.122-13.016 2.006v-0.003c-10.099 4.541-21.063 6.463-32.004 7.808l0.003 0.008c-2.669 4.121-7.029 5.549-11.304 7.73-3.664 1.872-11.477 7.934-15.754 6.552-9.486 5.067-20.577-4.391-31.102 0.245-6.554 2.889-11.84 4.924-19.23 4.036-1.055-0.129-12.199-2.52-12.765-0.039-1.068 4.824-1.555 8.048-4.818 11.722-0.054 0.061 4.146 5.78 4.24 6.964 0.456 5.65 1.853 12.516-0.819 17.62 6.771 2.441 10.487 6.789 15.812 11.441 1.781 1.56 6.559 4.266 7.202 6.762 0.896 3.471 1.065 7.353 3.138 10.406 4.018 5.932 13.37 9.354 15.472 16.789 1.904 6.755 5.368 14.494 3.81 21.501-3.707 16.663-10.688 30.461-20.479 44.438-10.743 15.334-21.095 31.063-32.545 45.886-9.888 12.797-21.072 23.896-35.628 31.178-7.781 3.893-13.959 6.448-22.812 6.076-3.423-0.145-6.836-0.487-10.261-0.583-4.274-0.117-8.809-3.792-12.689-5.383-14.38-5.896-28.301-12.86-42.508-18.804-8.27-3.461-15.429-6.346-22.128-12.398-4.234-3.829-13.303-8.752-12.488-15.531 0.785-6.534 1.743-11.512 4.33-17.537-5.508 1.264-11.101 2.309-16.364 4.418-5.231 2.102-11.611 6.127-17.246 6.66-4.196 0.396-8.74-2.379-12.79-0.433-3.925 1.88-10.277 4.996-14.819 4.177 0.457-0.151 0.993-0.242 1.488-0.256-7.896 2.501-20.575-0.108-27.361-4.797 0.448 0.269 0.897 0.535 1.349 0.803l1.444-0.478c-11.342-1.305-16.562-15.246-19.878-24.69-0.294-0.837-1.625 0.031-2.1-0.568-7.191-9.17-14.281-18.421-21.146-27.839-3.458-4.744-9.819-14.876-6.792-21.276-0.872-0.406-1.737-0.814-2.606-1.219-0.497-0.229-1.056 0.698-1.412 0.353-3.513-3.379-8.162-7.608-9.149-12.634 0.757 1.646 1.493 3.291 2.354 4.888-0.742-1.827-1.538-3.633-2.433-5.391l0.08 0.503c-0.323-1.668-1.421-3.104-1.826-4.831-0.722-3.062 2.364-5.088 2.681-7.91-0.015 0.607-0.021 1.218-0.031 1.827l0.049-2.833 0.256 1.445c-0.396-1.308-1.361-5.021-0.161-6.191 1.713-1.663 3.169-2.948 5.2-4.177-0.132-2.153 1.223-3.817 1.792-5.776 0.832-2.854-0.342-7.167-0.081-10.258 0.414-4.825 5.241-11.93 9.483-5.729 1.253 1.83 1.176 11.14 3.382 11.733 0.82 0.221 2.929 1.446 3.437 2.215 1.732 2.617-1.857 4.234-0.396 6.193 0.646 0.87 1.477 2.292 2.521 2.668 0.688 0.247 2.008-0.568 2.652-0.583 0.999-3.363 0.042-6.737 1.622-9.973 1.731-3.535 5.726-0.953 7.205 1.253 4.36 6.491 7.252 14.174 6.888 22.082 1.548-3.217 34.615 35.436 35.312 36.281 2.738-2.511 5.462-5.037 8.183-7.562-1.618-2.14-6.664-16.352-2.882-17.604 2.689-0.889 5.382-1.775 8.07-2.669-2.618-13.696 1.503-26.957 8.439-38.622 2.799-4.69 5.637-8.981 9.205-13.094 1.995-2.297 8.324-9.847 12.028-9.297-4.158-3.496-8.191-7.237-12.509-10.533-4.122-3.136-6.369-9.27-8.194-14.14-2.744-7.322 2.356-23.832 7.675-29.142 3.31-3.302 5.738-6.919 10.29-8.351 6.438-2.025 12.282-4.423 19.124-4.285 6.492 0.13 13.658-0.59 19.971 1.13 6.413 1.748 12.771 3.771 19.155 5.627 2.318-1.656 4.616-3.32 6.871-5.062-0.322-2.717-2.348-4.167-4.15-5.993 0.351 0.021 0.783 0.144 1.12 0.311" fill="#fff"/>
<g stroke="#000" fill="none">
	<path stroke-width=".7" d="m-57.772 872.887c0.397 5.407 4.384 11.037 5.845 16.356 0.243 0.886 4.198 2.077 5.108 2.503"/>
	<path stroke-width="1.1" d="m53.583 883.475c-15.375-1.116-28.896-3.464-43.824-7.44-3.055-0.814-3.833-0.996-6.688-0.26-3.179 0.818-7.667-1.056-10.852-1.554-8.234-1.288-15.612-0.152-23.802 0.362-28.276 1.785-55.62-12.916-79.762-25.886"/>
	<g stroke-width=".7">
		<path d="m215.76 797.606c-3.767-1.218-12.438-2.281-15.085-5.262-3.233-3.644-5.862-7.897-8.983-11.657-3.646-4.394-6.111-9.298-8.782-14.312-1.653-3.104-5.77-15.307-9.112-16.433-1.168-0.396-5.312-1.056-5.683-2.241-3.319-10.729-8.525-16.714-17.389-23.557-8.98-6.931-17.128-14.519-24.852-22.827-14.799-15.931-28.715-31.473-37.859-51.278"/>
		<line y2="912.395" x1="-109.116" x2="-111.742" y1="918.503"/>
		<line y2="746.034" x1="43.851" x2="33.122" y1="739.392"/>
		<path d="m-42.684 881.306c4.066 1.001 6.979 2.354 10.862 0.428 3.833-1.9 7.271-4.341 10.526-7.101"/>
		<line y2="879.148" x1="-42.449" x2="-40.387" y1="877.575"/>
		<line y2="894.118" x1="25.813" x2="25.901" y1="894.122"/>
		<path d="m7.716 822.01c2.562 9.646 4.168 18.367 4.999 28.279 0.265 3.153-2.39 7.664-3.344 10.609-1.808 5.58-4.948 9.988-7.76 15.063"/>
		<line y2="788.71" x1="170.69" x2="166.416" y1="793.55"/>
		<path d="m206.492 721.533c-3.997 6.702-7.812 12.951-13.182 18.628-5.583 5.901-17.667 6.621-25.082 7.911"/>
		<line y2="805.125" x1="143.152" x2="120.385" y1="817.784"/>
		<line y2="921.052" x1="-26.803" x2="-20.861" y1="927.512"/>
		<line y2="924.021" x1="-42.178" x2="-41.104" y1="924.567"/>
	</g>
	<path stroke-width="1.1" d="m-97.325 863.567c-0.479 6.854-0.959 13.71-1.438 20.563-0.454 6.463 4.936 12.361 7.895 17.669 3.041 5.453 4.995 7.883 10.04 11.332 3.117 2.13 12.056 10.904 16.111 10.099"/>
	<g stroke-width=".7">
		<line y2="921.835" x1="-37.115" x2="-29.672" y1="924.807"/>
		<path d="m-1.073 790.363c-2.16 7.291 0.601 13.076 2.773 20.15"/>
		<line y2="810.5" x1="-1.167" x2="3.462" y1="796.206"/>
		<line y2="750.935" x1="27.5" x2="25.201" y1="749.508"/>
		<line y2="794.938" x1="14.941" x2="17.294" y1="771.003"/>
	</g>
	<line y2="824.503" x1="29.657" x2="45.227" y1="815.821" stroke-width="1.1"/>
	<line y2="826.74" x1="52.591" x2="57.607" y1="826.737" stroke-width=".7"/>
	<path stroke-width="1.1" d="m22.07 820.562c-3.624-5.653-7.245-11.311-10.866-16.966-3.414-5.323-3.007-12.462-3.8-18.51-0.849-6.478-0.592-9.452 2.194-15.406 1.566-3.351 3.917-12.811 7.733-14.494"/>
	<g stroke-width=".7">
		<line y2="750.676" x1="24.757" x2="24.751" y1="750.67"/>
		<path d="m1.942 781.798c-2.148 5.349 0.48 11.123 1.559 16.382 1.229 5.967 1.958 10.033 5.652 14.845"/>
		<line y2="781.139" x1="9.098" x2="2.207" y1="763.991"/>
		<line y2="764.758" x1="9.458" x2="9.282" y1="764.312"/>
		<path d="m76.317 825.838c1.011 0.15 2.084 0.373 3.064 0.373"/>
		<path d="m39.259 809.001c6.84 4.927 14.5 12.871 22.941 14.153"/>
		<path d="m-196.926 897.927c-2.489-2.626-7.59-6.704-8.49-10.024"/>
		<line y2="901.607" x1="-224.305" x2="-224.765" y1="901.574"/>
		<path d="m-221.509 924.21c0.125 0.882 0.009 3.479 0.584 4.099 0.517 0.562 3.715 0.343 4.547 0.416"/>
		<line y2="902.588" x1="-190.972" x2="-190.697" y1="904.993"/>
		<line y2="914.488" x1="-200.934" x2="-200.612" y1="915.248"/>
		<line y2="927.736" x1="-215.885" x2="-214.136" y1="927.312"/>
		<path d="m-115.86 730.825c0.693-0.334 2.918-1.155 4.199-1.638-0.323 0.097-0.647 0.19-0.975 0.288 1.298-0.896 2.596-1.795 3.896-2.69"/>
		<path d="m-80.293 715.631c-0.078-1.506-0.151-3.009-0.229-4.515-0.059-1.126-2.448-1.464-3.416-1.84"/>
		<line y2="726.031" x1="-90.832" x2="-85.55" y1="729.303"/>
		<line y2="716.661" x1="-80.776" x2="-80.78" y1="716.698"/>
		<path d="m-120.381 999.225c1.987-1.217 10.589-4.582 11.163-7.021 1.112-4.755 2.228-9.517 3.341-14.271"/>
		<path d="m-154.19 939.039c2.102-1.505 5.455-5.232 8.096-5.102 4.428 0.22 8.855 0.438 13.285 0.655"/>
		<line y2="989.701" x1="-119.054" x2="-108.795" y1="996.079"/>
		<path d="m-131.68 934.477c-4.08-0.188-8.161-0.376-12.24-0.562-2.426-0.107-7.431 5.271-9.315 6.623"/>
		<line y2="955.096" x1="-147.218" x2="-147.979" y1="956.338"/>
		<line y2="966.443" x1="-147.396" x2="-148.284" y1="956.487"/>
	</g>
	<path stroke-width="1.1" d="m-144.958 956.498c7.883 8.775 9.381 15.13 6.628 26.553-1.181 4.898-4.246 8.859-6.989 12.965-1.449 2.168-8.584 6.776-11.229 5.974"/>
	<g stroke-width=".7">
		<path d="m-144.517 960.493c2.94 2.585 1.988 11.938 0.99 15.021-2.454 7.582-5.832 12.809-10.607 19.134"/>
		<path d="m-140.031 1000.959c2.396-1.369 6.975-2.777 8.133-5.357 2.162-4.812 4.047-8.032 4.258-13.448 0.294-7.602-1.316-12.511-3.983-19.647"/>
		<path d="m-33.21 770.179c-6.524 4.042-11.331 6.472-18.78 8.083"/>
		<path d="m-43.228 776.53c-2.062 0.44-8.144 2.959-9.739 1.387"/>
		<line y2="789.038" x1="-32.298" x2="-25.796" y1="790.915"/>
		<line y2="773.51" x1="-5.783" x2="-5.403" y1="768.128"/>
		<line y2="773.169" x1="-5.455" x2="-5.086" y1="767.809"/>
		<path d="m-8.924 759.76c0.167 1.91 1.035 4.818 0.579 6.659-1.356 5.491-8.622 11.236-13.135 13.979-7.308 4.438-14.29 4.907-22.619 4.971-1.314 0.008-4.229-3.309-5.312-4.172"/>
	</g>
	<path d="m-8.602 759.536c0.165 1.933 1.039 4.878 0.576 6.741-1.385 5.569-8.793 11.402-13.374 14.185-7.428 4.507-14.525 5.008-22.992 5.087-1.327 0.012-4.286-3.341-5.382-4.214"/>
	<g stroke-width=".7">
		<path d="m-13.439 752.021c0.229 2.158 0.459 4.317 0.687 6.478 0.521 4.924-8.981 12.096-12.206 14.81-6.388 5.382-14.552 6.604-22.519 7.188"/>
		<path d="m-17.717 767.429c-5.13 4.3-9.885 7.764-15.879 10.764-2.608 1.306-12.392 4.763-14.995 1.864"/>
		<line y2="793.744" x1="-32.282" x2="-28.735" y1="794.48"/>
		<line y2="789.396" x1="-54.385" x2="-54.49" y1="788.13"/>
		<path d="m-92.27 948.564c0.146 0.595 0.318 1.185 0.521 1.763"/>
	</g>
	<line y2="981.463" x1="-85.237" x2="-80.38" y1="970.111" stroke-width="1.1"/>
	<g stroke-width=".7">
		<path d="m16.806 925.416c2.138 6.458 2.577 9.659 1.506 16.514-1.016 6.484-1.888 12.995-2.848 19.488"/>
		<path d="m-114.183 904.655c1.345-3.19 2.688-6.22 4.366-9.245"/>
		<path d="m82.078 877.262c-2.546 8.59-4.555 17.015-9.134 24.767-5.698 9.644-11.266 19.218-17.917 28.245-13.799 18.726-26.917 37.869-41.315 56.146-12.388 15.723-26.943 28.12-44.313 37.942-18.557 10.49-38.573-3.039-56.314-10.104"/>
	</g>
	<path stroke-width="1.1" d="m79.716 865.425c0.701 3.075 3.266 8.783 2.362 11.837"/>
	<g stroke-width=".7">
		<line y2="870.073" x1="72.069" x2="75.304" y1="868.859"/>
		<path d="m-83.459 1009.658c-1.438-2-2.882-3.999-4.319-5.997-2.892-4.003 3.666-17.091 5.177-20.626"/>
		<line y2="968.622" x1="11.214" x2="15.535" y1="974.411"/>
		<line y2="924.159" x1="49.337" x2="47.502" y1="921.512"/>
		<path d="m-112.542 878.58c-0.698 2.43-3.553 12.058-1.188 13.734 0.921 0.654 8.812 4.074 8.828 4.427 0.521 11.291 1.967 22.448 7.263 32.625"/>
		<path d="m-108.686 882.612c0.582 0.086 4.757 0.527 4.724 0.812-0.246 2.107-0.49 4.214-0.733 6.323"/>
		<line y2="884.447" x1="-101.64" x2="-101.656" y1="885.979"/>
		<path d="m-100.04 909.319c-1.634-5.85-1.47-11.269-1.534-17.35"/>
		<line y2="883.486" x1="-103.948" x2="-104.209" y1="883.3"/>
		<path d="m-95.332 858.018c-0.569 0.94-1.018 1.938-1.492 2.928"/>
		<line y2="896.422" x1="-104.927" x2="-105.188" y1="896.257"/>
		<path d="m-146.139 929.23c-2.225-5.787-3.165-10.185-3.635-16.373 1.093 1.292 7.205-1.612 8.836-2.117"/>
		<path d="m-140.506 912.387c0.377 3.707 0.986 6.448 2.273 9.938"/>
		<line y2="912.857" x1="-140.993" x2="-149.776" y1="910.136"/>
		<path d="m-149.316 913.332c0.454 5.949 1.281 10.246 3.411 15.77"/>
		<line y2="929.688" x1="-145.095" x2="-146.497" y1="928.949"/>
		<path d="m-18.991 799.775c1.764-7.256 2.677-12.617 7.902-18.273 2.971-3.215 8.456-12.383 13.008-13.521-0.149 0.027-0.563 0.109-0.688 0.188"/>
	</g>
	<path stroke-width="1.1" d="m9.787 889.932c1.411 0.375 2.821 0.75 4.232 1.127-5.341-1.388-10.712-2.656-16.075-3.958-3.957-0.952-9.326-3.556-13.403-3.142-2.206 0.226-5.245 2.622-7.244 3.619-4.33 2.163-17.214-4.043-20.466-6.677 0.558 0.943 1.195 1.82 1.454 2.896"/>
	<path stroke-width=".7" d="m-25.929 876.663c0.641-0.514 1.197-1.132 1.776-1.726-6.473 0.647-12.973 0.907-19.471 1.093-5.671 0.16-11.064-2.399-16.479-3.705 0.59 5.972 3.794 10.787 5.354 16.482-3.623-5.781-6.745-9.856-6.813-16.836 0.452 0.109 1.055 0.128 1.459 0.354"/>
	<path stroke-width=".7" d="m-16.069 912.449c-2.194 0.104-4.638-2.76-6.292-3.874-3.668-2.463-7.507-4.66-11.262-6.986-7.323-4.549-10.851-14.161-15.137-21.5 1.113 2.993 3.667 5.897 2.745 8.97-1.416 4.723-3.664 3.517-7.497 1.729 3.312 5.289 5.699 10.792 11.15 14.05 5.57 3.329 11.143 6.66 16.715 9.99 5.32 3.176 9.893 2.381 16.111 2.223 5.171-0.131 11.642 0.783 16.646-0.598 0.521 2.858 1.627 5.685 1.502 8.637-0.188 4.433-3.712 9.774-5.422 13.824-2.104 4.981-4.209 9.968-6.316 14.95-1.429 3.391-5.544 5.119-8.191 7.367 4.954-4.08 9.058-6.981 11.766-12.843 3.238-7.007 6.479-14.012 9.719-21.018 0 0.179 0.001 0.355 0.001 0.536"/>
	<path stroke-width="1.1" d="m-4.77 906.417c5.583 0.775 11.166 1.552 16.748 2.327-7.535 4.968-19.268 3.275-28.047 3.705"/>
	<path stroke-width=".7" d="m-41.916 883.04c6.866 11.679 23.771 21.517 37.147 23.377"/>
	<g stroke-width="1.1">
		<path d="m-47.299 786.325c-0.506-0.73-1.318-1.447-1.661-2.379-2.255 1.735-4.553 3.4-6.871 5.06 7.489 2.182 14.544 6.096 21.597 9.376 1.148 0.537 3.612-2.386 4.593-3.184-0.857 1.373-1.716 2.75-2.572 4.123 3.379 1.569 6.127 3.663 9.146 5.864 1.319-5.438 1.598-13.114 5.444-17.293-1.122 4.612-6.796 16.312-2.298 19.6 5.281 3.865 10.496 4.479 16.829 4.308 6.882-0.187 9.63-0.438 15.494 3.281-2.257-3.119-5.853-5.997-6.566-9.984-0.931-5.205-1.861-10.411-2.794-15.616-1.731-9.681 2.917-16.31 6.421-25.169"/>
		<path d="m165.009 808.977c0.447-0.039 0.895-0.092 1.334-0.155-2.669 4.121-7.03 5.55-11.304 7.731-3.658 1.87-11.482 7.938-15.754 6.55"/>
		<path d="m144.03 817.599c3.69-1.229 7.433-3.958 10.932-5.708 3.996-1.989 5.272-2.479 10.046-2.914"/>
	</g>
	<path stroke-width=".7" d="m95.469 752.474c-1.312 1.854-0.655 6.688-0.821 8.782-0.375 4.713-1.576 9.441-1.585 14.17-0.015 7.218 4.818 15.024 7.104 21.785 2.442 7.219 12.204 11.824 18.043 16.229 3.764 2.837 6.711 2.406 11.287 2.896 3.924 0.421 10.776 2.525 14.533 1.267"/>
	<g stroke-width="1.1">
		<path d="m116.997 720.308c0.329 1.555 0.824 3.63 0.173 4.589-2.807 4.134-6.919 6.241-9.696 10.298-3.967 5.786-7.956 11.548-12.002 17.278"/>
		<path d="m99.283 728.324c3.138-4.604 12.642-6.862 17.507-9.147 0.038 0.313 0.116 0.702 0.208 1.131"/>
		<path d="m85.036 749.866c1.819-7.204 10.062-15.409 14.247-21.542"/>
	</g>
	<path stroke-width=".7" d="m115.071 818.584c-5.078-3.99-10.028-8.304-15.345-11.97-6.089-4.197-7.542-10.365-10.237-17.029-2.863-7.077-5.458-11.912-5-19.69 0.364-6.192-0.96-14.064 0.547-20.026"/>
	<g stroke-width="1.1">
		<path d="m137.58 822.817c-5.888-0.969-17.654-0.412-22.509-4.233"/>
		<path d="m-50.58 1035.918c3.754 3.612 9.983 5.195 14.666 7.168 7.173 3.021 14.339 6.055 21.543 9.002 5.289 2.164 9.52 5.236 15.328 5.562 6.755 0.383 13.977 1.447 20.537-0.771 27.838-9.404 44.862-34.248 60.908-57.148 9.159-13.069 19.014-25.859 26.832-39.798 6.281-11.195 13.104-24.893 10.604-37.93-1.053-5.531-2.185-12.396-5.93-16.754-4.013-4.672-11.599-9.236-13.967-14.859-1.146-2.722-1.405-5.702-2.138-8.539-0.632-2.442-5.28-5.084-7.032-6.609-5.37-4.685-9.159-9.123-15.984-11.597 2.574-4.904 0.839-9.761 0.899-15.085 0.009-0.803-3.469-10.459-4.32-9.498 3.271-3.671 3.751-6.896 4.82-11.72 0.551-2.474 11.72-0.089 12.764 0.037 7.387 0.903 12.688-1.15 19.231-4.033 10.612-4.676 21.455 4.831 31.101-0.253-0.567-0.093-1.135-0.186-1.702-0.275"/>
		<path d="m-33.875 1043.871"/>
		<path d="m100.481 892.224c1.181 4.665-3.729 16.328-5.655 20.698-3.349 7.596-7.989 15.296-12.545 22.229-11.107 16.899-23.458 33.102-35.174 49.588-11.04 15.534-23.445 29.521-37.854 41.997-6.508 5.642-13.311 9.378-20.898 13.451-5.601 3.006-15.145 5.188-21.6 4.022"/>
		<path d="m-17.166 809.513c8.441 5.85 16.289 15.05 27.974 11.58-3.263-0.604-6.521-1.231-9.719-2.13-2.485-0.695-5.542-3.906-8.068-5.135 3.857-0.104 8.242-1.489 11.989-0.009 4.77 1.884 9.534 3.77 14.304 5.649-2.308-1.461-4.608-2.926-6.914-4.389"/>
		<path d="m-22.984 744.564c-0.449-1.992-1.13-2.278-3.484-3.729 11.958 5.427 20.509 18.989 22.003 31.662 2.985-3.229 4.695-5.729 9.177-6.404 4.792-0.722 5.272-4.655 8.322-7.616 7.376-7.152 17.842-14.45 27.295-18.532 7-3.018 15.979-5.317 23.66-4.156 4.448 0.668 22.777 5.752 26.121 0.848 4.85-7.096 8.118-8.94 15.903-12.591 2.403-1.131 10.978-2.744 11.157-6.13 0.126-2.324-3.332-5.824-4.205-8.019-2.211-5.562-7.853-10.825-11.024-16.034-3.595-5.901-7.25-11.461-9.352-18.093-1.739-5.494-4.962-10.13-4.021-16.037 0.306-1.928-1.283-3.499-1.148-5.434 0.19-2.771 0.679-5.513 1.204-8.236 1.215-6.274 3.001-9.111 7.898-13.283 8.626-7.35 20.356-10.522 31.434-7.463 5.763 1.597 12.23 2.625 17.675 5.116 5.323 2.438 10.386 6.014 15.573 8.79 10.238 5.481 19.327 17.265 25.489 26.811 7.404 11.472 10.57 21.072 11.959 34.658 0.58 5.688 3.582 11.144 5.842 16.302 0.591 1.349 1.237 3.925 2.925 4.522 2.125 0.756 4.625-0.459 6.188 1.745 8.218 11.614 15.85 22.547 21.59 35.604 5.262 11.972-0.816 23.197-6.759 33.125-1.897 3.17-13.572 6.168-17.086 7.012-7.856 1.887-13.403 0.589-21.049-1.387-6.328-1.632-12.291-13.469-14.926-18.834-4.752-9.683-8.237-19.928-12.305-29.9 0.229-0.02 0.456-0.04 0.688-0.061"/>
	</g>
	<path stroke-width=".7" d="m-48.96 783.946c-0.479-0.97-0.423-2.466-0.856-3.249-0.489-0.876-2.391-2.229-3.291-2.746 13.583-3.303 33.753-16.919 30.127-33.389"/>
	<path stroke-width=".7" d="m-18.998 958.503c5.993-4.195 10.14-11.356 15.562-16.292 5.726-5.224 6.413-17.592 8.289-24.906-3.861 0.11-5.18 17.758-7.828 20.625-4.167 4.511-8.333 9.02-12.5 13.525-4.586 4.965-8.746 5.957-15.233 7.763-4.913 1.368-10.275 3.759-15.354 4.3-5.965 0.637-13.646-2.419-19.497-3.612-4.902-1.006-7.767-1.028-11.542-4.652-5.15-4.938-10.3-9.882-15.45-14.822"/>
	<path stroke-width="1.1" d="m-46.361 966.22c4.142 0.076 8.711-2.008 12.641-3.104 4.554-1.271 10.791-1.86 14.72-4.613"/>
	<path stroke-width=".7" d="m-94.919 943.229c-0.967-5.812-1.933-11.628-2.899-17.438 1.469 4.69 2.456 10.146 4.695 14.521 2.589 5.059 8.352 9.001 12.398 12.904 4.979 4.799 7.858 7.716 14.633 9.108 6.285 1.294 13.313 3.784 19.732 3.896"/>
	<path stroke-width="1.1" d="m-88.423 923.684c-2.721-8.043-5.249-15.815-9.027-23.414-0.877 3.065-1.749 6.135-2.633 9.195-1.92-6.882-3.593-19.429-1.267-26.256-0.104 0.994-0.208 1.989-0.313 2.981"/>
	<path stroke-width=".7" d="m8.077 765.357c-0.417 1.934-4.588 2.189-6.158 2.624"/>
	<path stroke-width=".7" d="m17.326 769.664c-1.979 10.83 1.323 23.34 6.537 32.473 2.018 3.531 4.858 11.846 8.57 13.693 6.024 3.003 11.729 6.674 17.528 10.107-7.839-2.379-15.917-2.061-23.65-4.297-4.587-1.323-7.628-9.413-9.944-13.042-3.587-5.62-6.28-9.452-6.604-16.178-0.264-5.432-3.24-12.812-1.762-18.085 1.721-6.124 6.227-12.555 8.958-18.357-0.214 0.153-0.427 0.31-0.641 0.467"/>
	<path stroke-width="1.1" d="m47.856 737.363c-5.941 3.496-14.403 6.525-19.454 11.179-4.128 3.803-10.067 15.597-11.077 21.121"/>
	<path stroke-width="1.1" d="m-227.608 887.075c-0.196 0.117-0.396 0.237-0.601 0.356-0.132-2.151 1.224-3.816 1.792-5.774 0.83-2.854-0.342-7.167-0.081-10.257 0.414-4.825 5.239-11.931 9.483-5.729 1.259 1.834 1.17 11.133 3.381 11.733 0.821 0.22 2.928 1.442 3.438 2.215 1.73 2.615-1.857 4.229-0.396 6.191 0.646 0.868 1.479 2.291 2.521 2.667 0.688 0.247 2.009-0.566 2.65-0.579"/>
	<path stroke-width=".7" d="m-216.618 887.459c0.288 0 0.406 0.587 0.934-0.305-0.992 0.582-3.987-1.679-5.562-1.891-2.545-0.343-4.296 0.573-6.355 1.812"/>
	<path stroke-width="1.1" d="m-215 877.016c0.333 0.062 0.662 0.155 0.988 0.286"/>
	<path stroke-width=".7" d="m-225.939 881.507c3.034-1.688 7.188-5.181 10.938-4.491"/>
	<path stroke-width="1.1" d="m-171.287 997.98c-11.329-1.303-16.566-15.237-19.876-24.69-0.295-0.837-1.627 0.033-2.102-0.569-7.189-9.171-14.281-18.421-21.146-27.839-3.463-4.751-9.812-14.868-6.793-21.278-0.867-0.403-1.737-0.812-2.605-1.216-0.496-0.229-1.052 0.699-1.412 0.353-3.513-3.381-8.16-7.605-9.149-12.633 0.761 1.645 1.494 3.287 2.354 4.887"/>
	<path stroke-width="1.1" d="m-156.284 993.686c-4.643 3.358-9.479 4.938-15.003 4.295"/>
	<path stroke-width=".7" d="m-144.255 960.965c2.04 1.645-0.104 12.361-0.895 15.094-1.794 6.218-5.739 13.747-11.137 17.627"/>
	<path stroke-width="1.1" d="m-114.029 734.385c-1.186-0.283-2.392-0.2-3.599-0.2 3.343-1.872 1.092-4.944-1.944-5.04-3.052-0.092-6.546 0.255-9.368-0.438-3.766-0.942-6.857-3.426-4.445-7.702 2.312-4.1 6.528-2.58 9.814-4.401-1.844-2.389-1.178-4.348-0.312-6.931 0.484-1.445 1.208-1.729 2.489-2.627 1.884-1.317 1.331-0.098 3.059-0.472 2.752-0.598 0.196-6.323 3.745-7.771 0.88-0.453 1.779-0.866 2.696-1.237 1.877-0.628 2.781 2.038 4.667 0.956 2.301-1.32 5.476-6.16 8.513-2.982 2.066 2.16 9.636 7.246 9.49 10.828-0.536-0.598-1.073-1.19-1.61-1.786 0.585 1.071 1.172 2.144 1.762 3.213"/>
	<path stroke-width=".7" d="m-96.532 701.705c-0.198 0.413-0.537 0.786-0.802 1.165-0.096-1.001-0.168-1.988-0.375-2.974"/>
	<path stroke-width=".7" d="m-105.897 702.166c1.853 3.194 2.043 5.698 6.344 5.044-0.639 0.049-1.274 0.07-1.911 0.115"/>
	<g stroke-width="1.1">
		<path d="m-189.699 901.261c1.55-3.217 34.613 35.438 35.312 36.283 2.738-2.511 5.462-5.035 8.185-7.562-1.615-2.14-6.664-16.353-2.882-17.604 2.689-0.891 5.38-1.779 8.069-2.67 0.831 4.339 1.583 7.888 3.587 11.84 0.479-0.465 2.331-1.854 2.076-2.345-4.817-9.26-5.447-21.534-2.536-31.438-0.041 10.4-0.053 20.059 4.758 29.539 4.14-4.083 10.373-8.356 16.118-9.729"/>
		<path d="m-146.799 1001.935c-0.469 0.262-0.938 0.52-1.407 0.774 3.453 0.621 9.087-1.421 12.196-2.916 5.003-2.405 7.993-1.343 13.258-0.847 5.418 0.51 11.485-3.438 16.365-5.415 6.346-2.57 12.749-4.118 19.404-5.646-2.597 6.025-3.543 11.004-4.332 17.539-0.859 7.146 9.832 13.198 14.374 17.227 7.446 6.602 17.304 9.475 26.357 13.264"/>
		<path d="m-139.139 997.135c-1.661 2.285-5.253 3.479-7.659 4.8"/>
		<path d="m-147.396 956.487c-0.732-1.531-1.417-2.976-2.314-4.515 2.425 3.736 5.48 2.885 8.664 5.235 3.845 2.842 6.212 6.749 7.618 11.173 3.043 9.579 0.211 20.625-5.71 28.751"/>
	</g>
	<path stroke-width=".7" d="m-175.219 989.138c15.575-3.241 25.37-19.133 27.209-33.774"/>
	<g stroke-width="1.1">
		<path d="m-182.375 990.044c-0.399-0.538-0.806-1.074-1.208-1.614 2.549 0.288 5.824 1.242 8.364 0.708"/>
		<line y2="1002.608" x1="-146.717" x2="-148.023" y1="1002.453"/>
		<path d="m-174.08 997.656c3.305 2.278 7.023 3.704 11.006 4.205 3.549 0.443 11.595 3.104 14.869 0.847"/>
		<path d="m-141.018 909.709c-2.615-13.695 1.5-26.958 8.438-38.621 2.799-4.693 5.639-8.984 9.207-13.095 1.999-2.302 8.315-9.845 12.025-9.3 2.721 0.396 7.247 4.511 9.66 5.836 2.551 1.398 6.026 1.859 4.592 5.188-2.229 5.158-3.928 11.989-6.962 16.645-1.817 2.783-7.878-0.542-9.402 4.721-0.396 1.382-2.394 10.076-0.792 11.216 1.601 1.134 3.975 1.703 2.91 3.622-1.927 3.477-3.337 7.165-4.878 10.826 2.116-2.181 4.18-3.763 5.364-6.562 0.183-0.436-0.156-1.054 0.035-1.437 0.257-0.509 0.845-0.532 1.124-1.032 0.639-1.146 0.229-2.494-1.025-2.915"/>
		<path d="m-119.054 996.079c-3.905 1.701-10.088-0.37-13.142 1.88"/>
		<line y2="778.262" x1="-52.923" x2="-51.99" y1="777.905"/>
		<line y2="751.068" x1="-13.439" x2="-14.221" y1="752.021"/>
		<line y2="789.878" x1="-48.875" x2="-52.833" y1="784.1"/>
	</g>
	<path stroke-width=".7" d="m71.266 839.176c-0.484-0.342 3.886-12.049 4.938-11.926"/>
	<path stroke-width="1.1" d="m86.173 885.031c1.834-4.891-0.815-10.792-1.955-15.631"/>
	<path stroke-width=".7" d="m-82.632 1017.672c9.15 3.692 18.423 7.162 27.495 11.038 7.957 3.399 17.756 5.856 25.977 1.521 18.688-9.854 33.066-22.595 46.887-38.525 14.447-16.658 26.522-35.582 39.347-53.501 5.929-8.286 11.762-16.512 16.855-25.351 2.45-4.254 4.834-8.549 7.318-12.782 2.539-4.313 3.15-10.307 4.925-15.04"/>
	<path stroke-width=".7" d="m75.192 827.359c-2.043 0.246-3.372-0.389-4.854 1.11-1.067 1.078-5.567 3.938-3.414 5.367 1.973-2.121 3.941-4.243 5.912-6.365-1.612 1.806-3.952 5.507-5.912 6.365"/>
	<line y2="833.961" x1="70.449" x2="67.021" y1="838.178" stroke-width="1.1"/>
	<path stroke-width=".7" d="m66.066 832.787c-1.92-2.357-1.188-2.154 1.09-4.024-2.076 0.337-4.228 0.341-6.326 0.479 1.299 0.395 2.906 0.498 3.709 1.672"/>
	<path stroke-width="1.1" d="m67.156 828.763c1.391-0.141 2.86-0.552 4.004-1.369-6.5-0.311-13.002-0.627-19.502-0.938 3.059 0.923 6.114 1.854 9.173 2.784"/>
	<path stroke-width=".7" d="m-47.391 785.881c1.031 0.818 3.697 3.848 4.95 3.86 4.956 0.048 9.375 0.232 14.137-1.238 4.165-1.292 4.866-4.646 8.341-6.845 0.624-0.396 20.826-10.204 14.176-13.528"/>
	<g stroke-width="1.1">
		<path d="m-29.643 795.198c1.623-2.595 3.239-5.191 4.857-7.787"/>
		<path d="m-90.731 886.216c0.955 5.235 6.78 10.458 9.062 15.333 2.771 5.924 6.79 7.968 12.218 11.435 5.452 3.479 11.454 8.188 17.944 9.384 5.942 1.096 11.982-0.077 17.939-0.351-8.062 3.99-14.65 4.889-23.443 4.433-4.061-0.211-8.122-0.42-12.183-0.63-3.198-0.168-5.71-3.738-8.09-5.475 2.515 1.814 5.024 3.628 7.536 5.441"/>
		<path d="m-89.038 861.797c-1.901 3.358-1.13 7.156-1.139 10.943-0.011 4.304-1.33 9.229-0.552 13.476"/>
		<path d="m-71.723 928.232c-3.979-3.052-7.958-6.101-11.938-9.147 4 3.154 7.416 7.522 12.317 9.354 5.781 2.156 14.858 3.58 21.077 3.886 6.827 0.334 15.925-4.443 22.475-6.369 2.606-0.769 3.182-4.223 5.924-4.719 3.259-0.593 6.334-1.296 9.151-3.127-5.118 0.131-9.668 1.183-14.163-1.507-6.021-3.599-12.017-7.246-18.064-10.802-5.692-3.343-8.389-10.006-11.861-15.552-4.021-6.415-6.734-9.96-6.817-17.37-0.023-2.41-25.229-11.409-25.414-11.085"/>
		<line y2="871.476" x1="-61.559" x2="-63.637" y1="871.975"/>
		<path d="m-101.351 883.209c0.562-5.412 1.146-10.824 1.688-16.24-0.939 2.493-3.528 7.707-3.018 9.983"/>
		<path d="m-97.45 900.27c-1.382-2.78-2.757-5.567-4.148-8.348"/>
		<path d="m-8.698 776.238c1.825-0.597 2.979-2.38 4.236-3.741"/>
		<path d="m-55.831 789.006c-21.354-6.207-48.951-13.666-66.702 4.046-7.803 7.785-8.818 18.595-9.809 29.209-0.273 2.97 4.473 12.933 6.6 14.581 4.892 3.793 9.596 7.805 14.331 11.798"/>
	</g>
	<path stroke-width=".7" d="m10.805 821.093c4.47-1.325 8.755-0.233 13.364 0.302-1.621-0.64-3.237-1.278-4.858-1.923"/>
	<line y2="857.958" x1="-96.16" x2="-95.44" y1="857.562" stroke-width="1.1"/>
	<path stroke-width="1.1" d="m75.304 870.073c0.174 0.812 0.348 1.628 0.521 2.439-1.576-0.604-3.153-1.202-4.729-1.807 1.229-2.354 2.46-4.708 3.688-7.062"/>
	<path stroke-width=".7" d="m3.635 810.5c-5.814 0.034-11.634 0.104-17.45 0.159"/>
	<path stroke-width=".7" d="m-83.66 919.085c-2.136-1.635-5.684-3.469-7.182-5.719 5.434 4.044 10.929 8.019 16.279 12.172 4.747 3.685 11.603 2.944 17.319 3.396 6.554 0.52 10.387 0.968 16.147-2.229 6.302-3.499 11.417-4.026 18.214-5.288"/>
	<line y2="864.1" x1="-97.369" x2="-98.985" y1="861.739" stroke-width="1.1"/>
	<path stroke-width="1.1" d="m-90.842 913.366c-1.284-1.822-2.148-4.129-3.154-6.148"/>
	<path stroke-width=".7" d="m41.071 807.49c4.144 5.683 12.208 9.759 17.798 13.914 5.834 4.336 13.824 4.002 20.694 4.83"/>
	<path stroke-width="1.1" d="m30.665 784.765c0.836 6.628 6.465 17.326 10.405 22.729"/>
	<path stroke-width=".7" d="m30.927 763.41c-1.158 1.835-0.005 7.254 0 9.387 0.012 3.941-0.758 8.051-0.262 11.968"/>
	<g stroke-width="1.1">
		<path d="m58.255 736.463c0.558-0.092 1.137-0.086 1.696-0.128-5.355 2.679-10.686 5.362-16.154 7.787-4.976 2.205-9.96 14.682-12.867 19.288"/>
		<line y2="827.394" x1="71.392" x2="71.16" y1="827.405"/>
		<line y2="763.413" x1="9.498" x2="9.862" y1="764.258"/>
	</g>
	<path stroke-width=".7" d="m-215.296 887.079c1.127-0.722 2.711-1.533 3.904-2.467"/>
	<g stroke-width="1.1">
		<path d="m-215.688 887.154c0.105-0.055 0.236-0.109 0.349-0.157"/>
		<line y2="906.749" x1="-116.916" x2="-116.216" y1="907.474"/>
		<path d="m-146.139 929.23c0.604-0.33 1.206-0.661 1.811-0.992-0.626 0.581-1.253 1.162-1.877 1.742"/>
		<path d="m-140.993 910.136c0.311 3.484 3.516 11.456 1.016 13.884-1.45 1.407-2.896 2.815-4.354 4.222"/>
	</g>
	<path stroke-width=".7" d="m-111.867 902.588c0.301-0.372 0.784-0.65 1.152-0.956 0.167 4.878 1.036 9.688 1.899 14.479 0.799 4.438 0.235 11.07 3.582 14.384 6.918 6.851 11.612 16.061 17.002 24.084 2.305 3.432 4.452 7.062 6.961 10.348 2.842 3.724 8.305 4.922 12.438 6.618 4.351 1.783 8.888 3.272 12.712 6.071 3.416 2.498 9.257 8.995 13.458 9.606 2.527 0.375 7.181-2.469 9.521-3.271-5.479-1.503-10.952-3.002-16.429-4.505 8.393 0.31 16.784 0.621 25.182 0.931"/>
	<g stroke-width="1.1">
		<path d="m-109.573 895.464c1.644 0.36 4.346 0.104 4.434 1.979 0.709 15.734 7.181 29.495 9.179 44.83"/>
		<path d="m-109.948 898.179c1.639 0.125 2.025 19.396 2.24 22.266"/>
		<line y2="898.157" x1="-109.439" x2="-109.372" y1="897.262"/>
		<line y2="813.828" x1="-10.731" x2="-6.98" y1="812.007"/>
		<line y2="719.002" x1="116.784" x2="116.76" y1="719.171"/>
		<path d="m-40.387 879.148c1.705 0.374 3.409 0.743 5.115 1.119-0.465-0.271-0.878-0.646-1.353-0.903 1.43 0.509 2.917 0.733 4.398 1.021-0.963 0.652-1.966 0.119-3.049-0.118"/>
	</g>
	<path stroke-width=".7" d="m-43.17 880.9c-2.146-1.789-5.201-3.54-6.767-5.87 4.43 1.507 8.841 2.959 13.312 4.334"/>
	<path stroke-width=".7" d="m25.813 894.122c-0.231-0.035-0.462-0.087-0.696-0.104 4.61 0.646 12.235 1.168 16.668-0.638 4.79-1.944 10.271-7.411 14.155-10.871-4.016 3.039-7.538 6.752-11.916 9.3-4.646 2.702-13.1 2.863-18.339 2.279"/>
	<g stroke-width="1.1">
		<path d="m-45.412 876.604c0.119 0.037 0.233 0.089 0.344 0.146"/>
		<line y2="805.96" x1="-23.073" x2="-22.024" y1="805.188"/>
		<line y2="798.66" x1="-32.216" x2="-33.638" y1="799.321"/>
		<line y2="821.645" x1="24.173" x2="26.311" y1="821.395"/>
	</g>
	<line y2="826.456" x1="49.964" x2="51.658" y1="825.939" stroke-width=".7"/>
	<g stroke-width="1.1">
		<path d="m-48.757 880.086c-0.525-1.273-0.769-2.416-0.985-3.77-0.286-1.779-1.1-1.598-2.812-2.182"/>
		<line y2="875.025" x1="-49.937" x2="-49.952" y1="875.03"/>
		<path d="m56.217 911.212c-2.805 4.25-5.586 8.502-8.562 12.634 5.273-10.912 11.775-22.161 15.446-33.727 1.214-3.824 1.688-7.688 2.517-11.577 0.638-3 3.988-4.975 5.481-7.832"/>
		<path d="m55.94 882.509c2.879-2.664 7.045-4.291 10.482-6.214"/>
	</g>
	<path stroke-width=".7" d="m159.366 772.566c2.507 5.858 4.419 13.188 8.557 18.124 1.893 2.256 6.598 9.194 9.701 9.624 6.684 0.927 14.355 3.533 20.724 0.689-4.887 2.192-10.645 4.888-16.141 4.406-7.796-0.684-15.801-3.575-23.296-5.709"/>
	<path stroke-width="1.1" d="m158.633 809.312c0.051-0.073 0.109-0.106 0.188-0.104"/>
	<path stroke-width=".7" d="m107.429 745.424c-1.188 10.996-2.354 24.55 3.142 34.584 6.007 10.963 13.702 18.166 22.739 26.816 1.956 1.871 10.073 0.947 12.715 1.181 4.117 0.363 8.629 1.579 12.75 1.208"/>
	<path stroke-width="1.1" d="m113.853 729.761c-3.485 5.11-5.75 9.409-6.424 15.663"/>
	<path stroke-width="1.1" d="m-2.409 934.882c-5.666 6.124-11.175 12.413-16.833 18.529-2.581 2.789-6.898 3.27-10.422 3.927-5.885 1.1-11.59 3.029-17.349 4.629-2.846 0.781-8.786-1.785-11.694-2.382-4.902-1.007-9.809-2.011-14.714-3.015-2.207-0.46-5.35-5.039-6.903-6.527-4.064-3.896-8.131-7.793-12.194-11.689 6.934 7.393 14.865 17.389 24.853 19.433 5.403 1.104 10.809 2.212 16.211 3.31 6.667 1.373 12.918-1.463 19.449-3.281 2.553-0.711 9.484-1.179 11.332-3.178 4.468-4.83 8.938-9.66 13.402-14.49 4.58-4.953 5.627-8.235 7.374-15.009 0.399-1.56 0.562-8.309 3.484-7.446"/>
	<path stroke-width=".7" d="m10.165 927.365c1.044-2.273-0.349-6.674-0.601-9.108-0.39-3.72 0.459-3.422 3.765-5.354 4.646 15.086 6.194 33.279 1.774 48.834 2.217-2.521 1.938-9.805 2.467-12.979 0.876-5.271 1.751-10.542 2.624-15.812"/>
	<path stroke-width="1.1" d="m7.112 916.446c0.751-0.312 1.454-0.729 2.143-1.164"/>
	<line y2="921.868" x1="-33.567" x2="-30.409" y1="922.014" stroke-width="1.1"/>
	<path stroke-width=".7" d="m-77.281 920.344c-3.974-2.86-9.558-5.486-12.761-9.209-2.832-3.286-4.552-8.659-6.566-12.519-2.202-4.217-5.721-8.467-4.812-13.355 1.155-6.2 1.279-12.755 1.884-19.031-0.089 0.233-0.088 0.48-0.127 0.737"/>
	<g stroke-width="1.1">
		<line y2="865.119" x1="-99.532" x2="-99.425" y1="866.229"/>
		<line y2="833.469" x1="74.123" x2="73.677" y1="831.668"/>
		<path d="m43.851 739.392c0.387-0.066 0.758-0.21 1.092-0.413"/>
		<path d="m17.557 754.833c-0.24 0.354-0.444 0.744-0.6 1.146"/>
	</g>
	<path stroke-width=".7" d="m-5.954 788.12c3.232-5.534 6.166-10.815 10.794-15.289-2.142 6.634-4.978 12.884-6.356 19.745"/>
	<path stroke-width=".7" d="m4.187 774.868c0.813-2.192 1.631-4.384 2.444-6.576-0.624 1.5-1.317 2.983-1.795 4.539"/>
	<line y2="768.292" x1="7.55" x2="6.635" y1="766.428" stroke-width="1.1"/>
	<line y2="736.265" x1="59.951" x2="60.093" y1="736.335" stroke-width="1.1"/>
	<g stroke-width=".7">
		<path d="m-117.828 965.375c0.008-4.333-7.355-12.533-10.655-15.129-2.876-2.263-5.982-4.263-8.979-6.362-2.18-1.531-8.854-0.479-11.521-0.588-1.146-0.045-3.688 2.544-4.67 3.236 0.226-3.909 0.874-5.034-0.737-8.989"/>
		<path d="m-216.403 887.861c2.479 5.026-6.655 5.905-5.696 9.122"/>
		<path d="m-200.612 914.488c3.717-2.964 7.403-4.883 8.804-9.517"/>
		<path d="m-216.378 928.725c9.72-4.28 17.608-11.11 23.195-20.156"/>
	</g>
	<g stroke-width="1.1">
		<line y2="703.03" x1="-90.832" x2="-91.681" y1="704.576"/>
		<line y2="917.306" x1="-135.252" x2="-133.134" y1="919.401"/>
		<path d="m-138.473 922.556c0.349-0.334 0.696-0.669 1.04-1.007"/>
		<line y2="988.407" x1="-183.584" x2="-183.793" y1="988.43"/>
		<line y2="956.34" x1="-145.995" x2="-145.542" y1="955.821"/>
		<path d="m-148.168 954.352c1.166 1.795 3.341 4.107 3.663 6.291"/>
		<path d="m-86.986 987.89c1.23-0.186 0.921-2.357 1.479-3.438-0.542 0.186-0.309 0.54-0.464 1.075"/>
	</g>
	<path stroke-width=".7" d="m-86.958 961.644c1.707 8.389 2.396 14.436 1.144 22.876"/>
	<line y2="767.821" x1="-5.889" x2="-5.863" y1="767.52" stroke-width="1.1"/>
	<path stroke-width=".7" d="m-8.924 759.76c-0.111-0.22-0.224-0.439-0.335-0.664 0.123 1.421 1.109 4.812 0.303 5.981-7.186 10.43-21.863 23.659-36.232 19.151-1.146-0.359-4.181-3.466-4.227-3.033"/>
	<g stroke-width="1.1">
		<line y2="759.096" x1="-9.261" x2="-9.259" y1="759.087"/>
		<line y2="780.887" x1="-49.82" x2="-49.579" y1="780.695"/>
		<path d="m-85.504 984.45c1.338-0.183 5.763-1.325 6.845-1.945-0.571-0.346-1.145-0.695-1.72-1.042"/>
	</g>
	<path stroke-width=".7" d="m75.83 872.516c3.918 18.162-8.639 36.336-18.886 50.605-13.276 18.489-25.875 37.818-40.23 55.484-12.945 15.936-26.766 30.438-44.802 40.584-10.361 5.828-19.038 4.25-29.69 0.213-7.284-2.77-20.387-4.929-25.188-11.53-3.255-4.484 6.39-24.893 4.306-25.369"/>
	<path stroke-width="1.1" d="m-97.82 925.787c-0.145-0.521-0.325-1.036-0.488-1.555 0.264 2.021 0.522 4.046 0.79 6.065"/>
	<g stroke-width=".7">
		<path d="m-66.341 993.159c-1.863-2.836-5.452-5.452-7.803-7.939 6.683 3.966 13.378 7.812 20.204 11.522"/>
		<path d="m-67.844 1000.592c-3.086-1.445-4.978-4.251-7.062-6.828-1.716-2.113-0.965-6.481-0.055-9.024 0.271 0.157 0.541 0.319 0.814 0.48"/>
		<path d="m47.655 923.848c-3.494 7.183-6.549 14.807-10.601 21.688-3.59 6.096-8.616 11.227-12.75 16.938-3.605 4.982-10.965 7.532-16.441 9.896-2.677 1.154-5.996 2.278-7.814 4.705-2.095 2.797-4.052 1.896-6.494 3.771"/>
	</g>
	<line y2="901.632" x1="-110.772" x2="-110.715" y1="899.995" stroke-width="1.1"/>
	<line y2="974.492" x1="15.526" x2="2.423" y1="959.938" stroke-width=".7"/>
	<g stroke-width="1.1">
		<path d="m-83.146 982.834c-0.433-0.124-0.874-0.217-1.318-0.277"/>
		<path d="m-49.572 979.449c-4.23-0.161-6.976-2.867-10.823-4.445"/>
		<path d="m64.956 884.533c0.46 0.556 0.755 1.119 0.757 1.116"/>
	</g>
	<line y2="885.829" x1="65.881" x2="65.751" y1="886.467" stroke-width=".7"/>
	<g stroke-width="1.1">
		<path d="m-108.686 882.612c0.062 0.005 1.014 0.47 1.51 0.439-0.694 1.605-1.977 3.521-2.179 5.256-0.191 1.616 3.024 1.233 4.418 1.409 0.204-1.755 0.409-3.507 0.61-5.258 0.193-1.657-1.385-1.192-2.853-1.407"/>
		<line y2="888.014" x1="-108.712" x2="-109.321" y1="882.833"/>
		<line y2="876.94" x1="-104.498" x2="-102.88" y1="876.854"/>
		<path d="m-54.742 888.811c0.033 0.927 0.363 1.693 1.235 1.974"/>
		<line y2="821.216" x1="-.118" x2="2.089" y1="818.624"/>
	</g>
	<path stroke-width=".7" d="m56.945 881.594c-9.469 5.294-19.221 6.746-30.007 3.898-5.796-1.532-11.591-3.074-17.396-4.578-3.47-0.899-14.389-1.549-16.721-4.339"/>
	<path stroke-width="1.1" d="m-15.459 883.958c3.034-1.507 5.635-4.934 8.12-7.229"/>
	<path stroke-width=".7" d="m163.084 748.884c-8.686 0.756-16.298 0.904-24.928-0.285-3.917-0.54-14.257-5.587-15.625-9.683 0.062 1.457 0.125 2.915 0.187 4.375"/>
	<g stroke-width="1.1">
		<path d="m88.671 659.115c7.164 15.916 18.513 28.546 30.274 41.381 6.229 6.797 12.902 13.064 19.477 19.519 3.187 3.125 6.968 5.537 10.452 8.296 3.024 2.396 5.023 5.964 8.373 7.972"/>
		<path d="m145.699 736.401c4.075 0.442 7.3 0.396 11.374-0.104"/>
		<path d="m117.429 724.501c0.646 5.314 2.894 9.53 5.1 14.414"/>
		<line y2="880.486" x1="-32.223" x2="-31.723" y1="880.389"/>
	</g>
	<line y2="894.018" x1="14.019" x2="25.117" y1="891.059" stroke-width=".7"/>
	<g stroke-width="1.1">
		<line y2="876.739" x1="-45.249" x2="-45.048" y1="876.663"/>
		<path d="m13.326 912.903c4.87-2.847 9.738-5.69 14.608-8.534 4.312-2.521 5.434-5.938 7.641-10.397-3.548 2.446-19.669 16.551-23.6 14.772"/>
		<line y2="893.972" x1="35.596" x2="35.577" y1="893.96"/>
		<line y2="874.938" x1="-21.533" x2="-24.153" y1="874.674"/>
		<path d="m166.397 788.661c0.042 0.098 0.082 0.192 0.125 0.29"/>
		<line y2="800.364" x1="176.145" x2="176.87" y1="799.564"/>
		<path d="m166.339 808.812c5.898-0.727 11.566-1.718 17.39-2.932"/>
		<line y2="800.174" x1="198.344" x2="200.209" y1="801.007"/>
		<path d="m120.917 725.572c-0.794-2.896-2.189-5.075-3.737-7.657"/>
		<line y2="671.302" x1="94.62" x2="91.072" y1="679.515"/>
		<line y2="917.303" x1="5.974" x2="4.851" y1="916.648"/>
		<path d="m91.343 805.216c6.417 5.036 14.599 14.507 22.953 15.871"/>
	</g>
	<path stroke-width=".7" d="m89.931 736.903c-3.109 4.548-8.842 10.26-9.411 15.914-0.634 6.281-0.579 12.729-0.901 19.041-0.31 6.051 1.24 10.001 3.503 15.589 2.033 5.019 3.772 14.275 8.219 17.768"/>
	<line y2="737.366" x1="72.136" x2="74.496" y1="737.242" stroke-width="1.1"/>
	<g stroke-width=".7">
		<line y2="739.158" x1="33.122" x2="44.644" y1="746.034"/>
		<path d="m-191.272 972.98c15.028 1.087 32.05-12.832 37.487-26.569"/>
		<path d="m-233.552 899.189c0.015-0.609 0.021-1.22 0.032-1.826-0.068 0.631-0.074 1.276-0.104 1.914 1.792-2.19 6.935-5.729 9.128-2.017 0.135 0.571-0.07-0.149-0.116-0.223"/>
		<path d="m-223.977 899.637c-0.561 1.227-1.116 2.448-1.683 3.669 1.026-1.96 2.148-3.596 1.211-5.827"/>
	</g>
	<path stroke-width="1.1" d="m-226.107 905.715c-0.13-0.833-0.069-1.75 0.447-2.409"/>
	<path stroke-width=".7" d="m-227.145 904.83c0.454-0.281 0.834-0.643 1.138-1.077"/>
	<g stroke-width="1.1">
		<line y2="895.767" x1="-222.274" x2="-222.048" y1="895.854"/>
		<path d="m-228.206 887.435c-2.03 1.229-3.487 2.517-5.202 4.18-0.829 0.81-0.139 4.485-0.107 5.752"/>
		<line y2="896.359" x1="-233.245" x2="-233.503" y1="897.805"/>
		<path d="m-234.371 910.104c-0.321-1.666-1.42-3.103-1.822-4.828-0.515-2.175 1.046-4.401 2.571-5.995"/>
		<line y2="909.602" x1="-233.583" x2="-234.45" y1="911.349"/>
		<path d="m-205.41 887.818c0.795-3.343 0.075-6.734 1.617-9.894 1.73-3.54 5.727-0.954 7.205 1.253 4.283 6.374 7.153 13.861 6.904 21.596"/>
		<line y2="876.324" x1="-201.609" x2="-200.566" y1="876.218"/>
		<line y2="904.993" x1="-192.614" x2="-190.972" y1="907.646"/>
		<path d="m-215.885 927.312c-1.78-1.812-3.016-2.643-5.314-3.714"/>
		<path d="m-35.164 742.406c0.21-1.719-0.524-3.947-0.761-5.67 3.396 1.107 6.417 2.229 9.457 4.101"/>
	</g>
	<path stroke-width=".7" d="m-53.111 777.951c-1.975-0.494-4.118-2.608-5.828-3.812 10.66-4.376 22.368-20.077 23.771-31.732"/>
	<path stroke-width="1.1" d="m-100.548 745.251c-1.192 0.283-2.414 0.743-3.645 0.696 4.339 6.232 11.188 10.219 17.408 14.304 7.637 5.016 15.106 10.315 22.676 15.436 1.258 0.852 3.854-1.01 5.17-1.545"/>
	<path stroke-width=".7" d="m-97.334 702.87c0.423 2.213-0.635 3.042-2.219 4.34"/>
	<path stroke-width=".7" d="m-106.783 705.988c1.032 3.018-2.38 5.229-4.63 6.119-0.709 0.275-2.636-1.356-3.354-1.812-1.169-0.745-1.568-3.009-2.042-4.208"/>
	<path stroke-width="1.1" d="m-108.923 698.823c0.896 0.642 1.787 1.226 2.514 2.062"/>
	<line y2="698.246" x1="-97.323" x2="-96.118" y1="696.991" stroke-width="1.1"/>
	<path stroke-width=".7" d="m-114.202 713.596c1.599 2.269 0.813 6.616-2.041 7.453-3.332 0.979-5.633-2.104-7.324-4.448"/>
	<line y2="728.285" x1="-127.924" x2="-127.87" y1="728.328" stroke-width="1.1"/>
	<path stroke-width="1.1" d="m-104.191 745.947c-4.854-0.182-10.693-0.678-15.238-2.506-6.113-2.459-4.345-9.285 1.805-9.26"/>
	<path stroke-width=".7" d="m-116.62 733.344c1.369-0.462 3.593 0.393 5.082 0.66"/>
	<g stroke-width="1.1">
		<path d="m-35.923 736.736c-0.39-3.659-6.116-5.887-8.727-7.627-5.817-3.881-11.667-7.718-17.601-11.42-4.337-2.711-8.893-5.043-13.647-6.93-1.828-0.723-9.861-0.547-10.278-1.011-1.016-1.13-2.027-2.261-3.046-3.389"/>
		<path d="m-85.728 710.25c1.586 2.234 3.133 4.359 4.948 6.411"/>
		<line y2="730.266" x1="-115.75" x2="-116.426" y1="730.725"/>
	</g>
	<path stroke-width=".7" d="m-80.293 715.631c-3.324 7.364-7.035 13.915-12.45 19.979"/>
	<path stroke-width=".7" d="m-98.241 741.105c2.194-1.448 3.758-3.55 5.498-5.497"/>
	<line y2="701.392" x1="-106.46" x2="-106.056" y1="698.546" stroke-width="1.1"/>
	<path stroke-width=".7" d="m-132.808 933.598c7.898 6.155 13.735 11.013 18.95 19.576 4.792 7.873 6.111 15.8 7.979 24.76"/>
	<g stroke-width="1.1">
		<line y2="918.503" x1="-108.332" x2="-109.116" y1="919.578"/>
		<path d="m-149.711 951.975c-1.166-2-2.172-3.903-3.94-5.438"/>
		<line y2="998.458" x1="-173.457" x2="-172.734" y1="998.026"/>
		<line y2="1000.959" x1="-141.274" x2="-140.031" y1="1001.383"/>
		<line y2="995.778" x1="-130.624" x2="-127.655" y1="997.205"/>
		<line y2="788.13" x1="-51.606" x2="-54.385" y1="785.985"/>
		<path d="m-47.476 780.5c-1.186-0.84-2.896-0.857-4.29-1.622"/>
	</g>
	<path stroke-width=".7" d="m-14.498 750.73c0.234 2.067 0.473 4.141 0.706 6.211 0.537 4.711-8.896 12.196-11.84 14.809-6.306 5.582-14.412 7.412-22.497 8.257"/>
	<path stroke-width=".7" d="m-44.262 991.688c-10.075-2.278-24.166-2.819-33.024-8.352"/>
	<path stroke-width="1.1" d="m-98.308 924.232c-1.72-5.494-3.372-9.181-1.775-14.771"/>
	<line y2="984.736" x1="-75.6" x2="-74.958" y1="984.357" stroke-width="1.1"/>
	<path stroke-width=".7" d="m-33.141 983.953c8.713 2.389 18.231-1.485 27.009-3.396"/>
	<line y2="992.32" x1="-62.814" x2="-66.961" y1="995.782" stroke-width="1.1"/>
	<path stroke-width=".7" d="m-17.625 787.896c0.117-4 7.891-9.693 10.366-12.372"/>
	<path stroke-width="1.1" d="m-18.918 967.671c-3.938 3.337-6.057 5.925-11.39 6.644-7.264 0.977-14.528 1.953-21.792 2.934 0.16 0.081 0.323 0.16 0.481 0.242"/>
	<path stroke-width=".7" d="m-11.321 961.226c-2.532 2.147-5.065 4.299-7.601 6.445"/>
	<line y2="885.621" x1="65.34" x2="65.649" y1="884.975" stroke-width=".7"/>
	<g stroke-width="1.1">
		<path d="m-52.102 977.246c-2.507 0.337-3.903-0.444-6.255-1.406"/>
		<path d="m-137.892 887.767c1.979-8.338 4.695-14.811 8.948-22.143"/>
		<line y2="1009.658" x1="-80.987" x2="-83.459" y1="1010.597"/>
	</g>
	<path stroke-width=".7" d="m-64.266 1002.16c2.129 1.171 4.463 2.118 6.743 2.957"/>
	<line y2="889.749" x1="-104.937" x2="-104.698" y1="889.717" stroke-width="1.1"/>
	<path stroke-width="1.1" d="m143.816 736.195c-4.809-0.529-7.13-1.084-11.09-3.613"/>
	<g stroke-width=".7">
		<line y2="938.354" x1="-100.198" x2="-92.522" y1="913.888"/>
		<path d="m22.135 910.488c0.007 15.556-0.604 31.037-1.22 46.583"/>
		<path d="m-4.247 993.266c2.118-2.275 4.112-4.623 6.105-7.012"/>
		<path d="m64.979 894.676c0.491-1.084 0.859-2.249 0.943-3.441"/>
		<path d="m57.976 908.331c1.426-2.349 2.806-4.672 4.07-7.107"/>
		<path d="m4.312 983.303c3.512-4.506 6.98-9.007 10.325-13.642"/>
		<path d="m-14.526 1002.845c1.334-0.979 2.539-1.979 3.759-3.103"/>
		<path d="m-24.443 1008.409c1.134-0.249 2.213-0.74 3.199-1.343"/>
		<path d="m-36.812 1009.921c1.812 0.135 3.408 0.146 5.219-0.03"/>
		<path d="m-53.409 1006.542c3.344 0.984 6.597 1.839 10.009 2.526"/>
	</g>
	<path stroke-width="1.1" d="m-142.484 916.583c-0.271-1.206-0.104-2.155-1.464-2.28-1.157-0.104-2.602-0.085-3.009 1.436-0.134 0.502 0.429 2.481 0.937 2.527 2.069 0.195 2.13-0.153 3.536-1.683"/>
	<path stroke-width="1.1" d="m-142.097 921.227c0.777 0.215 1.646 1.764 1.003 2.466-1.359 1.479-1.378 1.687-3.374 1.486-1.662-0.162-0.838-4.93 2.371-3.952"/>
	<path stroke-width=".7" d="m-145.801 957.72c-0.732-1.53-1.417-2.973-2.312-4.512 2.425 3.736 5.479 2.883 8.662 5.235 3.847 2.84 6.215 6.749 7.618 11.173 3.041 9.577 0.214 20.628-5.711 28.751"/>
</g>
</svg>
