<svg baseProfile="basic" xmlns="http://www.w3.org/2000/svg" width="513" height="547" viewBox="-32.499 147.693 513 547"><path fill="#fff" stroke="#000" stroke-width="1.1" d="M-16.39 220.436c3.004-9.826 8.751-18.695 15.953-25.935 4.743-4.767 15.329-13.112 22.857-11.099 8.073 2.152 14.857 6.708 21.146 12.132 4.338 3.743 3.952 12.691 3.397 17.671l27.78-16.292 1.818-3.697c.933-.112 2.151.471 2.953.901l3.484-2.044-4.812-2.989.56-16.443 5.792-3.145 16.824 10.444c2.946-4.686 5.892-9.371 8.839-14.056.621-.99 2.287-1.531 3.28-2.113l2.715 1.686 8.013-6.15 36.454 22.639 19.583-34.745 191.671 119.006-19.588 34.75c18.249 11.326 36.494 22.66 54.738 33.99 9.169 5.692 18.336 11.385 27.503 17.077l13.435 8.341c3.761 2.336 9.839 4.668 12.409 8.386l-.458 2.178-2.759 2.122c.615.382 1.492.742 1.782 1.456.893-.068 2.48.91 2.816 1.751 2.189-.169 3.429 2.279 2.822 4.092l3.896 2.418.004 3.64 1.411.875-.01 2.804 2.662 1.647 1.524-.893c1.845.967 3.584 2.116 5.355 3.216v7.3l-14.328 8.394-.002.002v1.971l.092.056v19.023l-23.815 13.97v-.002c1.644 12.853-2.689 25.143-10.011 35.692-6.573 9.473-17.848 21.35-30.621 20.573-1.297-.077-2.744-.731-4.003-1.065v.001l-11.305 6.628-.167-.105c-1.166.688-2.589 1.782-4.049 1.459-1.396-.309-1.959-1.836-1.942-3.108l-21.842-13.562h-.001c0 5.442 1.049 11.938-.231 17.241-1.062 4.388-10.079 7.579-13.543 9.61v6.449l-31.521 18.486-5.343-3.315-141.854 83.188v6.449l-23.109 13.554-5.341-3.32c-28.475 16.701-56.951 33.398-85.427 50.1-10.705 6.274-26.655 6.714-37.598.703-13.702-7.526-26.782-16.442-40.066-24.689l10.178-445.304z"/><path stroke="#000" stroke-width=".6" d="M439.492 417.874c.201-.585.222-1.189.274-1.798 4.885-2.844 9.768-5.704 14.644-8.567" fill="none"/><path stroke="#000" stroke-width=".6" d="M-59.7 224.451" fill="none"/><path stroke="#000" stroke-width=".6" d="M6.022 240.357c.537 1.109 1.073 2.219 1.609 3.331.395.817 1.903 1.633 2.607 2.229" fill="none"/><line stroke="#000" stroke-width=".6" x1="451.757" y1="403.949" x2="450.186" y2="404.871" fill="none"/><path stroke="#000" stroke-width=".6" d="M24.995 580.764c3.112-1.757 6.579-2.601 9.989-.92 1.687.833 3.138 2.18 2.593 4.199-.396 1.462-5.992 5.432-7.612 4.669-1.27-.603-8.301-3.846-8.653-5.503-.158-.735 3.123-2.117 3.683-2.445" fill="none"/><path stroke="#000" stroke-width=".6" d="M51.285 632.238c-.086 2.604-1.177 3.037-3.346 4.241-1.345.745-3.061 2.354-4.566 2.493-2.639.245-12.892-6.359-14.453-8.537-1.036-1.441 6.968-4.849 7.917-4.992 2.038-.31 3.933-.045 5.943.317 3.663.67 7.139 3.015 8.505 6.478" fill="none"/><path stroke="#000" stroke-width=".6" d="M10.434 568.933c-1.61.911-3.209 1.834-4.804 2.77-.86.502-1.746.844-.621 1.539 1.802 1.118 6.888 5.683 9.16 4.938 1.589-.525 3.369-1.96 4.837-2.787 1.553-.876 2.361-2.559 1.338-4.191-1.994-3.192-6.743-2.991-9.91-2.269" fill="none"/><path stroke="#000" stroke-width=".6" d="M139.812 325.937c-.098-1.715-.986-3.603-2.427-4.604" fill="none"/><path stroke="#000" stroke-width=".6" d="M71.814 291.535c-9.347-5.179-18.304-6.041-28.04-.376-10.645 6.194-21.243 12.472-31.866 18.702" fill="none"/><path stroke="#000" stroke-width=".6" d="M71.74 590.374c3.11-1.759 6.582-2.604 9.99-.922 1.687.835 3.133 2.18 2.591 4.2-.388 1.447-6.013 5.452-7.614 4.669-1.218-.599-8.354-3.885-8.651-5.501-.141-.765 3.107-2.11 3.684-2.446" fill="none"/><path stroke="#000" stroke-width=".6" d="M149.401 489.519c.92-10.646 2.586-21.69 8.135-31.089 5.64-9.551 12.196-15.029 21.664-20.582 10.53-6.175 21.059-12.352 31.589-18.526 6.466-3.79 19.959-14.379 28.235-9.771 1.84 1.021 3.678 2.042 5.519 3.059 5.082 2.825 6.022 12.647 6.022 17.579 4.035-3.083 8.544-5.472 12.944-8.053" fill="none"/><path stroke="#000" stroke-width=".6" d="M-30.448 448.873" fill="none"/><path stroke="#000" d="M293.586 466.134c-24.315 14.255-48.628 28.518-72.94 42.775l-38.098 22.341-19.371 11.359c-5.258 3.085-10.803 7.08-17.091 7.51-6.662.457-13.355.07-19.205-3.563-52.445-32.559-104.896-65.106-157.33-97.681" fill="none"/><path stroke="#000" d="M-30.851 451.003c27.604 17.14 55.207 34.28 82.812 51.419 14.239 8.841 28.478 17.683 42.717 26.523l20.789 12.906c6.418 3.985 12.977 9.108 20.602 10.419 6.585 1.129 14.192.284 20.019-3.132 46.487-27.262 92.973-54.525 139.462-81.785" fill="none"/><path stroke="#000" stroke-width=".6" d="M-30.851 451.003" fill="none"/><path stroke="#000" stroke-width=".6" d="M146.49 322.343v11.631" fill="none"/><polyline stroke="#000" stroke-width=".6" points="130.726,312.554 129.276,313.405 130.988,312.721 130.726,312.554 130.726,310.941 126.374,313.493 118.708,308.732" fill="none"/><line stroke="#000" stroke-width=".6" x1="130.988" y1="314.454" x2="130.988" y2="312.721" fill="none"/><path stroke="#000" stroke-width=".6" d="M-2.653 484.396c-1.61.908-3.211 1.829-4.806 2.767-.858.503-1.746.843-.619 1.542 1.801 1.115 6.891 5.684 9.159 4.935 1.59-.522 3.369-1.958 4.838-2.786 1.551-.873 2.358-2.561 1.337-4.192-1.992-3.19-6.743-2.99-9.909-2.266" fill="none"/><path stroke="#000" stroke-width=".6" d="M28.82 506.722c3.111-1.754 6.58-2.598 9.988-.917 1.687.834 3.137 2.182 2.592 4.199-.394 1.459-5.995 5.435-7.612 4.669-1.215-.576-8.354-3.892-8.653-5.498-.14-.761 3.11-2.113 3.685-2.453" fill="none"/><path stroke="#000" stroke-width=".6" d="M44.809 590.278c-1.61.906-3.209 1.83-4.805 2.766-.858.505-1.745.843-.62 1.539 1.8 1.115 6.893 5.685 9.159 4.937 1.59-.521 3.37-1.957 4.841-2.786 1.549-.874 2.36-2.563 1.335-4.192-2.005-3.187-6.737-2.988-9.91-2.264" fill="none"/><path stroke="#000" stroke-width=".6" d="M29.524 545.597c-1.61.91-3.21 1.832-4.805 2.768-.858.501-1.748.845-.62 1.542 1.805 1.118 6.885 5.681 9.159 4.935 1.59-.524 3.369-1.957 4.841-2.786 1.548-.874 2.359-2.562 1.333-4.192-2.002-3.187-6.735-2.99-9.908-2.267" fill="none"/><path stroke="#000" stroke-width=".6" d="M6.123 528.492c-.562 2.079-5.286 5.772-7.514 5.477-1.368-.187-8.309-4.106-8.846-5.402-.5-1.212 6.433-4.188 7.667-4.364 3.323-.48 8.056.465 8.693 4.289" fill="none"/><path stroke="#000" stroke-width=".6" d="M-15.716 513.783c2.363.451 4.508 1.721 4.926 4.208" fill="none"/><path stroke="#000" stroke-width=".6" d="M-10.789 517.991c-.351 1.3-2.33 3.234-4.31 4.426" fill="none"/><path stroke="#000" stroke-width=".6" d="M-13.848 593.574c1.044-.435 1.93-.742 2.301-.795 3.324-.481 8.06.462 8.695 4.289" fill="none"/><path stroke="#000" stroke-width=".6" d="M-2.852 597.068c-.561 2.077-5.287 5.779-7.515 5.475-.475-.062-1.651-.594-2.996-1.31" fill="none"/><path stroke="#000" stroke-width=".6" d="M1.287 605.001c3.111-1.757 6.58-2.598 9.99-.918 1.687.833 3.136 2.185 2.591 4.199-.395 1.458-5.998 5.436-7.611 4.665-1.269-.6-8.301-3.843-8.655-5.495-.157-.741 3.124-2.122 3.685-2.451" fill="none"/><path stroke="#000" stroke-width=".6" d="M97.286 548.255c1.683-.934 3.15-1.95 5.166-1.853 1.895.098 3.812.178 5.622.817 3.153 1.119 8.512 3.342 8.637 7.364.081 2.525-1.995 3.049-3.948 4.13-1.195.662-2.868 2.316-4.312 2.037-2.482-.484-5.248-3.07-7.373-4.386-2.373-1.471-6.011-2.835-7.878-4.949-.856-.965 3.402-2.758 4.086-3.16" fill="none"/><path stroke="#000" stroke-width=".6" d="M-15.271 473.117c.929.115 1.863.386 2.792.845 1.688.834 3.137 2.181 2.592 4.198-.273 1.007-3.065 3.246-5.283 4.255" fill="none"/><path stroke="#000" stroke-width=".6" d="M49.81 515.502c3.247-.194 8.02.221 8.677 4.173.342 2.061-5.675 5.838-7.494 5.591-1.476-.2-8.269-4.045-8.815-5.374-.549-1.33 6.367-4.1 7.632-4.39" fill="none"/><path stroke="#000" stroke-width=".6" d="M15.988 494.501c3.251-.198 8.013.226 8.675 4.174.346 2.062-5.679 5.834-7.497 5.592-1.466-.199-8.279-4.057-8.815-5.376-.545-1.332 6.374-4.102 7.637-4.39" fill="none"/><path stroke="#000" stroke-width=".6" d="M102.21 521.378c2.959-2.424 6.648 1.36 7.899 4.068.455.982 2.492 8.808.886 9.598-1.159.569-7.786-4.489-8.586-5.137-1.638-1.332-1.029-6.86-.199-8.529" fill="none"/><path stroke="#000" stroke-width=".6" d="M30.79 616.96c-1.951-3.103-5.983-3.761-9.376-2.985-1.719.397-3.264 1.557-4.781 2.447-.958.562-2.689.967-1.645 1.977 1.381 1.333 6.828 5.366 8.911 5.151 1.354-.142 3.119-1.732 4.339-2.419 1.841-1.036 2.926-1.897 2.552-4.171" fill="none"/><path stroke="#000" stroke-width=".6" d="M-8.831 559.761c3.11-1.756 6.582-2.599 9.99-.918 1.688.834 3.138 2.184 2.592 4.2-.397 1.467-5.987 5.428-7.613 4.667-1.213-.57-8.353-3.893-8.652-5.497-.141-.765 3.107-2.112 3.683-2.452" fill="none"/><path stroke="#000" stroke-width=".6" d="M48.165 555.703c3.248-.196 8.018.221 8.675 4.174.342 2.059-5.676 5.84-7.495 5.592-1.475-.201-8.271-4.048-8.816-5.376-.545-1.331 6.373-4.102 7.636-4.39" fill="none"/><path stroke="#000" stroke-width=".6" d="M83.635 536.502c3.251-.197 8.011.219 8.675 4.173.347 2.062-5.679 5.836-7.497 5.592-1.47-.199-8.271-4.051-8.815-5.375-.543-1.334 6.373-4.102 7.637-4.39" fill="none"/><path stroke="#000" stroke-width=".6" d="M62.642 527.725c3.112-1.757 6.581-2.6 9.991-.918 1.688.834 3.134 2.18 2.592 4.199-.392 1.461-5.998 5.436-7.613 4.667-1.217-.575-8.353-3.889-8.653-5.499-.142-.765 3.105-2.112 3.683-2.449" fill="none"/><path stroke="#000" stroke-width=".6" d="M61.547 568.267c3.112-1.754 6.578-2.598 9.99-.916 1.686.83 3.14 2.181 2.592 4.197-.398 1.461-5.993 5.436-7.613 4.67-1.215-.576-8.352-3.889-8.651-5.499-.142-.766 3.104-2.113 3.682-2.452" fill="none"/><path stroke="#000" stroke-width=".6" d="M12.613 535.098c-1.611.91-3.21 1.831-4.805 2.767-.857.503-1.747.844-.621 1.541 1.805 1.116 6.889 5.681 9.161 4.937 1.59-.522 3.368-1.96 4.837-2.786 1.551-.876 2.363-2.561 1.338-4.194-1.998-3.188-6.743-2.991-9.91-2.265" fill="none"/><path stroke="#000" stroke-width=".6" d="M465.132 409.752c-.055.61-.067 1.217-.273 1.802" fill="none"/><path stroke="#000" stroke-width=".6" d="M47.878 604.273c4.615-2.71 9.234-5.421 13.855-8.124" fill="none"/><line stroke="#000" stroke-width=".6" x1="447.779" y1="407.998" x2="451.666" y2="405.717" fill="none"/><polyline stroke="#000" stroke-width=".6" points="445.741,412.598 442.923,410.847 446.644,408.665" fill="none"/><path stroke="#000" stroke-width=".6" d="M460.152 402.429l-.715.421" fill="none"/><polyline stroke="#000" stroke-width=".6" points="446.347,399.362 446.347,397.442 450.698,394.893" fill="none"/><path stroke="#000" stroke-width=".6" d="M450.186 378.451l12.52 7.776c1.314-2.019 3.238-3.904 5.806-3.457" fill="none"/><line stroke="#000" stroke-width=".6" x1="462.705" y1="386.227" x2="462.7" y2="388.163" fill="none"/><path stroke="#000" stroke-width=".6" d="M367.948 484.044c-.511-.442-1.498-.985-1.786-1.595-7.338-15.464-1.056-31.56 8.171-44.859" fill="none"/><path stroke="#000" stroke-width=".6" d="M447.776 404.801c-.088-.515.307-1.151.86-1.021" fill="none"/><polyline stroke="#000" stroke-width=".6" points="446.643,404.613 446.643,403.312 448.406,402.279" fill="none"/><polyline stroke="#000" stroke-width=".6" points="72.116,202.361 73.882,198.766 78.045,201.351 76.28,204.945" fill="none"/><polyline stroke="#000" stroke-width=".6" points="472.71,396.768 478.331,393.466 479.46,394.059" fill="none"/><line stroke="#000" stroke-width=".6" x1="455.936" y1="406.612" x2="466.759" y2="400.26" fill="none"/><path stroke="#000" stroke-width=".6" d="M455.018 375.141c.782-.905 2.085-1.885 3.334-1.37" fill="none"/><line stroke="#000" stroke-width=".6" x1="453.408" y1="387.616" x2="453.408" y2="388.666" fill="none"/><line stroke="#000" stroke-width=".6" x1="447.77" y1="384.114" x2="447.77" y2="385.163" fill="none"/><line stroke="#000" stroke-width=".6" x1="450.59" y1="385.864" x2="450.59" y2="386.915" fill="none"/><path stroke="#000" stroke-width=".6" d="M457.84 376.89c.773-.903 2.087-1.891 3.33-1.366" fill="none"/><line stroke="#000" stroke-width=".6" x1="456.229" y1="389.365" x2="456.229" y2="390.414" fill="none"/><path stroke="#000" stroke-width=".6" d="M467.107 384.656c-.563-.085-1.058.25-1.438.632l-.706-.436c.439-.445 1.104-.875 1.702-.494" fill="none"/><polyline stroke="#000" stroke-width=".6" points="-0.517,214.043 8.597,220.017 8.597,224.14" fill="none"/><path stroke="#000" stroke-width=".6" d="M101.648 269.399c-1.961-1.358.932-5.926 3.048-5.102" fill="none"/><line stroke="#000" stroke-width=".6" x1="34.316" y1="222.289" x2="32.937" y2="221.43" fill="none"/><path stroke="#000" stroke-width=".6" d="M104.06 265.375c-1.266-.433-2.88 2.115-1.754 2.969" fill="none"/><line stroke="#000" stroke-width=".6" x1="374.974" y1="433.795" x2="376.353" y2="434.651" fill="none"/><path stroke="#000" stroke-width=".6" d="M311.261 399.551c-1.984-1.362.892-5.956 3.028-5.121" fill="none"/><path stroke="#000" stroke-width=".6" d="M21.543 208.724c1.903-1.341 5.971-3.147 8.405-2.522l3.332.858" fill="none"/><line stroke="#000" stroke-width=".6" x1="439.855" y1="426.654" x2="465.223" y2="411.779" fill="none"/><path stroke="#000" stroke-width=".6" d="M464.819 386.921c.08-.441.27-.86.522-1.229" fill="none"/><path stroke="#000" stroke-width=".6" d="M464.079 386.691c.082-.691.416-1.33.883-1.839l1.438 1.925-.13.163" fill="none"/><polyline stroke="#000" stroke-width=".6" points="437.215,408.031 437.215,409.074 440.034,410.823 438.607,411.658 435.789,409.908 435.789,400.914" fill="none"/><line stroke="#000" stroke-width=".6" x1="370.583" y1="486.316" x2="369.909" y2="485.733" fill="none"/><polyline stroke="#000" stroke-width=".6" points="344.005,456.523 342.566,457.576 147.743,336.615" fill="none"/><polyline stroke="#000" stroke-width=".6" points="348.509,468.458 347.569,461.078 348.291,460.552 349.228,467.93 363.453,476.763" fill="none"/><path stroke="#000" stroke-width=".6" d="M1.818 212.747c6.949-10.006 18.194-23.202 31.852-22.354 1.851.116 3.91 1.044 5.707 1.524" fill="none"/><path stroke="#000" stroke-width=".6" d="M373.864 484.377c-.006-8.656-.01-17.313-.014-25.972l-.364-.223" fill="none"/><path stroke="#000" stroke-width=".6" d="M-6.357 249.305c-3.283-5.857-.633-15.732 1.169-21.627" fill="none"/><path stroke="#000" stroke-width=".6" d="M383.451 507.579c.574-.365 1.193-.687 1.647-1.204" fill="none"/><polyline stroke="#000" stroke-width=".6" points="447.366,398.765 447.366,398.883 447.881,398.761" fill="none"/><polyline stroke="#000" stroke-width=".6" points="373.851,458.405 373.864,456.803 382.562,451.703" fill="none"/><path stroke="#000" stroke-width=".6" d="M369.657 454.343c1.39.839 2.822 1.611 4.208 2.46" fill="none"/><line stroke="#000" stroke-width=".6" x1="424.242" y1="427.257" x2="439.855" y2="418.101" fill="none"/><line stroke="#000" stroke-width=".6" x1="469.927" y1="387.284" x2="467.593" y2="388.642" fill="none"/><path stroke="#000" stroke-width=".6" d="M380.093 430.795c5.296-5.547 12.157-10.723 19.951-11.702" fill="none"/><path stroke="#000" stroke-width=".6" d="M436.497 407.588c-1.946-1.592 1.052-3.521.718-4.996" fill="none"/><line stroke="#000" stroke-width=".6" x1="24.947" y1="244.95" x2="24.855" y2="244.894" fill="none"/><line stroke="#000" stroke-width=".6" x1="36.49" y1="267.937" x2="33.67" y2="266.186" fill="none"/><path stroke="#000" stroke-width=".6" d="M23.115 258.659c4.768 2.96 9.535 5.918 14.303 8.879" fill="none"/><polyline stroke="#000" stroke-width=".6" points="345.689,466.709 344.748,459.326 344.031,459.855 344.968,467.235" fill="none"/><path stroke="#000" stroke-width=".6" d="M344.031 459.855l-1.278-.793c.566 4.444 1.134 8.888 1.697 13.331" fill="none"/><polyline stroke="#000" stroke-width=".6" points="440.937,410.294 440.034,410.823 440.034,409.781" fill="none"/><line stroke="#000" stroke-width=".6" x1="446.643" y1="406.946" x2="443.978" y2="408.546" fill="none"/><line stroke="#000" stroke-width=".6" x1="448.945" y1="405.598" x2="447.779" y2="406.281" fill="none"/><path stroke="#000" stroke-width=".6" d="M444.191 404.802c-.567-.323-1.271-.16-1.786.196l-1.411-.877c.52-.354 1.224-.519 1.793-.194" fill="none"/><path stroke="#000" stroke-width=".6" d="M447.019 401.392l-5.891 1.413c-.436.613-1.242 1.31-1.094 2.125.204-.219.431-.424.662-.612" fill="none"/><line stroke="#000" stroke-width=".6" x1="435.789" y1="409.908" x2="437.215" y2="409.074" fill="none"/><path stroke="#000" stroke-width=".6" d="M440.725 410.213c-1.605-1.306.233-4.098 1.386-5.021" fill="none"/><line stroke="#000" stroke-width=".6" x1="441.021" y1="404.517" x2="440.992" y2="404.122" fill="none"/><line stroke="#000" stroke-width=".6" x1="442.701" y1="409.901" x2="442.405" y2="404.998" fill="none"/><line stroke="#000" stroke-width=".6" x1="385.467" y1="506.6" x2="385.467" y2="493.555" fill="none"/><path stroke="#000" stroke-width=".6" d="M460.658 378.64c.782-.9 2.08-1.888 3.333-1.367" fill="none"/><line stroke="#000" stroke-width=".6" x1="459.041" y1="391.115" x2="459.041" y2="392.164" fill="none"/><path stroke="#000" stroke-width=".6" d="M24.927 240.253c.228.18.466.347.716.499" fill="none"/><line stroke="#000" stroke-width=".6" x1="456.441" y1="395.262" x2="458.751" y2="396.695" fill="none"/><line stroke="#000" stroke-width=".6" x1="443.25" y1="387.07" x2="454.682" y2="394.17" fill="none"/><path stroke="#000" stroke-width=".6" d="M362.513 469.385c-6.106-3.79-12.211-7.583-18.32-11.374" fill="none"/><line stroke="#000" stroke-width=".6" x1="24.938" y1="241.778" x2="24.851" y2="241.72" fill="none"/><line stroke="#000" stroke-width=".6" x1="407.461" y1="419.58" x2="408.88" y2="419.96" fill="none"/><line stroke="#000" stroke-width=".6" x1="342.566" y1="457.576" x2="342.753" y2="459.062" fill="none"/><line stroke="#000" stroke-width=".6" x1="98.921" y1="306.3" x2="36.992" y2="267.85" fill="none"/><line stroke="#000" stroke-width=".6" x1="146.694" y1="335.963" x2="144.314" y2="334.483" fill="none"/><path stroke="#000" stroke-width=".6" d="M44.399 270.503c1.282-11.635 5.146-21.112 11.845-30.757" fill="none"/><path stroke="#000" stroke-width=".6" d="M58.258 236.937c9.231-9.671 18.957-18.154 33.033-14.4" fill="none"/><path stroke="#000" stroke-width=".6" d="M351.821 419.204c9.234-9.675 18.958-18.156 33.035-14.4" fill="none"/><path stroke="#000" stroke-width=".6" d="M337.962 452.768c1.297-11.634 5.142-21.11 11.848-30.756" fill="none"/><line stroke="#000" stroke-width=".6" x1="465.668" y1="385.288" x2="467.108" y2="387.214" fill="none"/><path stroke="#000" stroke-width=".6" d="M395.072 499.517c-1.181-1.013-3.724-2.396-4.393-3.802-5.95-12.49-2.553-31.231 5.382-42.676 7.28-10.487 17.655-22.137 32.269-21.224 1.847.114 3.909 1.042 5.704 1.521" fill="none"/><line stroke="#000" stroke-width=".6" x1="436.324" y1="399.916" x2="440.141" y2="397.683" fill="none"/><line stroke="#000" stroke-width=".6" x1="373.486" y1="461.353" x2="373.852" y2="461.58" fill="none"/><line stroke="#000" stroke-width=".6" x1="346.275" y1="311.695" x2="449.153" y2="375.574" fill="none"/><line stroke="#000" stroke-width=".6" x1="113.77" y1="167.322" x2="154.611" y2="192.684" fill="none"/><path stroke="#000" stroke-width=".6" d="M14.172 231.647l6.709 4.127c-3.991 1.798-9.378 2.95-13.587.963-1.83-.864-4.677-2.087-5.119-4.362-.513-2.641.529-4.238 2.605-5.825" fill="none"/><path stroke="#000" stroke-width=".6" d="M14.177 232.71c-.993 3.514-9.814 3.533-9.374-.538" fill="none"/><polyline stroke="#000" stroke-width=".6" points="37.274,270.092 37.179,269.338 35.772,268.461" fill="none"/><line stroke="#000" stroke-width=".6" x1="26.106" y1="238.99" x2="20.88" y2="235.775" fill="none"/><line stroke="#000" stroke-width=".6" x1="27.346" y1="239.75" x2="26.996" y2="239.535" fill="none"/><line stroke="#000" stroke-width=".6" x1="344.748" y1="459.326" x2="347.569" y2="461.078" fill="none"/><path stroke="#000" stroke-width=".6" d="M371.851 485.357c.575-.367 1.191-.69 1.649-1.205" fill="none"/><line stroke="#000" stroke-width=".6" x1="478.331" y1="393.466" x2="474.105" y2="390.843" fill="none"/><line stroke="#000" stroke-width=".6" x1="83.332" y1="212.973" x2="79.503" y2="215.218" fill="none"/><line stroke="#000" stroke-width=".6" x1="75.834" y1="209.359" x2="77.601" y2="205.765" fill="none"/><line stroke="#000" stroke-width=".6" x1="439.839" y1="393.401" x2="446.347" y2="397.442" fill="none"/><path stroke="#000" stroke-width=".6" d="M175.539 309.752c-1.268-.426-2.885 2.116-1.756 2.971" fill="none"/><path stroke="#000" stroke-width=".6" d="M172.927 314.115c-2.253-1.458 1.067-6.776 3.447-5.774" fill="none"/><line stroke="#000" stroke-width=".6" x1="98.311" y1="184.793" x2="78.745" y2="172.643" fill="none"/><path stroke="#000" stroke-width=".6" d="M263.355 543.999c-4.514-.488-8.85 6.422-6.309 10.242" fill="none"/><polyline stroke="#000" stroke-width=".6" points="312.17,543.068 312.17,536.617 343.694,518.135" fill="none"/><polyline stroke="#000" stroke-width=".6" points="141.865,642.944 141.865,636.495 164.974,622.941" fill="none"/><line stroke="#000" stroke-width=".6" x1="106.895" y1="590.434" x2="107.57" y2="590.851" fill="none"/><line stroke="#000" stroke-width=".6" x1="99.221" y1="585.668" x2="102.155" y2="587.489" fill="none"/><polyline stroke="#000" stroke-width=".6" points="88.67,581.657 88.67,579.12 90.772,580.421" fill="none"/><line stroke="#000" stroke-width=".6" x1="85.516" y1="577.16" x2="88.67" y2="579.12" fill="none"/><line stroke="#000" stroke-width=".6" x1="75.613" y1="588.011" x2="80.858" y2="584.934" fill="none"/><line stroke="#000" stroke-width=".6" x1="66.392" y1="593.418" x2="66.5" y2="593.357" fill="none"/><line stroke="#000" stroke-width=".6" x1="30.144" y1="614.674" x2="43.22" y2="607.007" fill="none"/><line stroke="#000" stroke-width=".6" x1="8.925" y1="627.12" x2="15.741" y2="623.12" fill="none"/><line stroke="#000" stroke-width=".6" x1="-6.353" y1="637.954" x2="-6.353" y2="640.393" fill="none"/><line stroke="#000" stroke-width=".6" x1="79.964" y1="576.543" x2="79.964" y2="583.757" fill="none"/><polyline stroke="#000" stroke-width=".6" points="88.413,592.006 88.67,592.165 88.67,591.856" fill="none"/><path stroke="#000" stroke-width=".6" d="M5.639 250.919c-5.194-.376-10.428-.51-15.459 1.041-1.872.576-3.725 1.286-5.561 2.097" fill="none"/><path stroke="#000" stroke-width=".6" d="M116.191 315.604c-4.232-1.243-11.721 1.366-15.515 3.199" fill="none"/><path stroke="#000" stroke-width=".6" d="M283.534 445.378l-1.036.607c-2.423-1.505-4.844-3.008-7.267-4.51v-1.248" fill="none"/><polyline stroke="#000" stroke-width=".6" points="205.442,576.212 205.441,552.14 204.031,551.267" fill="none"/><polyline stroke="#000" stroke-width=".6" points="139.943,318.651 139.93,318.409 137.03,320.109 129.413,315.38" fill="none"/><path stroke="#000" stroke-width=".6" d="M286.302 461.612c-22.992 13.487-45.989 26.971-68.983 40.454-10.972 6.435-21.945 12.87-32.917 19.303-5.525 3.241-11.051 6.481-16.576 9.72-5.921 3.475-12.088 8.245-18.584 10.525-3.767 1.323-7.862 1.085-11.755.74-7.798-.686-16.236-8.114-22.607-12.192" fill="none"/><path stroke="#000" stroke-width=".6" d="M116.268 525.272c1.241-.375.984-2.827.838-3.794-.09-.596-1.222-4.142-2.069-2.335" fill="none"/><path stroke="#000" stroke-width=".6" d="M205.776 548.302l1.411.876c-.99.632-1.695 1.782-1.747 2.961" fill="none"/><path stroke="#000" stroke-width=".6" d="M289.761 449.248v1.246c9.693 6.014 19.381 12.029 29.068 18.049l1.035-.606" fill="none"/><path stroke="#000" stroke-width=".6" d="M290.799 449.891l-1.038.604c-2.416-1.504-4.839-3.006-7.263-4.509v-1.248" fill="none"/><path stroke="#000" stroke-width=".6" d="M116.587 500.207c-.076-.234-.121-.476-.13-.723l-2.899 1.7c.059 1.071 1.061 3.067 2.406 2.632" fill="none"/><polyline stroke="#000" stroke-width=".6" points="116.375,496.928 113.557,498.578 113.557,501.185" fill="none"/><path stroke="#000" stroke-width=".6" d="M95.186 484.422c-1.142.861.155 2.79.996 3.371l2.672-1.568" fill="none"/><path stroke="#000" stroke-width=".6" d="M113.971 492.238c-.771.583-.414 2.292-.414 3.117" fill="none"/><path stroke="#000" stroke-width=".6" d="M122.298 514.01c-.738.562-.349 1.709.057 2.372" fill="none"/><path stroke="#000" stroke-width=".6" d="M116.375 500.329c1.241.77 5.833 4.801 7.581 4.233" fill="none"/><polyline stroke="#000" stroke-width=".6" points="121.581,307.049 126.258,309.921 126.258,303.471 120.084,299.637 121.536,298.785" fill="none"/><polyline stroke="#000" stroke-width=".6" points="304.294,458.273 304.294,459.519 305.332,458.914" fill="none"/><line stroke="#000" stroke-width=".6" x1="112.781" y1="498.097" x2="113.557" y2="498.578" fill="none"/><line stroke="#000" stroke-width=".6" x1="96.182" y1="487.793" x2="109.287" y2="495.93" fill="none"/><polyline stroke="#000" stroke-width=".6" points="140.494,332.287 140.433,331.704 142.494,339.05 140.494,332.287" fill="none"/><polyline stroke="#000" stroke-width=".6" points="273.388,439.081 273.388,440.328 275.232,441.476 276.266,440.869" fill="none"/><path stroke="#000" stroke-width=".6" d="M252.616 428.524c.838-1.178 1.153-1.9 1.488-3.308" fill="none"/><line stroke="#000" stroke-width=".6" x1="122.96" y1="504.417" x2="124.361" y2="503.595" fill="none"/><path stroke="#000" stroke-width=".6" d="M51.041 684.918c-13.368 6.004-26.32 5.928-39.471-.339" fill="none"/><polyline stroke="#000" stroke-width=".6" points="146.577,323.353 185.949,347.799 185.949,348.521" fill="none"/><path stroke="#000" stroke-width=".6" d="M113.742 514.831c-.497.319-.771.879-.787 1.464" fill="none"/><path stroke="#000" stroke-width=".6" d="M25.889 634.72c.737.269 1.459-.036 2.096-.412" fill="none"/><line stroke="#000" stroke-width=".6" x1="81.449" y1="588.418" x2="97.799" y2="578.854" fill="none"/><line stroke="#000" stroke-width=".6" x1="66.608" y1="597.147" x2="67.285" y2="596.748" fill="none"/><path stroke="#000" stroke-width=".6" d="M47.884 608.789c2.865-3.951 9.713-6.361 13.85-8.787" fill="none"/><path stroke="#000" stroke-width=".6" d="M20.451 637.637l.903.562c.125.909.267 1.632 1.103 2.147" fill="none"/><line stroke="#000" stroke-width=".6" x1="21.354" y1="626.604" x2="21.354" y2="638.198" fill="none"/><polyline stroke="#000" stroke-width=".6" points="14.055,587.879 14.936,586.661 14.055,586.091" fill="none"/><line stroke="#000" stroke-width=".6" x1="2.962" y1="603.181" x2="9.739" y2="593.834" fill="none"/><path stroke="#000" stroke-width=".6" d="M-7.892 613.748c1.276.454 4.293-1.189 4.853-2.29" fill="none"/><line stroke="#000" stroke-width=".6" x1="-3.367" y1="611.912" x2="-4.27" y2="611.351" fill="none"/><line stroke="#000" stroke-width=".6" x1="7.328" y1="529.86" x2="13.211" y2="526.408" fill="none"/><line stroke="#000" stroke-width=".6" x1="-5.011" y1="537.097" x2="-4.176" y2="536.604" fill="none"/><line stroke="#000" stroke-width=".6" x1="-17.937" y1="544.677" x2="-5.913" y2="537.623" fill="none"/><line stroke="#000" stroke-width=".6" x1="24.24" y1="540.315" x2="30.123" y2="536.863" fill="none"/><line stroke="#000" stroke-width=".6" x1="-1.042" y1="555.142" x2="11" y2="548.078" fill="none"/><line stroke="#000" stroke-width=".6" x1="-4.884" y1="557.394" x2="-1.26" y2="555.266" fill="none"/><line stroke="#000" stroke-width=".6" x1="-9.585" y1="519.391" x2="-3.703" y2="515.94" fill="none"/><polyline stroke="#000" stroke-width=".6" points="96.466,578.174 88.17,583.037 87.268,582.478" fill="none"/><line stroke="#000" stroke-width=".6" x1="75.425" y1="570.094" x2="79.553" y2="567.674" fill="none"/><path stroke="#000" stroke-width=".6" d="M81.759 548.735v19.398c0 6.114-.921 12.969.047 19.009" fill="none"/><path stroke="#000" stroke-width=".6" d="M86.293 583.322c.644.229 1.301.038 1.876-.285" fill="none"/><line stroke="#000" stroke-width=".6" x1="64.847" y1="538.235" x2="64.847" y2="566.004" fill="none"/><line stroke="#000" stroke-width=".6" x1="207.187" y1="549.178" x2="309.851" y2="488.947" fill="none"/><line stroke="#000" stroke-width=".6" x1="-24.323" y1="397.507" x2="-23.907" y2="397.766" fill="none"/><path stroke="#000" d="M-28.435 396.168c54.652 32.848 107.403 68.566 162.911 100.015 3.783 2.144 8.477 2.658 12.722 1.968 9.871-1.607 20.224-10.102 28.673-15.119 11.382-6.755 22.639-13.719 33.961-20.574 10.667-6.46 21.399-12.82 32.336-18.812 5.155-2.822 10.354-5.564 15.606-8.201 4.63-2.324 7.248-7.354 12.078-9.368" fill="none"/><line stroke="#000" stroke-width=".6" x1="273.388" y1="453.593" x2="273.388" y2="440.328" fill="none"/><line stroke="#000" stroke-width=".6" x1="115.74" y1="303.391" x2="117.802" y2="304.669" fill="none"/><line stroke="#000" stroke-width=".6" x1="155.903" y1="579.839" x2="155.903" y2="623.422" fill="none"/><polyline stroke="#000" stroke-width=".6" points="297.03,453.762 297.03,455.008 298.066,454.403" fill="none"/><line stroke="#000" stroke-width=".6" x1="137.03" y1="321.538" x2="137.03" y2="320.109" fill="none"/><path stroke="#000" stroke-width=".6" d="M126.974 576.991c1.819.716 3.513 1.611 5.47 1.709 2.26.111 4.049.105 6.274-.357 2.066-.424 5.87 2.874 7.988 2.211 1.062-.328 2.125-.661 3.187-.992l1.728.947" fill="none"/><path stroke="#000" stroke-width=".6" d="M113.403 326.441c-6.544 5.847-12.666 10.974-19.878 16.097" fill="none"/><path stroke="#000" stroke-width=".6" d="M84.423 338.535c-3.224 1.509-6.508 2.737-10.013 3.278-9.483 1.464-20.363-6.115-28.681-9.837" fill="none"/><line stroke="#000" stroke-width=".6" x1="127.709" y1="302.619" x2="126.258" y2="303.471" fill="none"/><polyline stroke="#000" stroke-width=".6" points="123.101,323.258 124.807,324.317 124.807,327.752" fill="none"/><polyline stroke="#000" stroke-width=".6" points="143.936,312.694 142.485,313.544 135.04,308.922" fill="none"/><polyline stroke="#000" stroke-width=".6" points="311.563,462.783 311.563,464.032 312.599,463.425" fill="none"/><line stroke="#000" stroke-width=".6" x1="130.339" y1="521.758" x2="125.434" y2="518.71" fill="none"/><path stroke="#000" stroke-width=".6" d="M318.828 473.745v-6.448" fill="none"/><path stroke="#000" stroke-width=".6" d="M119.338 360.21c.421 3.543 1.014 7.101 1.719 10.602.568 2.824 3.517 6.497 5.718 8.326" fill="none"/><line stroke="#000" stroke-width=".6" x1="141.82" y1="322.278" x2="141.796" y2="322.233" fill="none"/><path stroke="#000" stroke-width=".6" d="M142.265 323.572c-.102-.341-.195-.685-.316-1.019" fill="none"/><polyline stroke="#000" stroke-width=".6" points="146.49,320.729 145.039,321.581 142.485,319.994 142.485,313.544" fill="none"/><line stroke="#000" stroke-width=".6" x1="139.93" y1="318.409" x2="135.04" y2="315.373" fill="none"/><line stroke="#000" stroke-width=".6" x1="126.374" y1="313.493" x2="126.374" y2="315.106" fill="none"/><path stroke="#000" stroke-width=".6" d="M103.7 504.608c1.791-.55 1.084-6.27-.66-6.604-.256.075-.447.234-.571.477" fill="none"/><line stroke="#000" stroke-width=".6" x1="119.582" y1="369.826" x2="83.04" y2="347.14" fill="none"/><line stroke="#000" stroke-width=".6" x1="120.682" y1="344.708" x2="105.689" y2="335.4" fill="none"/><line stroke="#000" stroke-width=".6" x1="114.01" y1="330.522" x2="117.159" y2="327.782" fill="none"/><path stroke="#000" stroke-width=".6" d="M-49.779 476.206" fill="none"/><path stroke="#000" stroke-width=".6" d="M-37.525 483.814" fill="none"/><line stroke="#000" stroke-width=".6" x1="-3.703" y1="504.815" x2="-15.957" y2="497.209" fill="none"/><line stroke="#000" stroke-width=".6" x1="13.211" y1="515.314" x2=".955" y2="507.708" fill="none"/><line stroke="#000" stroke-width=".6" x1="30.123" y1="525.814" x2="17.868" y2="518.21" fill="none"/><line stroke="#000" stroke-width=".6" x1="47.01" y1="536.301" x2="34.78" y2="528.709" fill="none"/><line stroke="#000" stroke-width=".6" x1="63.944" y1="546.816" x2="51.694" y2="539.206" fill="none"/><line stroke="#000" stroke-width=".6" x1="80.84" y1="557.306" x2="68.603" y2="549.706" fill="none"/><line stroke="#000" stroke-width=".6" x1="102.155" y1="570.537" x2="85.516" y2="560.209" fill="none"/><line stroke="#000" stroke-width=".6" x1="122.003" y1="582.859" x2="106.814" y2="573.43" fill="none"/><polyline stroke="#000" stroke-width=".6" points="129.921,317.308 133.243,319.37 124.807,324.317" fill="none"/><line stroke="#000" stroke-width=".6" x1="186.23" y1="348.358" x2="186.23" y2="358.563" fill="none"/><line stroke="#000" stroke-width=".6" x1="185.949" y1="347.799" x2="187.4" y2="346.947" fill="none"/><polyline stroke="#000" stroke-width=".6" points="120.084,299.637 120.084,296.41 117.802,294.993" fill="none"/><path stroke="#000" stroke-width=".6" d="M118.708 309.963c-.564-.482-1.385-.799-2.106-.499" fill="none"/><polyline stroke="#000" stroke-width=".6" points="115.875,328.296 115.875,318.77 125.846,314.777 121.84,312.29" fill="none"/><line stroke="#000" stroke-width=".6" x1="113.557" y1="493.121" x2="114.883" y2="492.344" fill="none"/><line stroke="#000" stroke-width=".6" x1="115.74" y1="304.205" x2="74.911" y2="278.856" fill="none"/><line stroke="#000" stroke-width=".6" x1="120.772" y1="342.806" x2="107.315" y2="334.448" fill="none"/><line stroke="#000" stroke-width=".6" x1="127.709" y1="309.069" x2="126.258" y2="309.921" fill="none"/><line stroke="#000" stroke-width=".6" x1="121.536" y1="295.562" x2="120.084" y2="296.41" fill="none"/><line stroke="#000" stroke-width=".6" x1="113.403" y1="317.235" x2="115.875" y2="318.77" fill="none"/><line stroke="#000" stroke-width=".6" x1="145.039" y1="321.581" x2="145.039" y2="326.55" fill="none"/><line stroke="#000" stroke-width=".6" x1="144.06" y1="325.944" x2="144.428" y2="329.357" fill="none"/><line stroke="#000" stroke-width=".6" x1="135.117" y1="320.795" x2="135.416" y2="320.718" fill="none"/><line stroke="#000" stroke-width=".6" x1="115.68" y1="496.394" x2="116.375" y2="496.827" fill="none"/><line stroke="#000" stroke-width=".6" x1="116.456" y1="497.154" x2="116.456" y2="499.484" fill="none"/><line stroke="#000" stroke-width=".6" x1="143.936" y1="319.144" x2="142.485" y2="319.994" fill="none"/><path stroke="#000" stroke-width=".6" d="M-25.809 442.816" fill="none"/><line stroke="#000" stroke-width=".6" x1="101.075" y1="521.594" x2="-25.809" y2="442.816" fill="none"/><line stroke="#000" stroke-width=".6" x1="58.062" y1="561.372" x2="63.944" y2="557.925" fill="none"/><line stroke="#000" stroke-width=".6" x1="32.803" y1="576.187" x2="44.824" y2="569.138" fill="none"/><line stroke="#000" stroke-width=".6" x1="14.936" y1="586.661" x2="19.752" y2="583.84" fill="none"/><path stroke="#000" stroke-width=".6" d="M26.31 602.971l.901.558c.123.915.265 1.634 1.099 2.15" fill="none"/><line stroke="#000" stroke-width=".6" x1="27.211" y1="591.281" x2="27.211" y2="603.528" fill="none"/><path stroke="#000" stroke-width=".6" d="M31.744 600.053c.643.23 1.302.034 1.879-.282l-.902-.562" fill="none"/><polyline stroke="#000" stroke-width=".6" points="10.299,580.782 10.299,593.029 9.412,592.48" fill="none"/><path stroke="#000" stroke-width=".6" d="M44.123 601.78c0 2.49-1.678 12.673 1.098 14.397" fill="none"/><line stroke="#000" stroke-width=".6" x1="44.123" y1="614.03" x2="43.196" y2="613.449" fill="none"/><path stroke="#000" stroke-width=".6" d="M48.656 610.552c2.472.891 8.218-4.002 10.211-5.17 3.827-2.244 7.655-4.486 11.481-6.733" fill="none"/><polyline stroke="#000" stroke-width=".6" points="-6.614,570.282 -6.614,582.529 -7.513,581.969" fill="none"/><line stroke="#000" stroke-width=".6" x1="24.24" y1="538.858" x2="28.819" y2="536.173" fill="none"/><path stroke="#000" stroke-width=".6" d="M-17.391 545.253c.645.227 1.303.035 1.878-.287l-.901-.559" fill="none"/><path stroke="#000" stroke-width=".6" d="M74.989 612.494l.904.558c.12.912.266 1.632 1.099 2.146" fill="none"/><path stroke="#000" stroke-width=".6" d="M80.424 609.575c.642.228 1.303.034 1.879-.282l-.902-.561" fill="none"/><line stroke="#000" stroke-width=".6" x1="82.303" y1="609.293" x2="113.1" y2="591.23" fill="none"/><path stroke="#000" stroke-width=".6" d="M-2.078 579.052c1.697.607 4.285-1.697 5.61-2.474" fill="none"/><line stroke="#000" stroke-width=".6" x1="75.892" y1="602.091" x2="75.892" y2="613.052" fill="none"/><line stroke="#000" stroke-width=".6" x1="7.328" y1="528.358" x2="11.906" y2="525.674" fill="none"/><path stroke="#000" stroke-width=".6" d="M103.055 562.045v17.484c0 4.657-1.475 12.003.205 16.384" fill="none"/><path stroke="#000" stroke-width=".6" d="M107.59 591.344c2.258.811 7.138-3.37 8.94-4.428" fill="none"/><polyline stroke="#000" stroke-width=".6" points="13.798,621.912 13.469,622.364 12.568,621.804" fill="none"/><path stroke="#000" stroke-width=".6" d="M-6.614 582.529c.124.911.268 1.632 1.102 2.146" fill="none"/><line stroke="#000" stroke-width=".6" x1="109.468" y1="591.057" x2="108.566" y2="590.499" fill="none"/><line stroke="#000" stroke-width=".6" x1="47.935" y1="527.735" x2="47.935" y2="555.066" fill="none"/><polyline stroke="#000" stroke-width=".6" points="62.743,602.02 62.636,601.229 61.733,600.667" fill="none"/><line stroke="#000" stroke-width=".6" x1="47.878" y1="607.117" x2="48.718" y2="607.638" fill="none"/><line stroke="#000" stroke-width=".6" x1="36.512" y1="624.472" x2="43.535" y2="614.782" fill="none"/><polyline stroke="#000" stroke-width=".6" points="-2.856,577.387 -1.971,576.163 -2.856,575.615" fill="none"/><line stroke="#000" stroke-width=".6" x1="-13.946" y1="592.679" x2="-7.172" y2="583.339" fill="none"/><line stroke="#000" stroke-width=".6" x1="58.024" y1="563.1" x2="63.944" y2="559.625" fill="none"/><path stroke="#000" stroke-width=".6" d="M33.346 576.75c2.676.971 9.405-4.695 11.478-5.91" fill="none"/><line stroke="#000" stroke-width=".6" x1="-.201" y1="578.769" x2="-1.106" y2="578.208" fill="none"/><line stroke="#000" stroke-width=".6" x1="39.153" y1="555.689" x2="47.035" y2="551.068" fill="none"/><line stroke="#000" stroke-width=".6" x1="32.568" y1="559.552" x2="38.427" y2="556.116" fill="none"/><line stroke="#000" stroke-width=".6" x1="17.681" y1="568.283" x2="27.91" y2="562.283" fill="none"/><polyline stroke="#000" stroke-width=".6" points="13.469,622.364 10.823,623.917 9.922,623.357" fill="none"/><polyline stroke="#000" stroke-width=".6" points="30.966,596.615 31.776,597.118 37.206,593.935" fill="none"/><line stroke="#000" stroke-width=".6" x1="14.112" y1="506.735" x2="14.112" y2="534.065" fill="none"/><line stroke="#000" stroke-width=".6" x1="22.24" y1="545.189" x2="30.123" y2="540.568" fill="none"/><line stroke="#000" stroke-width=".6" x1="15.658" y1="549.051" x2="21.513" y2="545.616" fill="none"/><line stroke="#000" stroke-width=".6" x1=".768" y1="557.781" x2="11" y2="551.782" fill="none"/><line stroke="#000" stroke-width=".6" x1="7.286" y1="531.599" x2="13.211" y2="528.126" fill="none"/><line stroke="#000" stroke-width=".6" x1="-4.987" y1="538.797" x2="-2.754" y2="537.486" fill="none"/><line stroke="#000" stroke-width=".6" x1="-15.512" y1="544.966" x2="-5.913" y2="539.34" fill="none"/><line stroke="#000" stroke-width=".6" x1="27.766" y1="634.438" x2="26.864" y2="633.875" fill="none"/><line stroke="#000" stroke-width=".6" x1="81.759" y1="586.797" x2="80.858" y2="586.239" fill="none"/><line stroke="#000" stroke-width=".6" x1="-6.014" y1="613.463" x2="-6.918" y2="612.901" fill="none"/><line stroke="#000" stroke-width=".6" x1="62.636" y1="578.085" x2="62.636" y2="601.229" fill="none"/><path stroke="#000" stroke-width=".6" d="M67.172 597.751c.511.186 1.048.11 1.528-.125" fill="none"/><polyline stroke="#000" stroke-width=".6" points="27.91,560.338 18.311,565.97 17.409,565.408" fill="none"/><line stroke="#000" stroke-width=".6" x1="35.226" y1="576.471" x2="34.322" y2="575.909" fill="none"/><line stroke="#000" stroke-width=".6" x1="83.167" y1="589.163" x2="99.129" y2="579.828" fill="none"/><polyline stroke="#000" stroke-width=".6" points="61.733,581.34 52.135,586.969 51.234,586.408" fill="none"/><line stroke="#000" stroke-width=".6" x1="45.723" y1="567.586" x2="45.723" y2="589.351" fill="none"/><path stroke="#000" stroke-width=".6" d="M50.257 587.251c.645.229 1.302.04 1.877-.282" fill="none"/><line stroke="#000" stroke-width=".6" x1="75.526" y1="573.251" x2="80.858" y2="570.125" fill="none"/><line stroke="#000" stroke-width=".6" x1="-2.8" y1="496.235" x2="-2.8" y2="523.566" fill="none"/><line stroke="#000" stroke-width=".6" x1="-11.584" y1="524.188" x2="-3.703" y2="519.566" fill="none"/><line stroke="#000" stroke-width=".6" x1="-18.168" y1="528.048" x2="-12.31" y2="524.613" fill="none"/><line stroke="#000" stroke-width=".6" x1="4.412" y1="616.083" x2="4.412" y2="624.318" fill="none"/><path stroke="#000" stroke-width=".6" d="M8.945 624.2c.641.233 1.302.034 1.879-.283" fill="none"/><line stroke="#000" stroke-width=".6" x1="30.966" y1="598.231" x2="31.776" y2="597.118" fill="none"/><line stroke="#000" stroke-width=".6" x1="19.721" y1="613.741" x2="26.605" y2="604.247" fill="none"/><line stroke="#000" stroke-width=".6" x1="75.526" y1="571.46" x2="80.856" y2="568.333" fill="none"/><line stroke="#000" stroke-width=".6" x1="49.726" y1="586.59" x2="61.733" y2="579.549" fill="none"/><line stroke="#000" stroke-width=".6" x1="44.406" y1="589.71" x2="44.824" y2="589.464" fill="none"/><line stroke="#000" stroke-width=".6" x1="74.967" y1="575.524" x2="80.858" y2="572.067" fill="none"/><line stroke="#000" stroke-width=".6" x1="66.392" y1="580.551" x2="66.585" y2="580.438" fill="none"/><line stroke="#000" stroke-width=".6" x1="51.24" y1="589.439" x2="61.733" y2="583.284" fill="none"/><line stroke="#000" stroke-width=".6" x1="33.623" y1="599.77" x2="37.376" y2="597.566" fill="none"/><line stroke="#000" stroke-width=".6" x1="103.055" y1="594.818" x2="102.155" y2="594.259" fill="none"/><line stroke="#000" stroke-width=".6" x1="50.535" y1="610.269" x2="49.633" y2="609.709" fill="none"/><line stroke="#000" stroke-width=".6" x1="84.611" y1="590.284" x2="100.502" y2="580.968" fill="none"/><line stroke="#000" stroke-width=".6" x1="31.025" y1="517.236" x2="31.025" y2="544.567" fill="none"/><path stroke="#000" stroke-width=".6" d="M10.299 593.029c.123.913.268 1.631 1.102 2.148" fill="none"/><path stroke="#000" stroke-width=".6" d="M14.833 589.553c1.691.61 4.29-1.698 5.61-2.474" fill="none"/><line stroke="#000" stroke-width=".6" x1="52.847" y1="632.264" x2="96.985" y2="606.38" fill="none"/><line stroke="#000" stroke-width=".6" x1="16.71" y1="589.268" x2="15.809" y2="588.711" fill="none"/><line stroke="#000" stroke-width=".6" x1="56.064" y1="566.188" x2="63.944" y2="561.57" fill="none"/><line stroke="#000" stroke-width=".6" x1="49.48" y1="570.051" x2="55.339" y2="566.615" fill="none"/><line stroke="#000" stroke-width=".6" x1="34.59" y1="578.782" x2="44.824" y2="572.785" fill="none"/><line stroke="#000" stroke-width=".6" x1="-1.257" y1="554.23" x2="-2.156" y2="553.674" fill="none"/><line stroke="#000" stroke-width=".6" x1="41.152" y1="550.874" x2="47.035" y2="547.426" fill="none"/><line stroke="#000" stroke-width=".6" x1="15.893" y1="565.687" x2="27.91" y2="558.641" fill="none"/><line stroke="#000" stroke-width=".6" x1="-1.971" y1="576.163" x2="2.841" y2="573.344" fill="none"/><line stroke="#000" stroke-width=".6" x1="-9.585" y1="517.855" x2="-5.007" y2="515.175" fill="none"/><line stroke="#000" stroke-width=".6" x1="41.152" y1="549.358" x2="45.73" y2="546.673" fill="none"/><line stroke="#000" stroke-width=".6" x1="11.901" y1="546.587" x2="11.901" y2="567.907" fill="none"/><path stroke="#000" stroke-width=".6" d="M16.434 566.251c.643.229 1.301.039 1.877-.281" fill="none"/><line stroke="#000" stroke-width=".6" x1="41.112" y1="552.601" x2="47.035" y2="549.125" fill="none"/><path stroke="#000" stroke-width=".6" d="M-49.779 479.434" fill="none"/><path stroke="#000" stroke-width=".6" d="M-37.525 487.04" fill="none"/><line stroke="#000" stroke-width=".6" x1="-3.703" y1="508.039" x2="-15.957" y2="500.434" fill="none"/><line stroke="#000" stroke-width=".6" x1="13.211" y1="518.541" x2=".955" y2="510.93" fill="none"/><line stroke="#000" stroke-width=".6" x1="30.123" y1="529.041" x2="17.868" y2="521.433" fill="none"/><line stroke="#000" stroke-width=".6" x1="47.035" y1="539.542" x2="34.78" y2="531.932" fill="none"/><line stroke="#000" stroke-width=".6" x1="63.944" y1="550.041" x2="51.694" y2="542.434" fill="none"/><line stroke="#000" stroke-width=".6" x1="80.858" y1="560.542" x2="68.603" y2="552.933" fill="none"/><line stroke="#000" stroke-width=".6" x1="102.155" y1="573.764" x2="85.516" y2="563.433" fill="none"/><line stroke="#000" stroke-width=".6" x1="119.937" y1="584.805" x2="106.814" y2="576.657" fill="none"/><line stroke="#000" stroke-width=".6" x1="-12.427" y1="605.631" x2="-12.427" y2="613.864" fill="none"/><line stroke="#000" stroke-width=".6" x1="28.813" y1="557.086" x2="28.813" y2="578.406" fill="none"/><line stroke="#000" stroke-width=".6" x1="5.331" y1="534.69" x2="13.211" y2="530.067" fill="none"/><line stroke="#000" stroke-width=".6" x1="-1.257" y1="538.551" x2="4.601" y2="535.116" fill="none"/><line stroke="#000" stroke-width=".6" x1="-5.011" y1="540.752" x2="-2.156" y2="539.079" fill="none"/><line stroke="#000" stroke-width=".6" x1="-13.522" y1="545.745" x2="-5.913" y2="541.282" fill="none"/><line stroke="#000" stroke-width=".6" x1="-16.142" y1="547.281" x2="-13.522" y2="545.745" fill="none"/><polyline stroke="#000" stroke-width=".6" points="74.211,294.865 72.124,296.394 73.47,306.969" fill="none"/><path stroke="#000" d="M373.374 436.644c-20.115-12.49-40.232-24.978-60.348-37.466-.833.641-1.529.521-2.346.012-1.708-1.058-6.032-2.674-6.961-4.643-.386-.816.086-2.025.502-2.734.438-.746 1.279-1.72 2.197-1.832 2.085-.255 5.694 3.096 7.288 4.089.849.526 1.371 1.087 1.143 2.179 20.104 12.478 40.201 24.96 60.303 37.44-.945.437-1.671 1.374-1.793 2.424-.143 1.232 1.392 1.994 2.357 2.08v-.06" fill="none"/><path stroke="#000" d="M439.492 417.874l.274.17c0-2.243.209-4.616-2.421-5.248l.682-.4" fill="none"/><path stroke="#000" d="M29.384 665.645l4 .531 52.43-49.295c-6.079 3.565-12.156 7.13-18.234 10.694-3.79 2.223-7.578 4.444-11.367 6.668-3.389 1.986-3.884 4.393-7.267 6.376-1.651.97-4.2 3.396-6.238 2.726-4.097-1.346-8.131-4.943-11.785-7.213-1.192 1.728-3.833 2.65-5.618 3.697-1.502.883-3.632.883-4.537-.877-1.62-3.159-.316-9.491-.316-12.909l-1.133-.705-6.821 3.999 7.143 4.434v8.063c-1.202.704-3.731 2.981-5.144 2.976-2.228-.02-8.039 1.104-9.954-.094-2.959-1.834-5.914-3.674-8.872-5.51l-.868.51.083 2.198-2.707 1.712c6.915 4.292 13.829 8.587 20.745 12.877 5.683 3.533 11.656 8.715 18.549 9.324l.074.104" fill="none"/><path stroke="#000" d="M-25.911 390.866c26.764 16.62 53.528 33.236 80.293 49.854 13.489 8.375 26.977 16.751 40.466 25.127 13.224 8.21 26.251 17.979 40.315 24.681l-.003.036-2.41-1.185" fill="none"/><path stroke="#000" d="M-25.911 390.866" fill="none"/><polyline stroke="#000" points="33.383,666.177 31.471,665.828 31.437,665.917" fill="none"/><line stroke="#000" x1="16.769" y1="669.646" x2="16.814" y2="669.618" fill="none"/><line stroke="#000" x1="71.048" y1="292.073" x2="71.048" y2="291.112" fill="none"/><path stroke="#000" d="M11.908 309.862l4.83 3 29.569-17.339v-.042l3.642-1.021c4.024 2.497 8.046 4.995 12.069 7.494 2.591 1.607 8.872 7.431 12.008 7.274l-.627-2.305-21.128-13.117c2.376-.668 7.042-.433 9.447.305 2.807.859 5.771 2.982 7.471 5.352l.505-.297v.997l-.505-.7" fill="none"/><line stroke="#000" x1="28.661" y1="527.779" x2="30.123" y2="526.92" fill="none"/><line stroke="#000" x1="62.485" y1="548.781" x2="63.944" y2="547.921" fill="none"/><path stroke="#000" d="M45.573 538.278l1.462-.857c-.077-3.413-.01-6.832 0-10.245 1.201.747 2.967 2.502 4.468 2.252 1.598-.265 3.174-1.874 4.632-2.594 1.836-.906 3.394-1.979 3.574-4.183.174-2.105.123-3.862-1.146-5.562-1.033-1.385-3.491-2.036-5.102-2.271-2.016-.29-3.939.01-5.877.536-1.682.458-6.113 2.391-7.045 4.028-2.244 3.965 4.279 6.415 6.497 7.793" fill="none"/><path stroke="#000" d="M79.394 559.278l1.463-.857c-.054-3.413-.007-6.828 0-10.244-2.707-1.684-8.238-3.305-6.544-7.606.897-2.291 7.372-4.536 9.649-4.759 3.308-.326 9.024.455 9.57 4.614.252 1.926.125 3.967-.901 5.599-.874 1.391-6.396 4.797-8.075 4.358-1.285-.334-2.562-1.502-3.699-2.207" fill="none"/><line stroke="#000" x1="106.658" y1="368.692" x2="99.115" y2="363.633" fill="none"/><line stroke="#000" x1="98.713" y1="362.577" x2="98.317" y2="362.943" fill="none"/><line stroke="#000" x1="11.749" y1="517.278" x2="13.211" y2="516.421" fill="none"/><path stroke="#000" d="M456.369 375.23l.506.316c.564-.518 1.305-1.023 2.104-1.038-.29-.714-1.167-1.074-1.782-1.456l2.759-2.122.458-2.178c-2.57-3.718-8.648-6.05-12.409-8.386l-13.435-8.341c-9.167-5.692-18.334-11.385-27.503-17.077-18.244-11.33-36.489-22.664-54.738-33.99l19.588-34.75-191.672-119.006-19.583 34.745-36.454-22.639-8.013 6.15-2.715-1.686c-.993.583-2.659 1.123-3.28 2.113-2.947 4.685-5.893 9.37-8.839 14.056l-16.824-10.444-5.792 3.145-.56 16.443 4.812 2.989-3.484 2.044c-.801-.43-2.02-1.013-2.953-.901-1.401 2.851-2.801 5.701-4.204 8.551l-.068-.021" fill="none"/><path stroke="#000" d="M64.226 207.917l1.802-1.058c-.209.428-.422.855-.625 1.287-10.88-2.903-21.824 8.899-28.286 15.666 16.453 10.214 32.913 20.417 49.37 30.622 5.279-8.532 11.854-15.835 18.299-23.52-5.215-3.236-10.431-6.476-15.645-9.714v-6.707l1.716-1.006" fill="none"/><path stroke="#000" d="M305.476 390.428l-27.32-16.991c5.284-8.529 11.852-15.832 18.297-23.518l25.55 15.863c.952-5.171 1.084-11.629 3.781-16.229 2.886-4.927 5.529-9.979 8.218-15.016 6.003-11.258 12.062-22.463 18.326-33.579" fill="none"/><path stroke="#000" d="M458.979 374.509c.893-.068 2.48.91 2.816 1.751 2.189-.169 3.429 2.279 2.822 4.092l3.896 2.418.004 3.64 1.411.875-.01 2.804c-1.16-.723-2.323-1.446-3.485-2.167l.348-.304-.103-.137.431-.268-.707-.438" fill="none"/><path stroke="#000" d="M380.118 505.35l-.81-.504c-.017 1.272.546 2.8 1.942 3.108 1.46.323 2.883-.771 4.049-1.459l.167.105 11.305-6.628c-6.197-1.65-12.585-7.116-17.332-11.212-1.108-.964-2.51-4.565-2.803-6.009l-2.773 1.625-.167-.103c-1.169.686-2.59 1.78-4.048 1.457-1.632-.36-1.889-2.104-1.959-3.474-.499-9.669-.191-19.572.037-29.251l-.032-.016" fill="none"/><path stroke="#000" d="M451.666 407.417v-2.419l.981-.576-.789-.487-2.467.316c.64.273 1.002.708.508 1.298-.585.702-1.566-.333-2.118-.675l-.005 5.662-.426.249-.705-.437-.003-5.737-.594.093-1.41-.876v-1.042c1.529-.897 3.052-1.791 4.579-2.685l.055-.481-1.392-.86v-.299l1.141-.667.722.448c.229-.525.572-1.015.956-1.435v-1.916l-8.74-5.429c-.965 1.792-1.928 3.58-2.895 5.373l7.015 4.354-3.64.873-2.298-1.427v.962l-2.926 1.717v1.276l1.095-1.539 4.129-.988" fill="none"/><path stroke="#000" d="M25.643 240.751c.36.225.725.448 1.092.665 1.526-4.692 4.473-9.185 7.264-13.202-.502-.956-2.557-3.104-2.679-4.046-.284-2.213 2.466-2.664 2.676-4.855l-6.909-4.249 4.33 8.236" fill="none"/><path stroke="#000" d="M375.716 438.195c10.75-6.362 21.582-12.636 32.354-18.977l1.007.625 3.693-2.165c.926.483 1.805.995 2.689 1.546v5.779l7.786-4.565v-10.12l-15.176 8.9" fill="none"/><path stroke="#000" d="M82.998 192.074l.058-.034c-1.331-.711-1.032-2.287.073-3.178 1.246-1.004 2.467.354 3.574 1.04l-3.645 2.139" fill="none"/><line stroke="#000" x1="375.782" y1="438.127" x2="375.633" y2="438.143" fill="none"/><path stroke="#000" d="M427.857 401.554l1.02.63-5.63 3.302c0-1.9.038-3.731 1.613-5.072 1.4-1.195 4.222-.377 4.15 1.694l.634-.372 1.377.856v1.092c.769.476 2.405 1.042 2.742 1.951.297.79-3.911 7.967-4.472 9.368l1.574.975c1.97-1.153 4.066-2.156 6.007-3.301v-.754l.624.387 1.11-.652" fill="none"/><path stroke="#000" d="M21.346 254.581c-1.546 1.136-3.135 1.806-4.895 2.582l7.029 4.365c-.259-2.03-.283-3.622-.057-5.657l-2.077-1.29 2.417-1.77c.415-3.727 1.099-6.859 1.088-10.659-2.372 1.734-5.06 3.824-8.066 4.221-1.206.159-2.579.568-3.764.264-1.827-.473-3.046-.883-4.646-1.875" fill="none"/><path stroke="#000" d="M89.141 221.201c-3.98-2.471-7.961-4.942-11.943-7.413l1.712-3.482c-2.838-.143-8.289-2.663-9.915-5 .527-1.297 1.242-2.525 1.84-3.79.283-.038.56-.015.833.067" fill="none"/><path stroke="#000" d="M436.497 407.588c1.437.887 4.136 3.529 5.907 2.508l-.022-.393.319.197c.929-.649 1.769-1.824 1.957-2.961.287-1.734-.502-2.161-1.872-3.013" fill="none"/><path stroke="#000" d="M24.853 247.567c.62-2.099.089-5.117.073-7.315l.079-.045-.163-.107" fill="none"/><polyline stroke="#000" points="79.513,194.119 83.516,196.604 87.049,194.536 87.669,194.903 87.669,193.55 90.192,192.07 88.983,191.321 88.983,190.228 87.606,189.372 86.701,189.901" fill="none"/><polyline stroke="#000" points="349.228,467.93 348.509,468.458 345.689,466.709 345.335,466.968 345.842,470.951 368.53,485.041" fill="none"/><line stroke="#000" x1="436.872" y1="412.678" x2="437.496" y2="412.31" fill="none"/><path stroke="#000" d="M452.648 404.422l.427-.251v-3.134l-1.407-.875v-4.034l1.448-.848 2.82 1.749v.877l1.914 1.189c-.055-.603.306-1.111.55-1.646l-.55.131v-.844l-1.408-.874v-1.023l-1.407-.876c-2.07 1.222-3.963 2.627-6.013 3.83" fill="none"/><path stroke="#000" d="M12.989 621.261c-.592 1.054-3.267 2.636-4.538 2.467-1.014-1.595-.284-5.287-.284-7.071-1.88 1.095-2.994-.097-4.659-1.132v8.232c1.335.827 2.67 1.656 4.006 2.486l6.818-3.999c-5.131-3.164 4.369-8.901 6.113-11.305 1.794-2.474 4.447-5.134 5.683-7.933 1.346-3.046.183-8.965.183-12.285 1.237.771 3.099 2.624 4.656 2.197v3.586l13.857-8.129v-11.372l-.226-.14-6.662 3.91c1.58 2.114 1.515 5.588.136 7.793-1.112 1.773-5.283 3.538-7.105 4.352" fill="none"/><path stroke="#000" d="M44.597 576.863l.227-.13v-5.039l-11.567 6.78c-1.545-.444-3.817-.398-5.347.127v-.635l-13.854 8.123c0 .88-.219 2.2.284 2.991 1.715.211 4.054-1.888 5.421-2.693-.154-4.745 3.658-6.561 8.15-7.785" fill="none"/><path stroke="#000" d="M43.196 613.449l.023-2.128-11.042 6.474c0 2.163.38 4.471-1.447 6.007-1.61 1.354-3.798 2.266-5.623 3.336 0 1.807-.73 5.495.286 7.113.605.075 1.177-.209 1.693-.507-1.442-.884-.763-4.303.439-5.004 2.103-1.234 4.947-3.618 7.455-3.959l8.216-11.332c.223 1.403.808 2.229 2.171 2.76l-5.893 8.13c4.799-.151 10.926 2.638 13.083 7.01l41.035-24.065-.547-.339 8.887-5.212c-2.485 2.335-5.398 3.825-8.34 5.55" fill="none"/><path stroke="#000" d="M100.502 584.917c-4.928 2.89-9.856 5.779-14.783 8.671 0 1.152.237 2.763-.404 3.792-.853 1.362-1.928 1.987-3.343 2.687l6.897 4.284c-2.049 1.202-6.429 5.065-8.939 4.756-1.088-1.711-.283-5.778-.283-7.684.773-.452 1.542-.92 2.324-1.356" fill="none"/><path stroke="#000" d="M-26.568 665.738" fill="none"/><path stroke="#000" d="M273.388 453.593c12.797 7.946 25.599 15.892 38.392 23.841 4.193-2.193 8.31-4.428 12.391-6.819l33.296 20.669c0 5.442 1.049 11.938-.231 17.241-1.062 4.388-10.079 7.579-13.543 9.61v6.449l-31.523 18.486-5.343-3.315-141.854 83.188v6.449l-23.109 13.554-5.341-3.32c-28.475 16.701-56.951 33.398-85.427 50.1-10.705 6.274-26.655 6.714-37.598.703-13.702-7.526-26.782-16.442-40.066-24.689" fill="none"/><path stroke="#000" d="M74.026 309.228l5.411-.637c.029-.266.005-.53-.069-.784 2.238 1.394 6.202.063 8.599-.218 4.528-.533 9.057-1.066 13.586-1.6l-26.365-16.369v-9.868l-.278-.173v-.723l1.45-.85 40.154 24.93.676-.398.611.382v-7.926l1.452-.849 2.28 1.416v3.224l6.176 3.834v6.45c2.018 1.253 4.038 2.507 6.054 3.76-1.45.85-2.9 1.699-4.35 2.552v1.611l.506.315-6.819 5.95v2.146c-2.409.965-4.816 1.929-7.226 2.893l-2.473-1.533v-9.527c2.431-1.422 6.531-2.791 8.333-5.007l.105.062-.264.155" fill="none"/><path stroke="#000" d="M-10.567 592.024l5.255-7.305c-1.391-.377-2.024-1.428-2.201-2.751l-8.487 11.743c3.771-2.291 10.625-2.791 13.577 1.152 1.347 1.797 1.168 5.375.013 7.219-1.161 1.85-4.436 2.961-6.261 4.028 0 1.807-.742 5.553.285 7.167 1.226.166 3.983-1.406 4.501-2.454-.228-.754-.411-2.978-.02-3.662 1.16-2.037 4.362-2.327 5.833-4.36 2.358-3.25 4.713-6.501 7.069-9.751 1.854-2.556.404-9.78.401-12.829 1.196.746 2.962 2.495 4.455 2.248 1.6-.268 3.171-1.876 4.632-2.597 1.839-.906 3.396-1.976 3.575-4.182.161-1.982.166-3.806-1.038-5.418l6.666-3.908.222.139v11.465" fill="none"/><path stroke="#000" d="M34.982 624.781c1.546-.314 2.909-.423 4.492-.442" fill="none"/><path stroke="#000" d="M63.944 537.677c-2.721-1.689-8.222-3.301-6.544-7.606.896-2.291 7.376-4.535 9.652-4.758 3.304-.33 9.023.458 9.569 4.613.253 1.926.121 3.966-.903 5.603-.875 1.396-6.389 4.781-8.072 4.358-1.284-.327-2.567-1.508-3.702-2.21v20.859l-5.882 3.449c.026.715-.08 1.359-.197 2.06l6.079-3.565v5.042l-14.464 8.48.016 5.905 4.747 2.946-4.762 2.793c-.009.393.07.807.284 1.137 3.196.424 9.447-5.052 11.969-6.531v1.944l-11.905 6.982c1.692.074 4.397.873 5.46 2.292 1.275 1.703 1.559 4.039 1.052 6.141l5.392-3.161v4.464l-13.855 8.13v-3.214c-2.226-.044-5.475-3.114-7.251-4.217-2.311 1.355-9.216 7.219-12.21 6.087l-5.321 7.343c-1.984.195-3.764.717-5.468 1.783" fill="none"/><path stroke="#000" d="M118.374 306.845l-1.586 2.165-1.048-.649v-4.97l.774-.454" fill="none"/><path stroke="#000" d="M126.974 576.991c-6.825 8.812-14.624 13.595-24.079 19.135-2.458-1.88-.74-12.535-.74-15.489v-19.153c1.583.984 3.166 1.964 4.748 2.951 2.196 1.362 3.075.792 5.161-.432 1.642-.963 3.891-1.755 5.227-3.073 1.46-1.439 1.352-3.546 1.219-5.489-.297-4.335-4.253-6.604-7.777-8.311-3.62-1.752-7.815-1.973-11.692-1.274-1.79.323-7.47 2.906-8.26 4.713-.342.776-.036 2.484.006 3.355.109 2.302 9.863 6.622 11.37 7.56" fill="none"/><path stroke="#000" d="M141.898 322.094c-.719.995-1.452 1.979-2.178 2.97.834-.518 1.696-.997 2.544-1.491l.147 1.348 2.628 1.632 1.45-.854" fill="none"/><path stroke="#000" d="M15.658 564.733l4.84-2.834-4.825-2.994c-.004 1.742-.719 5.299.266 6.877 3.231.398 9.417-5.034 11.971-6.532v1.944l-11.565 6.785c-1.541-.441-3.821-.407-5.345.125v-.634l-13.856 8.146c0 .872-.218 2.18.283 2.965 1.701.226 4.065-1.896 5.421-2.69-.148-4.709 3.752-6.584 8.151-7.786" fill="none"/><path stroke="#000" d="M116.789 309.01c-3.165 6.069-16.171 5.53-18.546 12.495l-43.45 7.062" fill="none"/><path stroke="#000" d="M123.101 325.402c0 3.695-.687 5.756-1.723 9.218-1.249 4.169-.617 8.97-.921 13.27-.731 10.337-1.443 19.513.617 29.751l4.008 2.49c7.951-4.67 15.908-9.329 23.86-13.993l-2.301-27.612" fill="none"/><path stroke="#000" d="M254.105 425.217c0-3.37-.046-6.247-.937-9.497 3.575 2.219 7.156 4.429 10.727 6.658-19.767 11.585-39.53 23.178-59.295 34.77-9.529 5.588-19.056 11.176-28.585 16.765-9.115 5.345-18.208 11.836-27.85 16.162-4.247 1.906-8.619 1.569-13.003.452" fill="none"/><path stroke="#000" d="M16.451 257.163c-9.072-5.638-17.284-9.755-28.077-6.723l-1.84-1.588" fill="none"/><path stroke="#000" d="M118.007 328.18c-10.751 6.304-21.277 12.938-32.685 17.988-12.698 5.614-24.302-.675-36.333-5.092 4.13 6.271 10.296 9.859 16.949 13.027 3.57 1.699 9.128 3.234 13.049 3.582 2.902.255 9.154-.495 11.701 1.087 10.129 6.288 20.259 12.58 30.387 18.867" fill="none"/><path stroke="#000" d="M47.878 603.829c2.008.139 8.456-3.905 8.463-6.22" fill="none"/><path stroke="#000" d="M-.971 555.282c.522.855 1.634.597 2.371.187l-.903-.561c-.444.247-.961.438-1.468.374-.205-.327-.292-.722-.286-1.106l4.79-2.806-4.771-2.964-.019-5.906 6.246-3.662c.008.9-.325 2.531.062 3.35 1.059 2.22 6.754 4.341 8.776 5.595 2.283 1.417 3.198.366 5.43-.944 3.825-2.244 6.943-5.058 10.867-7.357v-22.803c1.204.746 2.967 2.498 4.465 2.253 1.601-.267 3.176-1.874 4.635-2.595 1.838-.909 3.392-1.977 3.574-4.185.173-2.106.122-3.864-1.149-5.562-1.031-1.381-3.491-2.036-5.102-2.271-2.014-.289-3.938.012-5.876.54-1.685.458-6.111 2.387-7.044 4.027-2.26 3.957 4.286 6.42 6.496 7.792" fill="none"/><path stroke="#000" d="M.62 483.191c5.118.308 12.799 5.896 6.648 11.053-1.483 1.244-3.649 2.111-5.325 3.096-1.718 1.008-2.498.287-4.118-.718-2.1-1.306-10.848-4.896-7.957-8.828 1.885-2.562 7.776-4.313 10.752-4.603" fill="none"/><path stroke="#000" d="M63.944 565.521v.73c-1.657.394-6.94 2.582-7.64 4.367-.326.832-.238 3.032.332 3.743 1.734 2.176 6.182 3.84 8.515 5.286.997.619 1.761 1.167 2.884.507 1.581-.928 3.137-1.889 4.78-2.702 1.244-.612 2.562-1.827 2.639-3.302l5.404-3.171v5.041c-4.82 2.83-9.643 5.657-14.466 8.484l.017 5.901 1.078.669-1.095.642v4.468l.125-.074c.295.45.831.679 1.278.956-.349.171-.734.267-1.119.217.117.195.292.357.495.469" fill="none"/><path stroke="#000" d="M13.211 506.174c-2.711-1.683-8.237-3.301-6.546-7.604.902-2.295 7.37-4.534 9.651-4.76 3.307-.325 9.025.459 9.57 4.616.253 1.924.125 3.967-.901 5.599-.874 1.39-6.396 4.794-8.075 4.356-1.288-.332-2.563-1.497-3.699-2.207v20.862l-5.884 3.449c.03.714-.081 1.355-.197 2.057l6.082-3.564v5.04l-.764.448c1.959-.534 4.048-.785 6.056-.33 1.86.426 5.251 1.423 5.534 3.751l3.877-2.271" fill="none"/><path stroke="#000" d="M44.824 588.376v1.219c1.684-.457 3.27-.524 5.004-.418" fill="none"/><path stroke="#000" d="M44.827 546.114l-3.876 2.273c-.238-2.038-3.207-3.221-4.896-3.605-1.851-.423-4.103-.666-5.933-.022v-.239l-.763.446.763-.207" fill="none"/><path stroke="#000" d="M44.824 571.695v-1.944c-2.574 1.508-8.754 6.935-11.968 6.53-.198-.308-.285-.685-.287-1.051l4.837-2.833-4.821-2.992-.017-5.904c4.84-2.836 9.641-5.649 14.467-8.483v-5.04c-4.366 2.561-9.171 7.985-13.946 9.116-2.001.478-9.954-4.585-11.069-6.318-.481-.747-.112-2.562-.122-3.438l-6.24 3.661.015 5.905" fill="none"/><path stroke="#000" d="M-15.136 562.318l9.223-5.41v.695" fill="none"/><path stroke="#000" d="M7.13 532.542c-.962 2.022-6.068 5.6-8.325 5.609-.89.004-1.75-.78-2.461-1.225l-1.355.794c.014.65.027 1.291 0 1.942l2.855-1.674v5.043l-2.855 1.672.005 1.361 2.85 1.771c0 1.832-.644 5.053.211 6.745l-3.066 1.798v1.029c-1.575.145-8.523 2.625-9.036 4.609-.254.992-.047 2.359-.015 3.372-.251.146-.535.339-.842.552" fill="none"/><path stroke="#000" d="M.955 497.881v25.629c-1.509-.089-3.198-.265-4.658.249v-.241l-.762.449.762-.208" fill="none"/><path stroke="#000" d="M-15.115 526.166l.547-.33c3.826-2.243 6.94-5.057 10.864-7.356v-1.943l-5.882 3.45c.026.709-.082 1.357-.197 2.057" fill="none"/><path stroke="#000" d="M.955 523.51c2.006.272 5.862 1.413 6.173 3.877l3.875-2.274" fill="none"/><path stroke="#000" d="M-20.612 513.257l-.764.208.764-.449v.241c1.71-.59 3.87-.442 5.605-.05 1.776.401 4.964 1.486 5.221 3.679l3.877-2.273" fill="none"/><path stroke="#000" d="M9.412 592.48c.156 1.315.806 2.371 2.185 2.738l-5.298 7.312c5.799-1.019 13.215 5.996 7.258 10.986-1.506 1.266-3.685 2.136-5.388 3.138" fill="none"/><path stroke="#000" d="M57.865 564.044c-1.029 2.192-5.55 4.999-7.866 5.551-2.007.48-9.948-4.587-11.069-6.322-.48-.738-.111-2.563-.119-3.435" fill="none"/><path stroke="#000" d="M-15.712 486.58c.213-.104.444-.231.699-.382 2.638-1.55 5.974-2.552 6.525-5.89" fill="none"/><path stroke="#000" d="M-8.488 480.309c0-2.186.194-3.767-1.148-5.563-1.031-1.381-3.49-2.037-5.1-2.27" fill="none"/><path stroke="#000" d="M62.64 557.173l-4.578 2.688c-.062-4.582-7.696-5.755-11.027-4.604v-.239" fill="none"/><path stroke="#000" d="M113.512 523.303l1.276-.713c-.488-2.6.409-4.477 2.618-5.77-.482-.769-1.247-1.572-2.106-1.899-2.035 1.191-4.068 2.384-6.101 3.576 3.238 2.327 5.203 5.515 5.764 9.473.232 1.637.775 6.093-.878 7.062-.593.349-1.875 1.504-2.599 1.396-2.773-.424-7.75-4.373-9.957-6.118-1.314-1.042-.716-3.765-.715-5.161.001-1.794-.163-3.686 1.176-5.049 1.943-1.981 4.725-2.955 7.208-1.602" fill="none"/><path stroke="#000" d="M-15.006 545.526l9.093-5.33v5.037l-.224.133.224.137v11.407" fill="none"/><path stroke="#000" d="M-7.513 581.969v-12.248c1.257.784 3.432 2.947 4.995 2.028 2.203-1.289 4.691-2.403 6.641-4.041 1.597-1.341 1.25-4.933.774-6.679-.602-2.217-3.516-3.11-5.465-3.553l11.568-6.784v5.038l-.224.131.224.142v11.466" fill="none"/><path stroke="#000" d="M32.177 617.795c-.35-2.022-1.74-3.154-3.547-3.933l14.59-8.559v-4.082" fill="none"/><path stroke="#000" d="M-.569 557.478c-1.42-.414-3.002-.212-4.442-.069" fill="none"/><path stroke="#000" d="M99.599 580.404l-15.769 9.246c1.415.941 1.888 2.295 1.888 3.938" fill="none"/><path stroke="#000" d="M29.245 536.291l-5.005 2.936c0 1.297.015 2.535-.199 3.818" fill="none"/><path stroke="#000" d="M78.652 567.114l-3.501 2.052c.142.393.243.81.353 1.219l4.45-2.609" fill="none"/><path stroke="#000" d="M47.035 549.979v-1.941l-5.883 3.449c.029.715-.082 1.356-.198 2.06" fill="none"/><path stroke="#000" d="M28.63 613.862c-1.507-.799-3.862-1.102-5.535-.819" fill="none"/><path stroke="#000" d="M67.488 591.074c4.457-2.614 8.915-5.227 13.37-7.843 0 1.27-.323 3.147.303 4.292l-1.018.595c-2.787-.841-6.218-.037-8.658 1.392-1.546.905-3.274 1.701-4.708 2.775-.707.526-.318 3.065-.259 3.825" fill="none"/><path stroke="#000" d="M63.944 566.251c3.941-1.072 8.641-.522 11.207 2.915" fill="none"/><path stroke="#000" d="M-15.997 611.646l2.668 1.656" fill="none"/><path stroke="#000" d="M3.509 615.524l-4.575-2.84-2.278 3.144c-.551.758-2.209 1.314-3.028 1.793-2.318-1.438-4.639-2.877-6.956-4.319v-8.23l-2.561-1.59" fill="none"/><line stroke="#000" x1="-6.371" y1="617.621" x2="3.509" y2="623.758" fill="none"/><path stroke="#000" d="M7.516 626.243c1.66 1.032 3.32 2.063 4.981 3.094" fill="none"/><path stroke="#000" d="M54.242 582.852l7.492-4.393v1.791" fill="none"/><line stroke="#000" x1="61.733" y1="577.528" x2="61.733" y2="578.459" fill="none"/><path stroke="#000" d="M300.666 457.265v-1.247l-7.267-4.512v1.247" fill="none"/><path stroke="#000" d="M-24.572 401.7c27.865 17.302 55.73 34.603 83.596 51.903 13.938 8.653 27.875 17.308 41.813 25.962 6.905 4.287 13.81 8.573 20.715 12.859 6.331 3.931 12.751 8.729 20.617 8.17 11.246-.792 20.779-8.544 30.247-14.095 11.171-6.552 22.341-13.102 33.511-19.653 22.214-13.026 44.352-26.192 66.646-39.082-2.893-1.794-5.788-3.587-8.677-5.387" fill="none"/><path stroke="#000" d="M37.406 572.397l7.418-4.349v1.702" fill="none"/><line stroke="#000" x1="44.824" y1="567.028" x2="44.824" y2="568.049" fill="none"/><path stroke="#000" d="M-15.555 539.518l2.214 1.375 7.428-4.356v1.714" fill="none"/><path stroke="#000" d="M-5.913 540.195v-1.944c-1.657.973-4.849 3.6-7.761 5.218" fill="none"/><path stroke="#000" d="M-3.656 536.927l-2.257-1.4v1.011" fill="none"/><path stroke="#000" d="M293.4 451.506c-2.425-1.504-4.849-3.006-7.265-4.511v1.246" fill="none"/><path stroke="#000" d="M61.733 582.193v5.04l-.225.133.225.137v6.947" fill="none"/><path stroke="#000" d="M20.498 561.899l7.413-4.349v1.698" fill="none"/><line stroke="#000" x1="27.91" y1="556.527" x2="27.91" y2="557.55" fill="none"/><path stroke="#000" d="M-5.011 536.086v1.635" fill="none"/><path stroke="#000" d="M315.199 466.287v-1.247c-4.847-3.008-9.69-6.012-14.533-9.022" fill="none"/><path stroke="#000" d="M324.17 470.613l-8.971-5.573" fill="none"/><line stroke="#000" x1="379.309" y1="504.846" x2="357.467" y2="491.283" fill="none"/><path stroke="#000" d="M47.035 537.421v10.617" fill="none"/><path stroke="#000" d="M75.453 574.149c.138-.643.073-1.336.073-1.985l5.331-3.128v1.941" fill="none"/><polyline stroke="#000" points="75.189,279.752 114.917,304.419 101.553,305.989" fill="none"/><line stroke="#000" x1="115.74" y1="304.321" x2="114.917" y2="304.419" fill="none"/><path stroke="#000" d="M3.533 551.37l7.467-4.378v3.702" fill="none"/><line stroke="#000" x1="11" y1="546.025" x2="11" y2="546.992" fill="none"/><path stroke="#000" d="M-3.703 495.677v20.86" fill="none"/><path stroke="#000" d="M-5.2 639.716l-1.152.677-1.409-.876v-2.439c-7.75-4.812-15.5-9.623-23.249-14.438" fill="none"/><path stroke="#000" d="M-4.332 639.207l-3.431-2.13" fill="none"/><path stroke="#000" d="M93.044 606.942c-4.453 2.613-9.411 6.842-14.37 8.293-1.079.316-2.475-.163-3.183-1.065-1.912-2.426-.502-9.708-.502-12.64l-1.369-.85-14.763 8.657c-2.582 1.515-10.326 8.055-13.49 6.87" fill="none"/><path stroke="#000" d="M79.647 601.423c-2.096 1.232-2.617 1.378-4.658.107" fill="none"/><path stroke="#000" d="M80.858 558.422c0 3.54-.013 7.076 0 10.615" fill="none"/><line stroke="#000" x1="61.733" y1="587.233" x2="61.733" y2="587.502" fill="none"/><path stroke="#000" d="M27.91 561.192v5.042l-.222.13" fill="none"/><path stroke="#000" d="M286.134 446.994l-7.271-4.511v1.247" fill="none"/><path stroke="#000" d="M454.815 389.541v-1.052l2.818 1.751v1.049" fill="none"/><path stroke="#000" d="M446.363 384.288v-1.048l2.814 1.75v1.05" fill="none"/><path stroke="#000" d="M457.197 373.053c-6.444 4.959-11.319 9.132-15.239 16.411" fill="none"/><path stroke="#000" d="M61.733 598.914c0 1.151-.154 2.398.49 3.411 2.409-1.41 4.814-2.823 7.221-4.234l-1.649-1.025" fill="none"/><path stroke="#000" d="M63.944 558.536v1.944" fill="none"/><path stroke="#000" d="M13.211 527.036v1.941" fill="none"/><path stroke="#000" d="M66.392 584.504c0-1.366-.066-2.748.014-4.112" fill="none"/><path stroke="#000" d="M-5.011 539.663v5.041" fill="none"/><path stroke="#000" d="M-5.913 535.526l-5.173-3.212c-1.34-.834-.822-2.531-.836-3.975l-3.41 2" fill="none"/><path stroke="#000" d="M19.316 625.339c-1.662-1.03-3.325-2.062-4.984-3.094" fill="none"/><path stroke="#000" d="M278.864 442.483l-5.475-3.402v-10.809l71.062 44.121 1.438-1.055-.046-.389" fill="none"/><path stroke="#000" d="M457.633 390.24l3.189 1.98c-.807 1.743-1.613 3.489-2.423 5.229" fill="none"/><path stroke="#000" d="M451.997 387.789v-1.049l2.818 1.751" fill="none"/><line stroke="#000" x1="445.978" y1="383.004" x2="446.363" y2="383.24" fill="none"/><path stroke="#000" d="M32.494 225.348c.433.085.828.247 1.183.484l.08-.049 1.348.837-1.106 1.593" fill="none"/><path stroke="#000" d="M33.597 225.781l.161.003" fill="none"/><polyline stroke="#000" points="429.291,415.004 429.01,415.713 429.01,406.941 423.246,410.319" fill="none"/><path stroke="#000" d="M431.911 408.453c-.97-.076-2.007-1.05-2.824-1.555l-.077.042" fill="none"/><polyline stroke="#000" points="439.062,394.837 438.185,396.468 440.141,397.683 440.141,398.637" fill="none"/><path stroke="#000" d="M73.62 600.681l-4.174-2.59" fill="none"/><path stroke="#000" d="M36.49 267.937l-.719.524.095.756c7.202 4.476 14.408 8.944 21.613 13.419 4.626 2.873 16.092 7.198 16.877 13.377.399 3.141.797 6.286 1.199 9.427l-2.086 1.529" fill="none"/><path stroke="#000" d="M101.93 601.73c4.75-4.465 9.5-8.932 14.25-13.396" fill="none"/><line stroke="#000" x1="80.439" y1="308.475" x2="79.437" y2="308.591" fill="none"/><path stroke="#000" d="M-5.312 584.721c2.933 1.079 9.859-4.784 12.116-6.11-.951-.59-3.594-1.579-3.956-2.72" fill="none"/><path stroke="#000" d="M187.4 350.335v-3.388l-40.91-25.399c-.017.86.08 1.713.156 2.57l39.303 24.402.281-.162" fill="none"/><line stroke="#000" x1="66.392" y1="591.716" x2="66.409" y2="590.405" fill="none"/><path stroke="#000" d="M49.48 574.001v-4.355" fill="none"/><line stroke="#000" x1="44.824" y1="576.733" x2="44.824" y2="577.003" fill="none"/><line stroke="#000" x1="-2.156" y1="537.99" x2="-2.156" y2="537.857" fill="none"/><path stroke="#000" d="M-1.257 542.5v-4.354" fill="none"/><path stroke="#000" d="M12.373 525.814l-5.045 2.956c.05-.477-.047-.938-.2-1.384" fill="none"/><path stroke="#000" d="M7.328 530.485v-1.714" fill="none"/><path stroke="#000" d="M-4.516 515.329l-5.069 2.973c.05-.484-.043-.957-.201-1.415" fill="none"/><path stroke="#000" d="M-1.066 612.685c-.835-.521-2.216-1.063-2.819-1.862" fill="none"/><path stroke="#000" d="M449.177 384.99l2.82 1.75" fill="none"/><polyline stroke="#000" points="454.487,401.911 455.936,402.812 455.936,403.069 456.178,402.963 456.258,403.012 455.936,403.2 455.936,403.069" fill="none"/><path stroke="#000" d="M453.074 406.679l1.412.876 1.448-.851v-3.504" fill="none"/><path stroke="#000" d="M449.742 398.242c-.223.395-.329.829-.459 1.26l.464.288 1.509-.885" fill="none"/><line stroke="#000" x1="449.217" y1="400.103" x2="449.747" y2="399.79" fill="none"/><line stroke="#000" x1="447.776" y1="404.801" x2="447.781" y2="404.875" fill="none"/><path stroke="#000" d="M469.918 390.088l2.662 1.647 1.524-.893c1.845.967 3.584 2.116 5.355 3.216v7.3l-14.328 8.394c-.014-.501-.122-.99-.205-1.485" fill="none"/><path stroke="#000" d="M460.823 392.221l2.617-5.657c1.205.237 1.936.702 2.993 1.357" fill="none"/><line stroke="#000" x1="33.248" y1="225.466" x2="33.727" y2="225.764" fill="none"/><path stroke="#000" d="M322.003 365.78c27.354 16.983 54.71 33.97 82.063 50.954-8.586 5.039-17.174 10.078-25.768 15.11l-.746 2.102" fill="none"/><line stroke="#000" x1="423.246" y1="405.485" x2="404.067" y2="416.734" fill="none"/><path stroke="#000" d="M92.94 203.729l-.434 1.101v-.847c1.421-.492 2.839-5.892 3.499-7.159l-3.499-2.171v-2.239l-1.407-.875-.905.531" fill="none"/><line stroke="#000" x1="92.506" y1="203.982" x2="92.506" y2="194.652" fill="none"/><path stroke="#000" d="M75.189 289.62l-2.35-1.46c1.273-11.642 5.003-21.205 11.673-30.865-16.469-10.225-32.935-20.454-49.405-30.676" fill="none"/><path stroke="#000" d="M303.653 393.354l-27.474-17.057c-6.668 9.666-10.393 19.222-11.673 30.866-38.982-24.201-77.963-48.406-116.945-72.608.912 10.268 1.804 20.537 2.707 30.807 4.387-2.569 8.459-5.187 13.384-6.576-3.081-2.377-5.743-4.666-8.359-7.532" fill="none"/><path stroke="#000" d="M342.753 459.062l1.44-1.053-.188-1.487c-26.499-16.457-53.001-32.904-79.5-49.36" fill="none"/><polyline stroke="#000" points="429.01,415.713 429.01,417.065 430.865,415.979" fill="none"/><line stroke="#000" x1="423.246" y1="420.439" x2="429.01" y2="417.065" fill="none"/><line stroke="#000" x1="273.388" y1="428.272" x2="272.573" y2="427.766" fill="none"/><path stroke="#000" d="M11.598 595.219c2.918 1.089 9.871-4.789 12.118-6.109-.955-.592-3.585-1.576-3.955-2.72" fill="none"/><line stroke="#000" x1="80.858" y1="576.02" x2="80.858" y2="583.231" fill="none"/><path stroke="#000" d="M95.563 577.614c-2.043 1.196-7.083 5.587-9.763 5.237-1.964-3.113-.283-11.378-.283-14.904v-17.564" fill="none"/><line stroke="#000" x1="150.269" y1="365.362" x2="148.943" y2="366.138" fill="none"/><polyline stroke="#000" points="34.393,265.66 33.67,266.186 33.901,267.996 35.867,269.217" fill="none"/><line stroke="#000" x1="23.48" y1="261.527" x2="33.901" y2="267.996" fill="none"/><path stroke="#000" d="M85.812 616.882c4.751-4.464 9.501-8.93 14.251-13.395" fill="none"/><line stroke="#000" x1="9.398" y1="580.22" x2="6.804" y2="578.61" fill="none"/><line stroke="#000" x1="146.646" y1="324.118" x2="147.562" y2="334.555" fill="none"/><path stroke="#000" d="M62.224 602.324c-3.125 1.834-10.455 8.2-14.062 7.758-.509-.796-.283-2.152-.284-3.039" fill="none"/><path stroke="#000" d="M43.22 605.304v6.016" fill="none"/><path stroke="#000" d="M32.568 563.501v-4.354" fill="none"/><line stroke="#000" x1="11" y1="555.731" x2="11" y2="556.003" fill="none"/><path stroke="#000" d="M40.627 599.611c-1.054-.656-3.662-1.478-3.411-3.038-1.425.835-4.153 3.245-5.963 3.009-.52-.81-.287-2.175-.287-3.078" fill="none"/><line stroke="#000" x1="27.91" y1="566.234" x2="27.91" y2="566.503" fill="none"/><path stroke="#000" d="M30.123 539.479v5.04" fill="none"/><path stroke="#000" d="M-3.703 518.479v5.038" fill="none"/><line stroke="#000" x1="-5.913" y1="545.232" x2="-5.913" y2="545.501" fill="none"/><path stroke="#000" d="M15.658 552.999v-4.354" fill="none"/><path stroke="#000" d="M46.206 546.822l-5.054 2.966c.049-.479-.045-.946-.201-1.401" fill="none"/><path stroke="#000" d="M41.152 551.486v-1.698" fill="none"/><path stroke="#000" d="M-9.585 519.986v-1.686" fill="none"/><polyline stroke="#000" points="63.115,557.319 58.062,560.286 58.062,559.86" fill="none"/><path stroke="#000" d="M58.062 561.985v-1.698" fill="none"/><path stroke="#000" d="M-13.883 570.716c1.584-1.094 2.968-2.132 3.776-2.604-.953-.593-3.591-1.581-3.956-2.722" fill="none"/><line stroke="#000" x1="-7.513" y1="569.722" x2="-10.107" y2="568.111" fill="none"/><path stroke="#000" d="M24.24 539.227c.045-.461-.053-.907-.202-1.34" fill="none"/><path stroke="#000" d="M296.453 349.917l2.327-2.774-167.75-104.154c.939-5.098 1.625-9.309 4.075-13.903 2.775-5.205 5.55-10.409 8.325-15.613 5.64-10.575 11.347-21.086 17.232-31.525" fill="none"/><line stroke="#000" x1="453.074" y1="403.778" x2="451.859" y2="403.935" fill="none"/><polyline stroke="#000" points="89.141,214.494 89.141,208.133 87.669,207.219 87.669,206.82 87.335,207.015 87.669,207.219" fill="none"/><line stroke="#000" x1="85.919" y1="206.134" x2="87.335" y2="207.015" fill="none"/><path stroke="#000" d="M457.85 399.096l1.587.984v4.031l-.728.426-2.451-1.525" fill="none"/><line stroke="#000" x1="457.85" y1="398.637" x2="457.85" y2="397.581" fill="none"/><path stroke="#000" d="M409.077 419.844c-5.602 3.263-11.186 6.56-16.778 9.838v2.611l3.448 2.141c-7.758 8.126-18.363 12.91-28.02 18.575.5.55 1.294.936 1.93 1.336" fill="none"/><polyline stroke="#000" points="414.011,421.261 412.607,422.087 412.607,422.77 412.133,422.364 411.962,422.464 412.607,422.863 412.607,422.77" fill="none"/><line stroke="#000" x1="409.796" y1="421.124" x2="411.962" y2="422.464" fill="none"/><polyline stroke="#000" points="448.406,402.279 449.113,402.713 449.113,404.018 449.066,404.047 449.392,404.251" fill="none"/><path stroke="#000" d="M472.58 391.735l1.91 1.188c-1.396 3.015-2.788 6.027-4.184 9.04-2.249-.45-4.29-2.163-6.229-3.368l-.975 2.104" fill="none"/><line stroke="#000" x1="455.936" y1="402.812" x2="456.178" y2="402.963" fill="none"/><path stroke="#000" d="M96.004 196.823l3.221-6.2-3.293-2.045c1.81-2.877 3.62-5.758 5.429-8.637" fill="none"/><line stroke="#000" x1="412.607" y1="422.087" x2="412.133" y2="422.364" fill="none"/><path stroke="#000" d="M395.747 434.433c4.087-4.962 12.151-8.468 18.282-9.236v-1.446l-1.422-.887" fill="none"/><path stroke="#000" d="M447.366 398.883l-.345.081.859-.501" fill="none"/><polyline stroke="#000" points="446.078,399.19 446.347,399.362 447.022,398.963" fill="none"/><path stroke="#000" d="M278.157 373.437c-17.462-10.836-34.924-21.673-52.387-32.51-11.792-7.318-23.587-14.639-35.381-21.958-3.486-2.162-6.97-4.325-10.455-6.488-3.173-1.97-3.596-4.164-6.773-6.134-.942-.692-1.913-1.341-2.914-1.945 5.082 2.595-8.704-3.337-3.147.112l-1.011-.629c-1.9-1.179-3.8-2.358-5.7-3.539-7.272-4.516-14.544-9.027-21.815-13.543-11.104-6.896-22.208-13.79-33.312-20.685.21-1.031-.234-1.616-1.054-2.125-2.438-1.515-5.418-4.254-8.186-5.004-1.152-.311-2.152.896-2.728 1.72-.592.845-.921 2.09-.471 3.051.958 2.039 6.167 3.989 7.985 5.117.92.572 1.642.925 2.629.169 11.103 6.894 22.207 13.789 33.312 20.682 7.007 4.35 14.014 8.699 21.021 13.051 2.043 1.269 4.086 2.538 6.13 3.806 2.363 1.467 2.43 3.437 5.193 5.151 1.713 1.061 4.068 3.528 6.054 1.831l-1.364-.844" fill="none"/><path stroke="#000" d="M14.177 232.71c-.014-2.862 1.173-8.802-.629-11.318l-4.949 2.748c-1.65-.458-3.299-.915-4.946-1.375-7.483 4.158-14.964 8.317-22.447 12.477" fill="none"/><path stroke="#000" d="M26.554 239.616c-4.154-5.791-8.28-11.6-12.419-17.4" fill="none"/><line stroke="#000" x1="84.511" y1="257.296" x2="92.652" y2="262.348" fill="none"/><line stroke="#000" x1="276.179" y1="376.298" x2="175.147" y2="313.566" fill="none"/><line stroke="#000" x1="87.669" y1="194.903" x2="87.669" y2="206.82" fill="none"/><path stroke="#000" d="M313.027 399.179c-1.152-.718-1.963-1.224-1.123-2.655.877-1.488 1.749-1.015 2.946-.273" fill="none"/><path stroke="#000" d="M428.593 406.768c.138.07.296.101.444.085l.05.046" fill="none"/><line stroke="#000" x1="428.758" y1="406.681" x2="429.038" y2="406.853" fill="none"/><path stroke="#000" d="M27.089 215.063l-1.939-3.693c-1.395-2.659-6.946-4.831-9.339-6.399-5.442 3.025-10.884 6.052-16.328 9.072l-4.948-1.375-10.924 7.769c3.004-9.826 8.751-18.695 15.953-25.935 4.743-4.767 15.329-13.112 22.857-11.099 8.073 2.152 14.857 6.708 21.146 12.132 4.338 3.743 3.952 12.691 3.397 17.671l27.78-16.292" fill="none"/><path stroke="#000" d="M35.708 221.47l2.048-6.824c.179 1.386.269 2.507.114 3.893l9.094-5.334" fill="none"/><line stroke="#000" x1="86.488" y1="254.434" x2="94.475" y2="259.423" fill="none"/><line stroke="#000" x1="35.002" y1="222.499" x2="37.118" y2="223.812" fill="none"/><line stroke="#000" x1="429.01" y1="402.107" x2="428.876" y2="402.186" fill="none"/><path stroke="#000" d="M37.757 214.646l.505-1.687c-1.457-.906-1.402-2.429-2.393-3.706-1.072-1.382-2.986-2.441-4.454-3.351" fill="none"/><path stroke="#000" d="M414.029 425.196c9.036-1.21 17.633 6.092 24.061 11.641 1.78 1.533 3.041 5.791 3.317 7.937l23.815-13.97v-19.024l-.092-.056v-1.971" fill="none"/><path stroke="#000" d="M72.839 288.16c-11.47-7.122-22.939-14.243-34.408-21.362l-1.438 1.052.187 1.488" fill="none"/><path stroke="#000" d="M464.635 385.254c.928.493 1.427 1.403 2.041 2.229" fill="none"/><path stroke="#000" d="M-.247 233.1c-.428-1.569.733-3.393 1.595-4.594.834-1.164 2.155-2.156 3.426-2.82l-.011-2.61" fill="none"/><path stroke="#000" d="M4.802 232.172l-.026-6.486" fill="none"/><path stroke="#000" d="M99.225 190.623c4.869-9.369 8.454-18.615 16.971-25.164" fill="none"/><line stroke="#000" x1="253.169" y1="415.721" x2="252.821" y2="415.501" fill="none"/><line stroke="#000" x1="23.423" y1="255.871" x2="23.764" y2="252.812" fill="none"/><path stroke="#000" d="M438.185 396.468c-1.571 2.916-3.144 5.834-4.713 8.75" fill="none"/><path stroke="#000" d="M3.935 239.34l2.084.984.003.033c1.122.536 2.504.784 3.714 1.018" fill="none"/><line stroke="#000" x1="24.944" y1="247.266" x2="26.735" y2="241.415" fill="none"/><path stroke="#000" d="M430.646 403.283c.156.111.282.247.375.402" fill="none"/><line stroke="#000" x1="430.656" y1="403.457" x2="430.981" y2="403.659" fill="none"/><path stroke="#000" d="M308.438 488.072l1.413.874v27.413l-46.793 27.44c1.891 1.267 2.088 2.702 1.571 4.872-.436 1.834-1.647 3.578-3.072 4.783-1.48 1.253-2.994 1.73-4.694.672-1.793-1.112-3.901-2.106-5.506-3.463-14.756 8.651-29.509 17.303-44.265 25.953-1.098.643-1.622.146-2.698-.522" fill="none"/><path stroke="#000" d="M37.936 580.773c-1.026-1.404-3.081-1.932-4.679-2.299" fill="none"/><line stroke="#000" x1="26.31" y1="590.721" x2="23.715" y2="589.109" fill="none"/><path stroke="#000" d="M110.333 495.546l-3.069 1.242c1.682-.714 3.225-1.437 4.8-2.362-3.106-1.928-6.212-3.856-9.318-5.786-1.31-.812-5.805-4.786-7.56-4.219" fill="none"/><path stroke="#000" d="M21.022 570.272c-1.01-1.406-3.089-1.931-4.678-2.294" fill="none"/><path stroke="#000" d="M30.923 636.133c-1.28-.795-2.572-1.57-3.834-2.389" fill="none"/><path stroke="#000" d="M68.603 565.821v-25.939" fill="none"/><path stroke="#000" d="M115.963 503.817c.824-.622.413-2.608.413-3.488l2.672-1.565-2.672-1.659c0-1.053.196-2.277-.237-3.264l-2.581 1.515-1.494-.928" fill="none"/><polyline stroke="#000" points="135.117,320.795 134.842,320.958 135.142,320.55 133.243,319.37" fill="none"/><path stroke="#000" d="M135.733 320.915l-.591-.365" fill="none"/><line stroke="#000" x1="52.271" y1="293.807" x2="49.948" y2="294.46" fill="none"/><path stroke="#000" d="M73.779 309.255l-34.674 4.079v13.419l6.38 3.958c.749 3.879 1.306 7.034 3.503 10.367" fill="none"/><line stroke="#000" x1="16.738" y1="312.862" x2="39.105" y2="326.753" fill="none"/><path stroke="#000" d="M123.955 504.562c2.562-1.941-4.077-5.283-4.909-5.799" fill="none"/><line stroke="#000" x1="88.87" y1="604.351" x2="102.895" y2="596.126" fill="none"/><line stroke="#000" x1="-14.218" y1="251.166" x2="-11.625" y2="250.438" fill="none"/><line stroke="#000" x1="-16.485" y1="251.802" x2="-14.218" y2="251.166" fill="none"/><path stroke="#000" d="M75.526 572.164c0-.591.032-1.196-.022-1.78" fill="none"/><path stroke="#000" d="M115.631 586.355c-2.023 1.185-6.104 4.765-8.533 4.517-1.535-2.397-.284-8.664-.284-11.282v-15.213" fill="none"/><line stroke="#000" x1="-2.856" y1="575.615" x2="-2.856" y2="571.918" fill="none"/><path stroke="#000" d="M51.694 555.012v-25.631" fill="none"/><path stroke="#000" d="M17.868 534.01v-25.626" fill="none"/><path stroke="#000" d="M81.161 587.523c5.237-3.088 10.49-6.153 15.735-9.229" fill="none"/><path stroke="#000" d="M66.392 596.184c-.006.381.082.775.285 1.099" fill="none"/><path stroke="#000" d="M44.824 589.595c-1.735.341-6.636 2.471-7.561 4.169-.358.662-.05 2.067-.047 2.809" fill="none"/><line stroke="#000" x1="49.48" y1="585.646" x2="49.496" y2="579.906" fill="none"/><line stroke="#000" x1="-5.007" y1="546.065" x2="-5.011" y2="556.379" fill="none"/><path stroke="#000" d="M34.78 544.512v-25.629" fill="none"/><line stroke="#000" x1="14.055" y1="586.091" x2="14.055" y2="582.417" fill="none"/><line stroke="#000" x1="-2.156" y1="547.835" x2="-2.156" y2="543.031" fill="none"/><line stroke="#000" x1="-1.257" y1="554.176" x2="-1.238" y2="548.406" fill="none"/><path stroke="#000" d="M15.939 565.781c.116.194.292.358.495.47" fill="none"/><path stroke="#000" d="M29.358 544.966c-1.38.248-7.02 2.751-7.46 4.373" fill="none"/><path stroke="#000" d="M-4.466 523.967c-1.376.248-7.025 2.749-7.458 4.373" fill="none"/><path stroke="#000" d="M-8.672 606.11c-1.91 1.121-2.937.027-4.657-1.039" fill="none"/><path stroke="#000" d="M25.108 627.138c-1.885 1.108-2.975-.051-4.658-1.094" fill="none"/><line stroke="#000" x1="47.035" y1="555.257" x2="46.27" y2="555.465" fill="none"/><path stroke="#000" d="M12.448 534.466c-1.378.254-7.025 2.745-7.458 4.373" fill="none"/><polyline stroke="#000" points="131.031,242.989 107.112,228.139 104.786,230.916" fill="none"/><line stroke="#000" x1="453.074" y1="405.874" x2="453.074" y2="404.171" fill="none"/><line stroke="#000" x1="449.272" y1="399.622" x2="449.283" y2="399.502" fill="none"/><line stroke="#000" x1="455.208" y1="397.455" x2="455.936" y2="397.906" fill="none"/><line stroke="#000" x1="448.636" y1="403.78" x2="449.066" y2="404.047" fill="none"/><line stroke="#000" x1="462.075" y1="397.351" x2="464.077" y2="398.596" fill="none"/><line stroke="#000" x1="456.428" y1="376.015" x2="456.875" y2="375.547" fill="none"/><line stroke="#000" x1="464.858" y1="411.554" x2="465.132" y2="411.723" fill="none"/><line stroke="#000" x1="462.006" y1="378.731" x2="464.615" y2="380.352" fill="none"/><path stroke="#000" d="M376.637 482.752c-1.989-15.625 3.491-31.948 14.476-43.464" fill="none"/><line stroke="#000" x1="176.97" y1="310.642" x2="175.539" y2="309.752" fill="none"/><polyline stroke="#000" points="378.299,431.845 380.452,425.796 379.074,424.94 378.62,425.208 375.72,433.354 375.153,433.691" fill="none"/><polyline stroke="#000" points="33.997,219.312 36.005,212.618 36.882,212.102 37.399,212.423" fill="none"/><line stroke="#000" x1="88.983" y1="191.321" x2="88.592" y2="191.073" fill="none"/><line stroke="#000" x1="87.049" y1="194.536" x2="86.694" y2="194.298" fill="none"/><path stroke="#000" d="M165.304 307.458c.294-1.131.918-2.186 1.826-2.925" fill="none"/><line stroke="#000" x1="103.437" y1="269.046" x2="102.306" y2="268.343" fill="none"/><line stroke="#000" x1="36.314" y1="219.45" x2="37.87" y2="218.539" fill="none"/><line stroke="#000" x1="92.506" y1="209.291" x2="92.506" y2="204.829" fill="none"/><line stroke="#000" x1="105.26" y1="266.118" x2="104.06" y2="265.375" fill="none"/><line stroke="#000" x1="66.028" y1="206.859" x2="68.067" y2="205.665" fill="none"/><line stroke="#000" x1="436.434" y1="412.936" x2="437.346" y2="412.796" fill="none"/><line stroke="#000" x1="373.5" y1="484.152" x2="373.697" y2="484.274" fill="none"/><path stroke="#000" d="M24.851 242.151v-.432l-3.344-2.053c1.669-.48.115-3.234-.626-3.893" fill="none"/><path stroke="#000" d="M16.111 241.413c1.937-.374 3.606-.943 5.396-1.746" fill="none"/><path stroke="#000" d="M466.664 384.357c1.199.698 1.201 1.716.442 2.855l1.408-.805" fill="none"/><polyline stroke="#000" points="439.768,418.044 439.855,418.101 439.855,426.654" fill="none"/><line stroke="#000" x1="72.147" y1="202.202" x2="72.357" y2="201.769" fill="none"/><path stroke="#000" d="M83.332 212.973v-3.123l-3.003-1.866c.238-.491.504-.974.703-1.482-.293-.424-.696-.737-1.122-1.022 1.386-2.825 2.969-5.62 4.167-8.526l-.562-.348" fill="none"/><line stroke="#000" x1="79.649" y1="206.009" x2="79.91" y2="205.479" fill="none"/><polyline stroke="#000" points="345.335,466.968 344.968,467.235 343.694,466.442" fill="none"/><path stroke="#000" d="M442.38 409.704l-.271-4.513-1.413-.876" fill="none"/><path stroke="#000" d="M459.186 376.982l.511.313c.57-.51 1.299-1.021 2.099-1.034" fill="none"/><line stroke="#000" x1="459.245" y1="377.766" x2="459.697" y2="377.296" fill="none"/><line stroke="#000" x1="79.368" y1="307.807" x2="75.556" y2="305.439" fill="none"/><line stroke="#000" x1="65.403" y1="208.146" x2="67.025" y2="208.577" fill="none"/><path stroke="#000" d="M441.406 444.771c1.644 12.853-2.689 25.143-10.011 35.692-6.573 9.473-17.848 21.35-30.621 20.573-1.297-.077-2.744-.731-4.003-1.065" fill="none"/><line stroke="#000" x1="25.006" y1="240.207" x2="25.894" y2="239.685" fill="none"/><polyline stroke="#000" points="78.909,210.305 79.191,210.291 80.329,207.984" fill="none"/><line stroke="#000" x1="385.099" y1="506.374" x2="385.3" y2="506.495" fill="none"/><path stroke="#000" d="M224.099 552.464c10.956-.78 19.543-3.354 28.672-9.48-1.669 1.809-3.116 5.511-1.414 7.682" fill="none"/><path stroke="#000" d="M263.058 543.801c-1.522-.944-3.041-1.897-4.567-2.836-1.539-.942-3.294-.439-4.556.819 1.055-1.173 2.825-2.508 3.445-3.96.843-1.965 2.106-3.949 2.091-6.104" fill="none"/><path stroke="#000" d="M252.772 542.983c.457-.312.794-.788 1.163-1.199" fill="none"/><line stroke="#000" x1="306.827" y1="539.754" x2="312.17" y2="536.617" fill="none"/><line stroke="#000" x1="-17.323" y1="637.73" x2="-7.824" y2="643.627" fill="none"/><path stroke="#000" d="M52.946 636.158c0-1.288.393-3.686-.39-4.812" fill="none"/><path stroke="#000" d="M116.137 493.841c-.335-.771-1.186-1.943-2.167-1.603" fill="none"/><path stroke="#000" d="M122.9 516.209l-3.07 1.241c1.72-.728 3.278-1.465 4.888-2.412l5.622 3.495v3.226" fill="none"/><path stroke="#000" d="M122.298 514.01c.828-.268 1.771.627 2.419 1.028" fill="none"/><path stroke="#000" d="M134.842 320.958c-2.44 1.433-4.882 2.863-7.323 4.294-2.077 1.218-3.396 3.223-4.418 5.365" fill="none"/><path stroke="#000" d="M124.44 519.294l-4.554 2.733c-.055 1.827-.898 2.689-2.553 3.381-1.606.673-2.385-1.719-2.544-2.818" fill="none"/><path stroke="#000" d="M119.83 517.45l-.662.271c.559 1.33.851 2.86.717 4.307" fill="none"/><path stroke="#000" d="M117.407 516.82c.788-.653 1.443.206 1.761.9" fill="none"/><line stroke="#000" x1="136.523" y1="639.625" x2="141.865" y2="636.495" fill="none"/><line stroke="#000" x1="10.776" y1="555.862" x2="4.113" y2="559.771" fill="none"/><path stroke="#000" d="M-8.386 613.277c.116.191.291.357.495.471" fill="none"/><line stroke="#000" x1="-13.769" y1="541.146" x2="-13.34" y2="540.894" fill="none"/><path stroke="#000" d="M85.8 582.852c.117.192.292.355.495.471" fill="none"/><path stroke="#000" d="M247.757 403.344c-7.554-10.508-22.783-16.713-33.636-23.451-6.674-4.144-13.348-8.288-20.021-12.431-4.162-2.583-11.577-9.264-16.669-9.63-5.119-.371-8.871-.447-13.779.956" fill="none"/><polyline stroke="#000" points="146.49,321.548 146.49,320.729 143.936,319.144 143.936,312.694 136.49,308.07 135.04,308.922 135.04,313.619 133.763,312.828" fill="none"/><path stroke="#000" d="M73.399 306.924c-.736-2.7-2.079-4.497-3.705-6.761" fill="none"/><path stroke="#000" d="M107.264 496.788l-.664.268c.562 1.323.856 2.868.722 4.306l4.549-2.729" fill="none"/><path stroke="#000" d="M107.321 501.361c-.122 3.051-4.021 4.924-4.952 1.257-.746-2.937.114-5.575 3.04-6.734.601.107.954.648 1.191 1.172" fill="none"/><path stroke="#000" d="M115.301 514.921c-.488-.244-1.043-.301-1.559-.092" fill="none"/><path stroke="#000" d="M98.227 579.268l-16.101 9.444c-.622-.331-1.305-.439-1.983-.594" fill="none"/><path stroke="#000" d="M83.832 589.65c-.529-.434-1.079-.666-1.706-.939" fill="none"/><line stroke="#000" x1="117.802" y1="304.669" x2="117.802" y2="302.92" fill="none"/><path stroke="#000" d="M121.736 312.228l-3.028-1.883v-1.612l2.873-1.685" fill="none"/><line stroke="#000" x1="135.04" y1="315.373" x2="135.04" y2="313.619" fill="none"/><path stroke="#000" d="M98.243 321.505c-2.783 8.171-6.868 12.095-13.82 17.03" fill="none"/><line stroke="#000" x1="116.601" y1="309.464" x2="116.345" y2="309.615" fill="none"/><path stroke="#000" d="M26.31 602.854c.096 1.47.771 2.255 2.106 2.847" fill="none"/><path stroke="#000" d="M48.164 610.083c.115.192.29.355.493.469" fill="none"/><line stroke="#000" x1="61.509" y1="587.366" x2="54.974" y2="591.197" fill="none"/><path stroke="#000" d="M-1.946 554.58c.255.559.972.864 1.469 1.172" fill="none"/><path stroke="#000" d="M79.93 609.104c.116.192.291.355.494.471" fill="none"/><line stroke="#000" x1="-6.135" y1="545.364" x2="-12.801" y2="549.272" fill="none"/><path stroke="#000" d="M107.098 590.872c.115.193.289.356.492.472" fill="none"/><path stroke="#000" d="M25.395 634.251c.118.193.292.356.496.469" fill="none"/><line stroke="#000" x1="13.211" y1="534.017" x2="13.211" y2="534.259" fill="none"/><path stroke="#000" d="M-2.573 578.58c.117.194.291.358.495.472" fill="none"/><line stroke="#000" x1="32.568" y1="575.23" x2="32.585" y2="569.405" fill="none"/><path stroke="#000" d="M32.855 576.281c.115.195.289.356.491.469" fill="none"/><path stroke="#000" d="M49.764 586.779c.115.195.291.36.492.472" fill="none"/><path stroke="#000" d="M8.452 623.728c.114.196.289.359.493.473" fill="none"/><path stroke="#000" d="M14.339 589.081c.116.193.29.358.494.473" fill="none"/><path stroke="#000" d="M-17.883 544.781c.115.191.29.356.492.472" fill="none"/><path stroke="#000" d="M.903 604.214c1.691-1.035 3.44-1.492 5.396-1.683" fill="none"/><path stroke="#000" d="M31.253 599.582c.113.19.289.356.491.471" fill="none"/><path stroke="#000" d="M378.262 487.596c-2.793.347-6.199-.354-8.613-1.863" fill="none"/><path stroke="#000" d="M376.353 434.651c-.139.051-.264.125-.376.221" fill="none"/><line stroke="#000" x1="34.316" y1="222.289" x2="34.142" y2="222.388" fill="none"/><path stroke="#000" d="M.156 235.177c.439.837 1.016 2.003 1.786 2.561" fill="none"/><path stroke="#000" d="M153.726 578.751c.721.375 1.446.731 2.177 1.088" fill="none"/><line stroke="#000" x1="307.93" y1="460.528" x2="307.93" y2="461.775" fill="none"/><polyline stroke="#000" points="129.276,313.405 126.374,315.106 125.846,314.777" fill="none"/><line stroke="#000" x1="145.012" y1="333.944" x2="140.433" y2="331.704" fill="none"/><line stroke="#000" x1="71.788" y1="342.021" x2="64.057" y2="340.182" fill="none"/><line stroke="#000" x1="385.099" y1="506.374" x2="385.3" y2="506.495" fill="none"/></svg>