<!DOCTYPE svg  PUBLIC '-//W3C//DTD SVG 1.1 Basic//EN'  'http://www.w3.org/Graphics/SVG/1.1/DTD/svg11-basic.dtd'>
<svg xmlns="http://www.w3.org/2000/svg" width="597.696px" xml:space="preserve" height="551.614px" viewBox="215.755 283.873 597.696 551.614" baseProfile="basic" version="1.1" y="0px" x="0px" xmlns:xlink="http://www.w3.org/1999/xlink">
<path stroke="#000" stroke-width="1.1" d="m219.72 834.968l120.14-41.46 0.012-113.214 35.422-30.035 96.357 14.872v-11.954l18.364 11.181 46.1-15.91 0.009-40.653 12.183 7.42 72.036-24.858 42.435 25.836c0-13.492 0-26.983 0.008-40.475l32.524-11.227 7.868-69.291 62.866-21.695 3.757-9.768 33.047-11.403 9.927-25.906-16.928-10.312-33.118 11.43-10.332-6.296-42.492 14.662 0.948-8.35-81.087-49.363-38.922 13.425-8.047-4.895v-16.927l-17.741-10.804 0.004-23.157-51.731-31.499-42.029 14.498-55.721-33.917v47.75l-23.731 8.187-69.808-42.502-49.809 17.188-0.015 131.57 38.198 23.261-11.774 13.829-3.881-0.054-78.017-47.502" fill="#fff"/><g stroke="#000" fill="none"><g stroke-width=".6">
<polyline points="471.808 665.059 356.81 595.043 356.812 583.094 471.808 653.105"/>
<polyline points="517.193 454.101 517.193 450.949 582.942 428.255 507.968 382.604 490.222 388.727"/>
<polyline points="215.997 479.287 218.717 483.01 218.698 638.052 318.263 698.66 340.011 793.438 218.574 719.5"/>
<polyline points="298.789 484.133 298.777 603.511 218.698 638.052"/>
<path d="m662.928 591.514c-17.817-10.839-35.632-21.686-53.447-32.533-0.085-0.052-0.172-0.104-0.256-0.155"/>
<polyline points="570.221 517.668 570.217 557.757 609.225 581.502"/>
<polyline points="526.178 554.285 526.174 572.955 570.217 557.757"/>
<polyline points="428.198 557.181 428.198 582.568 359.502 540.748 313.394 556.658"/>
<line y2="475.067" x1="359.502" x2="359.504" y1="540.748"/>
<polyline points="756.594 429.64 756.594 461.587 795.993 447.996 795.998 416.042"/>
<line y2="452.262" x1="795.993" x2="803" y1="447.996"/>
<line y2="465.853" x1="756.594" x2="763.601" y1="461.587"/>
<polyline points="657.569 497.885 752.539 465.114 752.549 421.176"/>
<line y2="465.114" x1="766.198" x2="752.539" y1="473.431"/>
<line y2="411.246" x1="631.563" x2="582.942" y1="440.85"/>
<line y2="454.773" x1="601.963" x2="631.936" y1="465.116"/>
<polyline points="521.296 456.599 517.193 450.949 465.451 419.443 465.453 385.516 490.224 376.969"/>
<line y2="483.249" x1="566.558" x2="540.651" y1="518.938"/>
<polyline points="428.198 582.568 446.981 576.089 446.987 550.695"/>
<line y2="615.322" x1="446.981" x2="511.42" y1="576.089"/>
<line y2="648.375" x1="492.643" x2="536.27" y1="621.807"/>
<polyline points="462.646 502.396 527.096 480.159 527.085 541.05 492.649 552.933 506.201 561.183"/>
<line y2="562.183" x1="492.649" x2="465.838" y1="552.933"/>
<line y2="549.304" x1="527.085" x2="540.637" y1="541.05"/>
<line y2="565.866" x1="479.403" x2="492.647" y1="570.434"/>
<polyline points="428.2 516.893 414.646 508.645 449.088 496.76 449.097 412.641"/>
<line y2="440.919" x1="527.096" x2="462.646" y1="480.159"/>
<line y2="496.76" x1="462.642" x2="449.088" y1="505.011"/>
<line y2="415.975" x1="356.823" x2="356.83" y1="475.994"/>
<polyline points="490.232 330.205 490.23 354.802 440.005 324.223"/>
<line y2="382.604" x1="507.982" x2="507.968" y1="324.078"/>
<polyline points="513.474 402.88 465.451 419.443 465.449 422.596"/>
<line y2="344.145" x1="565.211" x2="540.935" y1="335.768"/>
<polyline points="272.367 447.043 322.175 429.856 337.217 439.012"/>
<line y2="432.35" x1="391.997" x2="391.988" y1="340.788"/>
<line y2="429.856" x1="322.191" x2="322.175" y1="298.284"/>
<line y2="370.021" x1="465.453" x2="439.998" y1="385.516"/>
<polyline points="602.908 537.571 633.829 526.896 695.461 564.418"/>
<line y2="480.573" x1="368.55" x2="368.544" y1="440.432"/>
<polyline points="375.444 650.188 298.777 603.511 356.81 595.043"/></g><g stroke-width="1.1">
<path d="m414.646 508.645c-17.562-10.69-35.122-21.383-52.683-32.079-0.819-0.498-1.64-0.999-2.459-1.497-15.366 5.308-30.735 10.609-46.104 15.915l-0.007 65.676 43.418 26.436"/>
<path d="m219.871 834.896l120.14-41.461 0.012-113.215 35.421-30.034 96.364 14.871v-11.953l18.362 11.18 46.1-15.909 0.007-40.654 12.185 7.422 72.031-24.86-13.283-8.087-42.023 14.502c-17.246-10.496-34.494-20.987-51.73-31.496l-0.005-6.521-7.247 2.502 30.074 18.312v28.226"/>
<polyline points="218.717 483.01 294.91 484.08 216.893 436.575"/>
<path d="m513.448 558.681c9.062-3.129 18.125-6.255 27.188-9.377l-0.004-21.428 11.336-3.907-11.323-6.896c0.003-16.229 0.005-32.459-0.002-48.692-17.673-10.761-35.345-21.521-53.017-32.283-12.844-7.818-25.688-15.639-38.53-23.457l-9.103 3.14c0.002-19.167 0.004-38.332 0.006-57.499 0.003-11.354 0.003-22.707 0.005-34.059"/>
<path d="m513.482 304.27l-42.027 14.5 18.777 11.437 17.75-6.127 5.489 3.348 0.011-23.158 51.729 31.498-0.006 23.157c-17.244-10.501-34.49-21-51.734-31.5"/>
<polyline points="582.949 386.656 582.946 394.326 590.994 391.55 582.949 386.656 582.949 369.73 565.205 358.925"/>
<path d="m471.453 318.77l-55.721-33.918v47.75l-23.735 8.188-69.808-42.504-49.808 17.188-0.016 131.57 38.197 23.259c13.58-15.944 27.161-31.889 40.739-47.836 1.842-2.163 3.686-4.327 5.525-6.491l29.881 18.189c9.671-3.327 19.336-6.669 29.005-10.007l0.018-91.556"/>
<path d="m551.969 523.969c6.085-2.098 12.169-4.194 18.252-6.301 13.003 7.917 26.006 15.831 39.006 23.751-0.002 13.363-0.002 26.723-0.002 40.083l-2.018 0.692"/>
<path d="m492.649 552.933c-0.002 8.521-0.002 17.044-0.002 25.564l18.783 11.432-0.01 25.395-18.777 6.483"/>
<path d="m462.646 440.919v61.46c0 0.877-0.002 1.754-0.004 2.632l-34.44 11.882-0.004 40.288 18.789-6.484c15.217 9.271 30.44 18.535 45.66 27.802"/>
<line y2="517.073" x1="540.633" x2="540.646" y1="527.876"/>
<path d="m582.946 394.326c-0.002 11.31-0.004 22.619-0.004 33.929 8.383 16.245 16.766 32.487 25.146 48.732 8.579 16.637 17.161 33.272 25.743 49.907-0.591-22.465-1.181-44.931-1.769-67.396-0.494-18.788-0.996-37.578-1.488-56.366-0.219-8.336-0.438-16.672-0.656-25.009l81.087 49.367-0.947 8.349-52.482 18.11-0.005 43.936 13.654 8.315 32.108-11.073-7.87 69.291-32.525 11.227c-0.006 13.491-0.008 26.982-0.006 40.475l-42.438-25.837"/>
<line y2="415.779" x1="415.716" x2="439.994" y1="424.157"/>
<line y2="434.164" x1="368.55" x2="386.711" y1="440.432"/>
<line y2="463.662" x1="763.601" x2="769.95" y1="465.853"/>
<line y2="427.472" x1="756.594" x2="762.879" y1="429.64"/>
<path d="m490.23 354.802c-0.004 11.308-0.006 22.616-0.008 33.925l23.252 14.153"/>
<line y2="575.644" x1="646.28" x2="662.936" y1="581.386"/>
<polyline points="294.91 484.08 298.789 484.133 310.566 470.302"/>
<line y2="680.222" x1="318.263" x2="340.023" y1="698.66"/>
<polyline points="294.91 484.08 298.789 484.133 310.566 470.302"/>
<polyline points="294.91 484.08 298.789 484.133 310.566 470.302"/>
<polyline points="294.91 484.08 298.789 484.133 310.566 470.302"/>
<polyline points="294.91 484.08 298.789 484.133 310.566 470.302"/>
</g></g></svg>
